<?xml version="1.0" encoding="UTF-8" standalone="no"?>
<!-- Created with Inkscape (http://www.inkscape.org/) -->

<svg
   id="svg11300"
   width="32"
   height="32"
   version="1.0"
   xmlns:xlink="http://www.w3.org/1999/xlink"
   xmlns="http://www.w3.org/2000/svg"
   xmlns:svg="http://www.w3.org/2000/svg">
  <defs
     id="defs3">
    <linearGradient
       id="linearGradient3028">
      <stop
         id="stop3030"
         offset="0" />
      <stop
         id="stop3032"
         style="stop-opacity:0"
         offset="1" />
    </linearGradient>
    <linearGradient
       id="linearGradient5536"
       x1="-104.53"
       x2="-104.76"
       y1="74.24"
       y2="84.22"
       gradientTransform="matrix(0.24798,0,0,0.32066,39.078645,-27.209441)"
       gradientUnits="userSpaceOnUse">
      <stop
         id="stop6546"
         style="stop-color:#ebebeb"
         offset="0" />
      <stop
         id="stop6548"
         style="stop-color:#b4b4b4"
         offset="1" />
    </linearGradient>
    <linearGradient
       id="linearGradient5538"
       x1="15.114"
       x2="15.031"
       y1="18"
       y2="40"
       gradientTransform="matrix(0.65957,0,0,0.76191,-0.09214525,-30.679741)"
       gradientUnits="userSpaceOnUse">
      <stop
         id="stop7605"
         style="stop-color:#b4b4b4"
         offset="0" />
      <stop
         id="stop7607"
         style="stop-color:#8c8c8c"
         offset="1" />
    </linearGradient>
    <radialGradient
       id="radialGradient5544"
       cx="3"
       cy="33.214"
       r="3"
       gradientTransform="matrix(0,-0.75,1.3333,0,-40.286,35)"
       gradientUnits="userSpaceOnUse"
       xlink:href="#linearGradient3028" />
    <radialGradient
       id="radialGradient5546"
       cx="3"
       cy="33.214"
       r="3"
       gradientTransform="matrix(0,-0.75,1.3333,0,-88.286,-30.5)"
       gradientUnits="userSpaceOnUse"
       xlink:href="#linearGradient3028" />
    <linearGradient
       id="linearGradient5548"
       x1="37.031"
       x2="37.031"
       y1="35.063"
       y2="29.995"
       gradientTransform="matrix(1,0,0,0.88889,0,3.8333)"
       gradientUnits="userSpaceOnUse">
      <stop
         id="stop3044"
         style="stop-opacity:0"
         offset="0" />
      <stop
         id="stop3050"
         offset=".5" />
      <stop
         id="stop3046"
         style="stop-opacity:0"
         offset="1" />
    </linearGradient>
    <linearGradient
       id="linearGradient6347"
       x1="8.6875"
       x2="9"
       y1="5.375"
       y2="23"
       gradientTransform="rotate(90,13.673398,13.411043)"
       gradientUnits="userSpaceOnUse">
      <stop
         id="stop4576"
         style="stop-color:#282828"
         offset="0" />
      <stop
         id="stop4578"
         style="stop-color:#5a5c58"
         offset="1" />
    </linearGradient>
    <linearGradient
       y2="25"
       x2="36.608757"
       y1="25"
       x1="12.029413"
       gradientTransform="matrix(-0.60000002,0,0,0.66666667,36.4,-0.166795)"
       gradientUnits="userSpaceOnUse"
       id="linearGradient3941-27"
       xlink:href="#linearGradient971" />
    <linearGradient
       id="linearGradient971">
      <stop
         style="stop-color:#7a0000;stop-opacity:0"
         offset="0"
         id="stop961" />
      <stop
         id="stop963"
         offset="0.06865654"
         style="stop-color:#7a0000;stop-opacity:1" />
      <stop
         id="stop965"
         offset="0.5"
         style="stop-color:#7a0000;stop-opacity:0" />
      <stop
         style="stop-color:#7a0000;stop-opacity:1"
         offset="0.82605612"
         id="stop967" />
      <stop
         style="stop-color:#7a0000;stop-opacity:0"
         offset="1"
         id="stop969" />
    </linearGradient>
    <radialGradient
       cx="99.157013"
       cy="186.17059"
       r="62.769119"
       fx="99.157013"
       fy="186.17059"
       id="radialGradient5362-9"
       xlink:href="#linearGradient3820-7-2-1-2-6"
       gradientUnits="userSpaceOnUse"
       gradientTransform="matrix(0.15931399,0,0,0.03982852,6.2029,21.085225)" />
    <linearGradient
       id="linearGradient3820-7-2-1-2-6">
      <stop
         id="stop3822-2-6-3-3-7"
         style="stop-color:#3d3d3d;stop-opacity:1"
         offset="0" />
      <stop
         id="stop3864-8-7-7-9-1"
         style="stop-color:#686868;stop-opacity:0.49803922"
         offset="0.5" />
      <stop
         id="stop3824-1-2-5-0-3"
         style="stop-color:#686868;stop-opacity:0"
         offset="1" />
    </linearGradient>
    <linearGradient
       x1="20.4"
       y1="14.64286"
       x2="20.4"
       y2="58.07143"
       id="linearGradient4393-0"
       xlink:href="#linearGradient3242-4-2"
       gradientUnits="userSpaceOnUse"
       gradientTransform="matrix(0.55555556,0,0,0.18421053,8.66667,21.302505)" />
    <linearGradient
       id="linearGradient3242-4-2">
      <stop
         id="stop3244-8-8"
         style="stop-color:#ff8c82;stop-opacity:1"
         offset="0" />
      <stop
         id="stop3250-3-0"
         style="stop-color:#a10705;stop-opacity:1"
         offset="1" />
    </linearGradient>
    <linearGradient
       x1="-17.12093"
       y1="-93.091553"
       x2="-45.761551"
       y2="-93.091553"
       id="linearGradient5066-8-59"
       xlink:href="#linearGradient5118"
       gradientUnits="userSpaceOnUse"
       gradientTransform="matrix(0.36855189,0,0,0.13359585,31.64328,15.699155)"
       spreadMethod="reflect" />
    <linearGradient
       id="linearGradient5118">
      <stop
         id="stop5120"
         style="stop-color:#9d9d9d;stop-opacity:1"
         offset="0" />
      <stop
         id="stop5122"
         style="stop-color:#ffffff;stop-opacity:1"
         offset="1" />
    </linearGradient>
    <linearGradient
       x1="-20.446733"
       y1="-93.091553"
       x2="-48.479328"
       y2="-93.091553"
       id="linearGradient3457-7-6-6"
       xlink:href="#linearGradient2793-2-0-669-94-2"
       gradientUnits="userSpaceOnUse"
       gradientTransform="matrix(0.12740271,0,0,0.15113872,25.31926,17.024155)"
       spreadMethod="reflect" />
    <linearGradient
       id="linearGradient2793-2-0-669-94-2">
      <stop
         id="stop4681-3-1"
         style="stop-color:#b4b4b4;stop-opacity:1"
         offset="0" />
      <stop
         id="stop4683-67-4"
         style="stop-color:#ffffff;stop-opacity:1"
         offset="1" />
    </linearGradient>
    <linearGradient
       x1="30"
       y1="7"
       x2="30"
       y2="43"
       id="linearGradient4760-20"
       xlink:href="#linearGradient4762"
       gradientUnits="userSpaceOnUse"
       gradientTransform="matrix(0.51999998,0,0,0.64864864,9.52,0.283655)" />
    <linearGradient
       id="linearGradient4762">
      <stop
         id="stop4764"
         style="stop-color:#ffffff;stop-opacity:1"
         offset="0" />
      <stop
         id="stop4766"
         style="stop-color:#ffffff;stop-opacity:0.23529412"
         offset="0.05034721" />
      <stop
         id="stop4768"
         style="stop-color:#ffffff;stop-opacity:0.15686275"
         offset="0.94965279" />
      <stop
         id="stop4770"
         style="stop-color:#ffffff;stop-opacity:0.39215687"
         offset="1" />
    </linearGradient>
    <linearGradient
       x1="13.681819"
       y1="17.458462"
       x2="17.77273"
       y2="35.717499"
       id="linearGradient5508-01"
       xlink:href="#linearGradient10515"
       gradientUnits="userSpaceOnUse"
       gradientTransform="matrix(0.9777772,0,0,1.3941434,3.62223,-20.567585)" />
    <linearGradient
       id="linearGradient10515">
      <stop
         style="stop-color:#ffffff;stop-opacity:1;"
         offset="0"
         id="stop10517" />
      <stop
         style="stop-color:#ffffff;stop-opacity:0;"
         offset="1"
         id="stop10519" />
    </linearGradient>
    <linearGradient
       x1="25.272734"
       y1="17.458462"
       x2="27.31819"
       y2="35.717499"
       id="linearGradient5510-67"
       xlink:href="#linearGradient10515"
       gradientUnits="userSpaceOnUse"
       gradientTransform="matrix(0.9777772,0,0,1.4146455,0.2889,-21.112695)" />
    <radialGradient
       cx="16.5"
       cy="7.5"
       r="3.5"
       fx="16.5"
       fy="7.5"
       id="radialGradient5132-57"
       xlink:href="#linearGradient10515"
       gradientUnits="userSpaceOnUse"
       gradientTransform="matrix(0.53450479,0,0,0.5901873,8.76891,0.076165)" />
    <linearGradient
       gradientTransform="matrix(0.3333471,0,0,0.32559732,65.7498,9.5797)"
       gradientUnits="userSpaceOnUse"
       xlink:href="#linearGradient4171"
       id="linearGradient3042"
       y2="43.828014"
       x2="24"
       y1="1.7296801"
       x1="24" />
    <linearGradient
       id="linearGradient4171">
      <stop
         id="stop4173"
         offset="0"
         style="stop-color:#ffe16b;stop-opacity:1" />
      <stop
         id="stop4175"
         offset="1"
         style="stop-color:#f9c440;stop-opacity:1" />
    </linearGradient>
    <linearGradient
       gradientTransform="matrix(0.3209283,0,-0.00139699,0.29826454,64.43019,6.04866)"
       gradientUnits="userSpaceOnUse"
       xlink:href="#linearGradient3117-8"
       id="linearGradient3039"
       y2="57.567127"
       x2="29.291178"
       y1="19.787613"
       x1="29.126724" />
    <linearGradient
       id="linearGradient3117-8">
      <stop
         id="stop3119-9"
         style="stop-color:#ffffff;stop-opacity:1"
         offset="0" />
      <stop
         id="stop3121-9"
         style="stop-color:#ffffff;stop-opacity:0.23529412"
         offset="0.56911701" />
      <stop
         id="stop3123-6"
         style="stop-color:#ffffff;stop-opacity:0.15686275"
         offset="0.93297637" />
      <stop
         id="stop3125-3"
         style="stop-color:#ffffff;stop-opacity:0.39215687"
         offset="1" />
    </linearGradient>
    <linearGradient
       xlink:href="#linearGradient929-0"
       id="linearGradient3941-43"
       gradientUnits="userSpaceOnUse"
       gradientTransform="matrix(0.60000002,0,0,0.66666667,-68.76793,-3.62825)"
       x1="12.029413"
       y1="25"
       x2="36.608757"
       y2="25" />
    <linearGradient
       id="linearGradient929-0">
      <stop
         id="stop918-8"
         offset="0"
         style="stop-color:#ad5f00;stop-opacity:0" />
      <stop
         style="stop-color:#ad5f00;stop-opacity:1"
         offset="0.08017239"
         id="stop921-3" />
      <stop
         style="stop-color:#ad5f00;stop-opacity:0"
         offset="0.48701805"
         id="stop923-8" />
      <stop
         id="stop925-7"
         offset="0.82605612"
         style="stop-color:#ad5f00;stop-opacity:1" />
      <stop
         id="stop927-3"
         offset="1"
         style="stop-color:#ad5f00;stop-opacity:0" />
    </linearGradient>
    <radialGradient
       gradientTransform="matrix(0.15931399,0,0,0.03982852,38.57083,17.62377)"
       gradientUnits="userSpaceOnUse"
       xlink:href="#linearGradient3820-7-2-1-2-6"
       id="radialGradient5362-98"
       fy="186.17059"
       fx="99.157013"
       r="62.769119"
       cy="186.17059"
       cx="99.157013" />
    <linearGradient
       gradientTransform="matrix(1,0,0,0.32432432,26.86793,-5.89401)"
       xlink:href="#linearGradient899-0"
       id="linearGradient901-85"
       x1="20.038094"
       y1="84.583336"
       x2="43.5"
       y2="84.583336"
       gradientUnits="userSpaceOnUse" />
    <linearGradient
       id="linearGradient899-0">
      <stop
         id="stop895-5"
         offset="0"
         style="stop-color:#ffe16b;stop-opacity:1" />
      <stop
         id="stop897-0"
         offset="1"
         style="stop-color:#d48e15;stop-opacity:1" />
    </linearGradient>
    <linearGradient
       x1="30"
       y1="32.586082"
       x2="30"
       y2="43"
       id="linearGradient4760-7-0"
       xlink:href="#linearGradient4271"
       gradientUnits="userSpaceOnUse"
       gradientTransform="matrix(0.56521739,0,0,0.49999961,40.80271,3.28843)" />
    <linearGradient
       id="linearGradient4271">
      <stop
         offset="0"
         style="stop-color:#ffffff;stop-opacity:1"
         id="stop4273" />
      <stop
         offset="0.2559385"
         style="stop-color:#ffffff;stop-opacity:0.23529412"
         id="stop4275" />
      <stop
         offset="0.90909094"
         style="stop-color:#ffffff;stop-opacity:0.15686275"
         id="stop4277" />
      <stop
         offset="1"
         style="stop-color:#ffffff;stop-opacity:0.39215687"
         id="stop4279" />
    </linearGradient>
    <linearGradient
       spreadMethod="reflect"
       gradientTransform="matrix(0.36855189,0,0,0.13359585,64.01121,12.2377)"
       gradientUnits="userSpaceOnUse"
       xlink:href="#linearGradient5118"
       id="linearGradient5066-8-50"
       y2="-93.091553"
       x2="-45.761551"
       y1="-93.091553"
       x1="-17.12093" />
    <linearGradient
       spreadMethod="reflect"
       gradientTransform="matrix(0.12740271,0,0,0.15113872,57.68718,13.5627)"
       gradientUnits="userSpaceOnUse"
       xlink:href="#linearGradient2793-2-0-669-94-2"
       id="linearGradient3457-7-6-28"
       y2="-93.091553"
       x2="-48.479328"
       y1="-93.091553"
       x1="-20.446733" />
    <linearGradient
       gradientTransform="matrix(0.51999998,0,0,0.64864864,41.88793,-3.1778)"
       gradientUnits="userSpaceOnUse"
       xlink:href="#linearGradient4762"
       id="linearGradient4760-79"
       y2="43"
       x2="30"
       y1="7"
       x1="30" />
    <linearGradient
       gradientTransform="matrix(0.9777772,0,0,1.3941434,35.99016,-24.02904)"
       gradientUnits="userSpaceOnUse"
       xlink:href="#linearGradient10515"
       id="linearGradient5508-98"
       y2="35.717499"
       x2="17.77273"
       y1="17.458462"
       x1="13.681819" />
    <linearGradient
       gradientTransform="matrix(0.9777772,0,0,1.4146455,32.65683,-24.57415)"
       gradientUnits="userSpaceOnUse"
       xlink:href="#linearGradient10515"
       id="linearGradient5510-05"
       y2="35.717499"
       x2="27.31819"
       y1="17.458462"
       x1="25.272734" />
    <radialGradient
       gradientTransform="matrix(0.53450479,0,0,0.5901873,41.13684,-3.38529)"
       gradientUnits="userSpaceOnUse"
       xlink:href="#linearGradient10515"
       id="radialGradient5132-20"
       fy="7.5"
       fx="16.5"
       r="3.5"
       cy="7.5"
       cx="16.5" />
  </defs>
  <g
     id="g106828"
     transform="translate(-1.0844552,0.26236524)">
    <rect
       id="rect6674"
       x="0.23763476"
       y="-16.58444"
       width="31"
       height="15"
       rx="1"
       ry="1"
       style="fill:url(#linearGradient5536);stroke:url(#linearGradient5538);stroke-width:0.99997;enable-background:new"
       transform="rotate(90)" />
    <path
       id="path6794"
       d="m 14.084441,27.619645 c -0.4871,0 -0.88196,-0.17101 -0.88196,-0.38196 0,-0.21095 0.39487,-0.38196 0.88196,-0.38196 0.48709,0 0.88196,0.17101 0.88196,0.38196 0,0.21095 -0.39487,0.38196 -0.88196,0.38196 z"
       style="fill:#3ce010;stroke:#297713;stroke-width:0.23608;enable-background:new" />
    <path
       id="path6806"
       d="m 14.084441,29.619645 c -0.48709,0 -0.88196,-0.17101 -0.88196,-0.38196 0,-0.21095 0.39487,-0.38196 0.88196,-0.38196 0.48709,0 0.88196,0.17101 0.88196,0.38196 0,0.21095 -0.39487,0.38196 -0.88196,0.38196 z"
       style="fill:#146400;stroke:#154708;stroke-width:0.23608;enable-background:new" />
    <path
       id="path6807"
       d="m 14.084441,25.619645 c -0.48709,0 -0.88196,-0.17101 -0.88196,-0.38196 0,-0.21095 0.39487,-0.38196 0.88196,-0.38196 0.48709,0 0.88196,0.17101 0.88196,0.38196 0,0.21095 -0.39487,0.38196 -0.88196,0.38196 z"
       style="fill:#146400;stroke:#154708;stroke-width:0.23608;enable-background:new" />
    <path
       id="rect5550"
       d="m 15.084441,1.7376448 h -2 v 1.9999999 h 2 z m 0,2.9999999 h -2 v 4 h 2 z m 0,5 h -2 v 4.0000003 h 2 z m 0,5.0000003 h -2 v 4 h 2 z m 0,5 h -2 v 4 h 2 z m -3,-18.0000002 H 4.0844407 V 18.737645 h 8.0000003 z m 0,18.0000002 H 9.0844407 v 4 h 3.0000003 z m 0,5 H 4.0844407 v 5 h 8.0000003 z m -4.0000003,-4 h -2 v -1 h -2 v 4 h 2 v -1 h 2 z"
       style="fill:url(#linearGradient6347)" />
    <path
       id="rect6349"
       d="m 15.084441,1.7376448 c -0.68102,0.068981 -1.8433,-0.34334 -1.5,0.75 -0.34334,1.0932999 0.81898,0.6810199 1.5,0.7499999 z m 0,2.9999999 c -0.68102,0.068981 -1.8433,-0.34334 -1.5,0.75 -0.34334,1.0933 0.81898,0.68102 1.5,0.75 z m 0,2 c -0.68102,0.068981 -1.8433,-0.34334 -1.5,0.75 -0.34334,1.0933 0.81898,0.68102 1.5,0.75 z m 0,3 c -0.68102,0.06898 -1.8433,-0.34334 -1.5,0.7500003 -0.34334,1.0933 0.81898,0.68102 1.5,0.75 z m 0,2.0000003 c -0.68102,0.06898 -1.8433,-0.34334 -1.5,0.75 -0.34334,1.0933 0.81898,0.68102 1.5,0.75 z m 0,3 c -0.68102,0.06898 -1.8433,-0.34334 -1.5,0.75 -0.34334,1.0933 0.81898,0.68102 1.5,0.75 z m 0,2 c -0.68102,0.06898 -1.8433,-0.34334 -1.5,0.75 -0.34334,1.0933 0.81898,0.68102 1.5,0.75 z m 0,3 c -0.68102,0.06898 -1.8433,-0.34334 -1.5,0.75 -0.34334,1.0933 0.81898,0.68102 1.5,0.75 z m 0,2 c -0.68102,0.06898 -1.8433,-0.34334 -1.5,0.75 -0.34334,1.0933 0.81898,0.68102 1.5,0.75 z m -3,-20.0000002 c -0.68102,0.068981 -1.8433,-0.34334 -1.5,0.75 -0.34334,1.0932999 0.81898,0.6810199 1.5,0.7499999 z m 0,1.9999999 c -0.68102,0.068981 -1.8433,-0.34334 -1.5,0.75 -0.34334,1.0933 0.81898,0.68102 1.5,0.75 z m 0,2 c -0.68102,0.068981 -1.8433,-0.34334 -1.5,0.75 -0.34334,1.0933 0.81898,0.68102 1.5,0.75 z m 0,2 c -0.68102,0.068981 -1.8433,-0.34334 -1.5,0.75 -0.34334,1.0933 0.81898,0.68102 1.5,0.75 z m 0,2 c -0.68102,0.06898 -1.8433,-0.34334 -1.5,0.7500003 -0.34334,1.0933 0.81898,0.68102 1.5,0.75 z m 0,2.0000003 c -0.68102,0.06898 -1.8433,-0.34334 -1.5,0.75 -0.34334,1.0933 0.81898,0.68102 1.5,0.75 z m 0,2 c -0.68102,0.06898 -1.8433,-0.34334 -1.5,0.75 -0.34334,1.0933 0.81898,0.68102 1.5,0.75 z m 0,2 c -0.68102,0.06898 -1.8433,-0.34334 -1.5,0.75 -0.34334,1.0933 0.81898,0.68102 1.5,0.75 z m 0,2 c -0.81714,-0.04042 -1.9132,-0.20804 -1.4599,0.93952 0.83513,-0.0061 1.7361,0.56676 1.4599,-0.93952 z m 0,2 c -0.68102,0.06898 -1.8433,-0.34334 -1.5,0.75 -0.34334,1.0933 0.81898,0.68102 1.5,0.75 z m 0,2 c -0.68102,0.06898 -1.8433,-0.34334 -1.5,0.75 -0.34334,1.0933 0.81898,0.68102 1.5,0.75 z m 0,3 c -0.68102,0.06898 -1.8433,-0.34334 -1.5,0.75 -0.34334,1.0933 0.81898,0.68102 1.5,0.75 z m 0,2 c -0.68102,0.06898 -1.8433,-0.34334 -1.5,0.75 -0.34334,1.0933 0.81898,0.68102 1.5,0.75 z m 0,2 c -0.81714,-0.04042 -1.9132,-0.20804 -1.4599,0.93952 0.83513,-0.0061 1.7361,0.56676 1.4599,-0.93952 z m -2,-27.0000002 c -0.6810203,0.068981 -1.8433003,-0.34334 -1.5000003,0.75 -0.34334,1.0932999 0.81898,0.6810199 1.5000003,0.7499999 z m 0,1.9999999 c -0.6810203,0.068981 -1.8433003,-0.34334 -1.5000003,0.75 -0.34334,1.0933 0.81898,0.68102 1.5000003,0.75 z m 0,2 c -0.6810203,0.068981 -1.8433003,-0.34334 -1.5000003,0.75 -0.34334,1.0933 0.81898,0.68102 1.5000003,0.75 z m 0,2 c -0.6810203,0.068981 -1.8433003,-0.34334 -1.5000003,0.75 -0.34334,1.0933 0.81898,0.68102 1.5000003,0.75 z m 0,2 c -0.6810203,0.06898 -1.8433003,-0.34334 -1.5000003,0.7500003 -0.34334,1.0933 0.81898,0.68102 1.5000003,0.75 z m 0,2.0000003 c -0.6810203,0.06898 -1.8433003,-0.34334 -1.5000003,0.75 -0.34334,1.0933 0.81898,0.68102 1.5000003,0.75 z m 0,2 c -0.6810203,0.06898 -1.8433003,-0.34334 -1.5000003,0.75 -0.34334,1.0933 0.81898,0.68102 1.5000003,0.75 z m 0,2 c -0.6810203,0.06898 -1.8433003,-0.34334 -1.5000003,0.75 -0.34334,1.0933 0.81898,0.68102 1.5000003,0.75 z m 0,2 c -0.8171403,-0.04042 -1.9132003,-0.20804 -1.4599003,0.93952 0.83513,-0.0061 1.7361003,0.56676 1.4599003,-0.93952 z m 0,2 c -0.7808103,-0.20383 -1.2276003,0.16444 -1.0000003,0.98236 -0.29745,0.91547 1.5348003,0.65557 1.0000003,-0.29216 v -0.69019 z m 0,2 c -0.7808103,-0.20383 -1.2276003,0.16444 -1.0000003,0.98236 -0.29745,0.91547 1.5348003,0.65557 1.0000003,-0.29216 v -0.69019 z m 0,3 c -0.6810203,0.06898 -1.8433003,-0.34334 -1.5000003,0.75 -0.34334,1.0933 0.81898,0.68102 1.5000003,0.75 z m 0,2 c -0.6810203,0.06898 -1.8433003,-0.34334 -1.5000003,0.75 -0.34334,1.0933 0.81898,0.68102 1.5000003,0.75 z m 0,2 c -0.8171403,-0.04042 -1.9132003,-0.20804 -1.4599003,0.93952 0.83513,-0.0061 1.7361003,0.56676 1.4599003,-0.93952 z M 8.0844407,1.7376448 c -0.68102,0.068981 -1.8433,-0.34334 -1.5,0.75 -0.34334,1.0932999 0.81898,0.6810199 1.5,0.7499999 z m 0,1.9999999 c -0.68102,0.068981 -1.8433,-0.34334 -1.5,0.75 -0.34334,1.0933 0.81898,0.68102 1.5,0.75 z m 0,2 c -0.68102,0.068981 -1.8433,-0.34334 -1.5,0.75 -0.34334,1.0933 0.81898,0.68102 1.5,0.75 z m 0,2 c -0.68102,0.068981 -1.8433,-0.34334 -1.5,0.75 -0.34334,1.0933 0.81898,0.68102 1.5,0.75 z m 0,2 c -0.68102,0.06898 -1.8433,-0.34334 -1.5,0.7500003 -0.34334,1.0933 0.81898,0.68102 1.5,0.75 z m 0,2.0000003 c -0.68102,0.06898 -1.8433,-0.34334 -1.5,0.75 -0.34334,1.0933 0.81898,0.68102 1.5,0.75 z m 0,2 c -0.68102,0.06898 -1.8433,-0.34334 -1.5,0.75 -0.34334,1.0933 0.81898,0.68102 1.5,0.75 z m 0,2 c -0.68102,0.06898 -1.8433,-0.34334 -1.5,0.75 -0.34334,1.0933 0.81898,0.68102 1.5,0.75 z m 0,2 c -0.81714,-0.04042 -1.9132,-0.20804 -1.4599,0.93952 0.83513,-0.0061 1.7361,0.56676 1.4599,-0.93952 z m 0,3 c -0.68102,0.06898 -1.8433,-0.34334 -1.5,0.75 -0.34334,1.0933 0.81898,0.68102 1.5,0.75 z m 0,4 c -0.68102,0.06898 -1.8433,-0.34334 -1.5,0.75 -0.34334,1.0933 0.81898,0.68102 1.5,0.75 z m 0,2 c -0.68102,0.06898 -1.8433,-0.34334 -1.5,0.75 -0.34334,1.0933 0.81898,0.68102 1.5,0.75 z m 0,2 c -1.1137,0.08433 -2.6065,-0.16804 -3.4851,0.12508 -0.3999,1.5562 1.7797,0.62694 2.64,0.87492 1.0757,0.15894 0.83028,-0.14486 0.8451,-1 z m -2,-27.0000002 c -0.68102,0.068981 -1.8433,-0.34334 -1.5,0.75 -0.34334,1.0932999 0.81898,0.6810199 1.5,0.7499999 z m 0,1.9999999 c -0.68102,0.068981 -1.8433,-0.34334 -1.5,0.75 -0.34334,1.0933 0.81898,0.68102 1.5,0.75 z m 0,2 c -0.64028,0.094094 -1.8398,-0.37104 -1.5,0.70312 v 6.7969003 c 0.64028,-0.09409 1.8398,0.37104 1.5,-0.70312 z m 0,8.0000003 c -0.68102,0.06898 -1.8433,-0.34334 -1.5,0.75 -0.34334,1.0933 0.81898,0.68102 1.5,0.75 z m 0,2 c -0.68102,0.06898 -1.8433,-0.34334 -1.5,0.75 -0.34334,1.0933 0.81898,0.68102 1.5,0.75 z m 0,2 c -0.81714,-0.04042 -1.9132,-0.20804 -1.4599,0.93952 0.83513,-0.0061 1.7361,0.56676 1.4599,-0.93952 z m 0,2 c -0.68102,0.06898 -1.8433,-0.34334 -1.5,0.75 -0.34334,1.0933 0.81898,0.68102 1.5,0.75 z m 0,2 c -0.68102,0.06898 -1.8433,-0.34334 -1.5,0.75 -0.34334,1.0933 0.81898,0.68102 1.5,0.75 z m 0,3 c -0.76943,0.02223 -1.8748,-0.29145 -1.5,0.875 0.12284,0.81466 -0.24714,2.1221 0.1875,2.625 0.75967,0.03051 1.6476,0.18922 1.3125,-0.875 z"
       style="opacity:0.25;fill:#ffffff" />
  </g>
  <g
     id="g107505"
     transform="matrix(0.87315041,0,0,1.1078344,-22.456584,2.6634239)">
    <rect
       transform="scale(-1,1)"
       style="color:#000000;font-variation-settings:normal;display:block;overflow:visible;visibility:visible;opacity:0.1;fill:url(#linearGradient3941-43);fill-opacity:1;stroke:none;stroke-width:1;stroke-linecap:butt;stroke-linejoin:miter;stroke-miterlimit:4;stroke-dasharray:none;stroke-dashoffset:0;stroke-opacity:1;marker:none;enable-background:accumulate;stop-color:#000000"
       id="rect3268-4-24"
       y="0.03840578"
       x="-61.867905"
       ry="1"
       rx="9"
       height="26"
       width="15" />
    <rect
       style="color:#000000;font-variation-settings:normal;display:inline;overflow:visible;visibility:visible;fill:url(#linearGradient901-85);fill-opacity:1;fill-rule:nonzero;stroke:none;stroke-width:1;stroke-linecap:butt;stroke-linejoin:miter;stroke-miterlimit:4;stroke-dasharray:none;stroke-dashoffset:0;stroke-opacity:1;marker:none;enable-background:accumulate;stop-color:#000000"
       id="rect3268-0-1-7-00"
       y="18.038406"
       x="46.867905"
       ry="1.5000004"
       rx="13.5"
       height="8"
       width="15" />
    <path
       style="color:#000000;display:inline;overflow:visible;visibility:visible;opacity:0.5;fill:none;stroke:#ad5f00;stroke-width:1;stroke-linecap:butt;stroke-linejoin:round;stroke-miterlimit:4;stroke-dasharray:none;stroke-dashoffset:0;stroke-opacity:1;marker:none;enable-background:accumulate"
       id="rect3268-0-8-1"
       d="m 61.86793,19.03842 c 0,-0.554 -3.345,-1 -7.5,-1 -4.155,0 -7.5,0.446 -7.5,1" />
    <path
       style="color:#000000;display:block;overflow:visible;visibility:visible;opacity:0.5;fill:none;stroke:url(#linearGradient4760-7-0);stroke-width:1;stroke-linecap:butt;stroke-linejoin:miter;stroke-miterlimit:7;stroke-dasharray:none;stroke-dashoffset:0;stroke-opacity:1;marker:none;enable-background:accumulate"
       id="path4230-5"
       d="m 54.36793,19.03842 c -1.93864,0 -3.68527,0.0868 -4.92799,0.21875 -0.62136,0.066 -1.12707,0.14229 -1.43071,0.21875 -0.0803,0.0202 -0.0929,0.0299 -0.1413,0.0469 v 5.03125 c 0.0484,0.017 0.061,0.0267 0.1413,0.0469 0.30364,0.0765 0.80935,0.15279 1.43071,0.21875 1.24272,0.13191 2.98935,0.21874 4.92799,0.21874 1.93865,0 3.68527,-0.0868 4.92799,-0.21875 0.62136,-0.066 1.12707,-0.14229 1.43071,-0.21875 0.0803,-0.0202 0.0929,-0.0299 0.1413,-0.0469 v -5.03124 c -0.0484,-0.017 -0.061,-0.0267 -0.1413,-0.0469 -0.30364,-0.0765 -0.80935,-0.15279 -1.43071,-0.21875 -1.24272,-0.13191 -2.98934,-0.21874 -4.92799,-0.21874 z" />
    <path
       style="color:#000000;display:block;overflow:visible;visibility:visible;opacity:0.4;fill:none;stroke:#ffffff;stroke-width:1;stroke-linecap:butt;stroke-linejoin:miter;stroke-miterlimit:7;stroke-dasharray:none;stroke-dashoffset:0;stroke-opacity:1;marker:none;enable-background:accumulate"
       id="rect3268-0-7-1-8"
       d="m 61.54331,20.32879 c -0.92885,0.41152 -3.78441,0.70963 -7.1814,0.70963 -3.3856,0 -6.23341,-0.29612 -7.172,-0.7055" />
    <path
       style="color:#000000;display:inline;overflow:visible;visibility:visible;opacity:0.15;fill:none;stroke:#ad5f00;stroke-width:1;stroke-linecap:butt;stroke-linejoin:round;stroke-miterlimit:4;stroke-dasharray:none;stroke-dashoffset:0;stroke-opacity:1;marker:none;enable-background:accumulate"
       id="rect3268-0-3-0"
       d="m 61.86793,19.03842 c 0,0.554 -3.345,1 -7.5,1 -4.155,0 -7.5,-0.446 -7.5,-1" />
    <path
       style="color:#000000;display:block;overflow:visible;visibility:visible;opacity:0.2;fill:none;stroke:#ffffff;stroke-width:1;stroke-linecap:butt;stroke-linejoin:miter;stroke-miterlimit:7;stroke-dasharray:none;stroke-dashoffset:0;stroke-opacity:1;marker:none;enable-background:accumulate"
       id="rect3268-0-7-8-0"
       d="m 61.54331,18.99546 c -0.92885,0.41152 -3.78441,0.70963 -7.1814,0.70963 -3.3856,0 -6.23341,-0.29612 -7.172,-0.7055" />
    <path
       style="color:#000000;display:inline;overflow:visible;visibility:visible;fill:url(#linearGradient5066-8-50);fill-opacity:1;fill-rule:nonzero;stroke:none;stroke-width:1;marker:none;enable-background:accumulate"
       id="rect3268-6-4-04"
       d="m 54.36793,0.03842 c -4.155,0 -7.5,0.57343 -7.5,1.28571 v 1.71429 c 0,-0.71229 3.345,-1.28571 7.5,-1.28571 4.155,0 7.5,0.57342 7.5,1.28571 V 1.32413 c 0,-0.71228 -3.345,-1.28571 -7.5,-1.28571 z" />
    <path
       style="color:#000000;display:block;overflow:visible;visibility:visible;opacity:0.3;fill:none;stroke:#000000;stroke-width:1;stroke-linecap:butt;stroke-linejoin:miter;stroke-miterlimit:7;stroke-dasharray:none;stroke-dashoffset:0;stroke-opacity:1;marker:none;enable-background:accumulate"
       id="rect3268-6-75"
       d="m 47.30911,2.56444 c 0,-0.56499 3.14823,-1.01983 7.05882,-1.01983 3.91059,0 7.05882,0.45484 7.05882,1.01983" />
    <path
       style="color:#000000;display:inline;overflow:visible;visibility:visible;fill:url(#linearGradient3457-7-6-28);fill-opacity:1;fill-rule:nonzero;stroke:none;stroke-width:1;marker:none;enable-background:accumulate"
       id="rect3268-3-9-3"
       d="M 56.86793,0.03842 V -1.1434 c 0,-0.45464 -1.115,-0.81818 -2.5,-0.81818 -1.385,0 -2.5,0.36354 -2.5,0.81818 v 1.18182" />
    <path
       style="color:#000000;display:block;overflow:visible;visibility:visible;opacity:0.3;fill:none;stroke:#000000;stroke-width:1;stroke-linecap:butt;stroke-linejoin:miter;stroke-miterlimit:7;stroke-dasharray:none;stroke-dashoffset:0;stroke-opacity:1;marker:none;enable-background:accumulate"
       id="rect3268-3-14"
       d="m 56.86793,-0.46158 v -0.88636 c 0,-0.34098 -1.115,-0.61364 -2.5,-0.61364 -1.385,0 -2.5,0.27266 -2.5,0.61364 v 0.88636" />
    <path
       style="color:#000000;display:block;overflow:visible;visibility:visible;opacity:0.8;fill:none;stroke:url(#linearGradient4760-79);stroke-width:1;stroke-linecap:butt;stroke-linejoin:miter;stroke-miterlimit:7;stroke-dasharray:none;stroke-dashoffset:0;stroke-opacity:1;marker:none;enable-background:accumulate"
       id="path4752-20"
       d="m 54.36793,1.03842 c -1.92914,0 -3.66741,0.11191 -4.9075,0.28378 -0.62004,0.086 -1.12069,0.18209 -1.43,0.28379 -0.0851,0.028 -0.11086,0.0369 -0.1625,0.0608 v 22.74324 c 0.0516,0.0239 0.0774,0.0328 0.1625,0.0608 0.30931,0.1017 0.80996,0.19785 1.43,0.28379 1.24009,0.17187 2.97836,0.28378 4.9075,0.28378 1.92914,0 3.66741,-0.11191 4.9075,-0.28378 0.62004,-0.0859 1.12069,-0.18209 1.43,-0.28379 0.0851,-0.028 0.11085,-0.0369 0.1625,-0.0608 V 1.66679 c -0.0516,-0.0239 -0.0774,-0.0329 -0.1625,-0.0608 -0.30931,-0.1017 -0.80996,-0.19785 -1.43,-0.28379 -1.24009,-0.17187 -2.97836,-0.28378 -4.9075,-0.28378 z" />
    <path
       id="rect3268-13"
       style="color:#000000;display:block;overflow:visible;visibility:visible;opacity:0.3;fill:none;stroke:#000000;stroke-width:1;stroke-linecap:butt;stroke-linejoin:miter;stroke-miterlimit:7;stroke-dasharray:none;stroke-dashoffset:0;stroke-opacity:1;marker:none;enable-background:accumulate"
       d="m 61.86793,2.53842 v -1.5 c 0,-0.554 -3.345,-1 -7.5,-1 -4.155,0 -7.5,0.446 -7.5,1 v 1.5" />
    <path
       style="display:inline;overflow:visible;visibility:visible;opacity:0.3;fill:url(#linearGradient5508-98);fill-opacity:1;fill-rule:nonzero;stroke:none;stroke-width:1;marker:none;enable-background:new"
       id="path5194-00"
       d="m 53.36793,0.03842 c -2.14179,0.0812 -3.00484,0.24143 -4,0.48148 v 25.03704 c 0.99516,0.24004 1.85821,0.40032 4,0.48148 z" />
    <path
       style="display:inline;overflow:visible;visibility:visible;opacity:0.1;fill:url(#linearGradient5510-05);fill-opacity:1;fill-rule:nonzero;stroke:none;stroke-width:1;marker:none;enable-background:new"
       id="rect3244-48"
       d="m 57.36793,0.03842 v 26 c 0.75778,-0.0841 1.53619,-0.18386 2,-0.29739 V 0.3358 c -0.46381,-0.11352 -1.24222,-0.21333 -2,-0.29738 z" />
    <path
       style="color:#000000;display:inline;overflow:visible;visibility:visible;opacity:0.2;fill:url(#radialGradient5132-20);fill-opacity:1;fill-rule:nonzero;stroke:none;stroke-width:1.37003;marker:none;enable-background:accumulate"
       id="path5124-22"
       d="m 51.82693,1.04112 a 1.8707668,2.0656562 0 1 1 -3.74153,0 1.8707669,2.0656556 0 1 1 3.74153,0 z" />
    <path
       id="rect891"
       style="color:#000000;display:block;overflow:visible;visibility:visible;opacity:0.3;fill:none;stroke:#ad5f00;stroke-width:1;stroke-linecap:butt;stroke-linejoin:miter;stroke-miterlimit:7;stroke-dasharray:none;stroke-dashoffset:0;stroke-opacity:1;marker:none;enable-background:accumulate"
       d="m 46.86793,2.53842 v 22.5 c 0,0.554 3.345,1 7.5,1 4.155,0 7.5,-0.446 7.5,-1 v -22.5" />
  </g>
</svg>
