<?xml version="1.0" encoding="UTF-8" standalone="no"?>
<!-- Created with Inkscape (http://www.inkscape.org/) -->

<svg
   id="svg2"
   width="24"
   height="24"
   version="1.0"
   xmlns="http://www.w3.org/2000/svg"
   xmlns:svg="http://www.w3.org/2000/svg">
  <defs
     id="defs4">
    <radialGradient
       id="radialGradient2541"
       cx="38"
       cy="69"
       r="20"
       fx="28.603"
       gradientTransform="matrix(1,0,0,0.45,0,37.95)"
       gradientUnits="userSpaceOnUse">
      <stop
         id="stop6021"
         offset="0" />
      <stop
         id="stop6023"
         style="stop-opacity:0"
         offset="1" />
    </radialGradient>
    <linearGradient
       id="linearGradient2543"
       x1="28"
       x2="26"
       y1="16"
       y2="8"
       gradientTransform="matrix(0.52499,0,0,0.5277,-1.1749,-0.77947)"
       gradientUnits="userSpaceOnUse">
      <stop
         id="stop5960"
         style="stop-color:#c17d11"
         offset="0" />
      <stop
         id="stop5962"
         style="stop-color:#e9b96e"
         offset="1" />
    </linearGradient>
    <linearGradient
       id="linearGradient2545"
       x1="30.325"
       x2="34"
       y1="9.2408"
       y2="18"
       gradientTransform="matrix(0.52499,0,0,0.5277,-1.1749,-0.77947)"
       gradientUnits="userSpaceOnUse">
      <stop
         id="stop5998"
         style="stop-color:#8f5902"
         offset="0" />
      <stop
         id="stop6000"
         style="stop-color:#73521e"
         offset="1" />
    </linearGradient>
    <linearGradient
       id="linearGradient2547"
       x1="28"
       x2="33.447"
       y1="8"
       y2="16.686"
       gradientUnits="userSpaceOnUse">
      <stop
         id="stop5986"
         style="stop-color:#fff"
         offset="0" />
      <stop
         id="stop5988"
         style="stop-color:#fff;stop-opacity:.13439"
         offset="1" />
    </linearGradient>
    <linearGradient
       id="linearGradient2549"
       x1="20.934"
       x2="30.208"
       y1="25.061"
       y2="30.743"
       gradientTransform="matrix(0.52499,0,0,0.5277,-1.1749,-0.77947)"
       gradientUnits="userSpaceOnUse">
      <stop
         id="stop5968"
         style="stop-color:#fdef72"
         offset="0" />
      <stop
         id="stop5970"
         style="stop-color:#e2cb0b"
         offset="1" />
    </linearGradient>
    <linearGradient
       id="linearGradient2551"
       x1="17.032"
       x2="29.494"
       y1="27.447"
       y2="37.846"
       gradientTransform="matrix(0.52499,0,0,0.5277,-1.1749,-0.77947)"
       gradientUnits="userSpaceOnUse">
      <stop
         id="stop5989"
         style="stop-color:#b3a10b"
         offset="0" />
      <stop
         id="stop5991"
         style="stop-color:#91780a"
         offset="1" />
    </linearGradient>
    <linearGradient
       id="linearGradient2553"
       x1="22.32"
       x2="18.986"
       y1="41.956"
       y2="37.029"
       gradientTransform="matrix(0.52499,0,0,0.5277,-1.1749,-0.77947)"
       gradientUnits="userSpaceOnUse">
      <stop
         id="stop5983"
         style="stop-color:#fff"
         offset="0" />
      <stop
         id="stop5985"
         style="stop-color:#fff;stop-opacity:.69412"
         offset="1" />
    </linearGradient>
    <linearGradient
       id="linearGradient2555"
       x1="27.355"
       x2="23.489"
       y1="36.218"
       y2="34.728"
       gradientTransform="matrix(0.52499,0,0,0.5277,-1.1749,-0.77947)"
       gradientUnits="userSpaceOnUse">
      <stop
         id="stop6001"
         style="stop-color:#c4a000"
         offset="0" />
      <stop
         id="stop6003"
         style="stop-color:#c4a000;stop-opacity:0"
         offset="1" />
    </linearGradient>
    <linearGradient
       id="linearGradient2557"
       x1="27.652"
       x2="21.591"
       y1="23.146"
       y2="20.619"
       gradientTransform="matrix(0.51282,0,0,0.5277,-0.84657,-0.77947)"
       gradientUnits="userSpaceOnUse">
      <stop
         id="stop2473"
         style="stop-color:#919191"
         offset="0" />
      <stop
         id="stop2475"
         style="stop-color:#cecece"
         offset="1" />
    </linearGradient>
  </defs>
  <g
     id="g2524"
     transform="matrix(1.0355793,0,0,1.0355793,0.59003115,-0.02020402)">
    <path
       id="path5371"
       d="m 18.037,0.52328 c -4.3066,0.055751 -4.9333,8.5738 -6.1687,10.109 l 2.1,0.75856 C 15.35,9.08344 22.2401,1.41314 18.4636,0.53984 18.31687,0.523498 18.17597,0.521551 18.03704,0.52335 Z m -0.5414,1.0884 c 0.10162,-0.00989 0.19319,0.00302 0.2789,0.049472 0.34285,0.18581 0.37991,0.78884 0.08203,1.3357 -0.29788,0.54689 -0.82198,0.84543 -1.1648,0.65962 -0.34285,-0.18581 -0.37991,-0.78884 -0.08203,-1.3357 0.22341,-0.41017 0.58107,-0.67943 0.88593,-0.70909 z"
       style="display:inline;fill:url(#linearGradient2543);fill-rule:evenodd;stroke:url(#linearGradient2545);stroke-width:1px" />
    <path
       id="path5367"
       d="m 10.637,7.9275 c 0.37249,1.057 -0.28422,1.9724 -0.52499,2.6385 -2.7255,0.81565 -4.613,5.1206 -7.4195,7.3632 0.35058,0.36801 0.76241,0.76209 1.1196,1.0799 l 2.1328,-1.8634 -1.6104,2.3876 c 1.1598,0.9451 2.3651,1.5866 3.1526,1.8504 l 1.4437,-1.9294 -0.91874,2.1932 c 0.76229,0.31075 2.6172,0.78206 3.675,0.79154 l 1.052,-1.7955 -0.26941,1.8285 c 0.43551,0.08357 1.28,0.19747 1.8423,0.21438 1.7651,-2.9023 2.1,-7.6351 1.05,-9.7459 -0.2625,-1.0554 0.78749,-2.3746 1.575,-2.9023 -1.3125,-1.0554 -4.3079,-2.2711 -6.2999,-2.1108 z"
       style="display:inline;fill:url(#linearGradient2549);fill-rule:evenodd;stroke:url(#linearGradient2551);stroke-miterlimit:20" />
    <path
       id="path5373"
       d="m 9.6663,10.566 c -0.25641,-0.5277 0,-1.0554 0.51282,-1.0554 2.0955,0.51472 3.8455,1.1642 5.6411,2.1108 0.25641,0.5277 0,1.0554 -0.51282,1.0554 -1.8553,-0.98385 -3.605,-1.6226 -5.6411,-2.1108 z"
       style="fill:url(#linearGradient2557);fill-rule:evenodd;stroke:#464646;stroke-width:1px;stroke-linejoin:round" />
  </g>
</svg>
