<?xml version="1.0" encoding="UTF-8" standalone="no"?>
<!-- Created with Inkscape (http://www.inkscape.org/) -->

<svg
   width="16"
   height="16"
   viewBox="0 0 4.2333333 4.2333333"
   version="1.1"
   id="svg715"
   xmlns:xlink="http://www.w3.org/1999/xlink"
   xmlns="http://www.w3.org/2000/svg"
   xmlns:svg="http://www.w3.org/2000/svg">
  <defs
     id="defs712">
    <linearGradient
       gradientTransform="matrix(0.511315,0,0,0.465325,17.15383,-3.453673)"
       gradientUnits="userSpaceOnUse"
       id="linearGradient4023"
       x1="-11.986486"
       x2="-11.986486"
       xlink:href="#linearGradient2065"
       y1="13.122552"
       y2="29.726542" />
    <linearGradient
       id="linearGradient2065">
      <stop
         id="stop2067"
         offset="0"
         style="stop-color:#555753" />
      <stop
         id="stop2069"
         offset="1"
         style="stop-color:#fcaf3e" />
    </linearGradient>
    <radialGradient
       cx="-6.0070167"
       cy="32.837029"
       fx="-6.0070167"
       fy="32.837029"
       gradientTransform="matrix(0.511315,0,0,0.446035,10.36142,-2.720333)"
       gradientUnits="userSpaceOnUse"
       id="radialGradient4025"
       r="9.90625"
       xlink:href="#linearGradient4928" />
    <linearGradient
       id="linearGradient4928">
      <stop
         id="stop4930"
         offset="0"
         style="stop-color:#fce94f;stop-opacity:1;" />
      <stop
         id="stop4932"
         offset="1"
         style="stop-color:#fce94f;stop-opacity:0;" />
    </linearGradient>
    <linearGradient
       gradientTransform="matrix(0.516229,0,0,0.581583,-1.294388,-7.439566)"
       gradientUnits="userSpaceOnUse"
       id="linearGradient4027"
       x1="25.355263"
       x2="25.355263"
       xlink:href="#linearGradient4616"
       y1="34.006802"
       y2="32.409008" />
    <linearGradient
       id="linearGradient4616">
      <stop
         id="stop4618"
         offset="0"
         style="stop-color:#2e3436;stop-opacity:1;" />
      <stop
         id="stop4620"
         offset="1"
         style="stop-color:#2e3436;stop-opacity:0;" />
    </linearGradient>
    <linearGradient
       gradientUnits="userSpaceOnUse"
       id="linearGradient3845"
       x1="22.750002"
       x2="23.062502"
       xlink:href="#linearGradient3269"
       y1="40.000755"
       y2="36.472179" />
    <linearGradient
       id="linearGradient3269">
      <stop
         id="stop3271"
         offset="0"
         style="stop-color:#fecb81;stop-opacity:1" />
      <stop
         id="stop3273"
         offset="1"
         style="stop-color:#fcaf3e;stop-opacity:1" />
    </linearGradient>
    <linearGradient
       gradientUnits="userSpaceOnUse"
       id="linearGradient3847"
       x1="17.25"
       x2="17.25"
       xlink:href="#linearGradient3284"
       y1="41.147343"
       y2="36.103439" />
    <linearGradient
       id="linearGradient3284">
      <stop
         id="stop3286"
         offset="0"
         style="stop-color:#ce5c00;stop-opacity:1;" />
      <stop
         id="stop3288"
         offset="1"
         style="stop-color:#f57900;stop-opacity:1" />
    </linearGradient>
    <linearGradient
       gradientUnits="userSpaceOnUse"
       id="linearGradient3849"
       x1="18.875"
       x2="18.875"
       xlink:href="#linearGradient3276"
       y1="36.159504"
       y2="37.916344" />
    <linearGradient
       id="linearGradient3276">
      <stop
         id="stop3278"
         offset="0"
         style="stop-color:white;stop-opacity:1;" />
      <stop
         id="stop3280"
         offset="1"
         style="stop-color:white;stop-opacity:0;" />
    </linearGradient>
  </defs>
  <g
     id="layer1" />
  <g
     id="g16"
     style="display:inline;enable-background:new"
     transform="matrix(0.26458333,0,0,0.26458333,1.5165812e-4,-0.01071363)">
    <rect
       height="12.954474"
       id="rect3981"
       rx="1.0975721"
       ry="1.4216787"
       style="fill:#ffffff;fill-opacity:1;stroke:#888a85;stroke-width:0.999999;stroke-linecap:round;stroke-linejoin:round;stroke-miterlimit:4;stroke-dasharray:none;stroke-dashoffset:0;stroke-opacity:1"
       width="15.001173"
       x="0.49884033"
       y="0.54552686" />
    <g
       id="g3983"
       transform="matrix(0.615096,0,0,0.800698,1.21859,1.038591)">
      <rect
         height="11.1678"
         id="rect3985"
         rx="0.22370043"
         ry="0.20357969"
         style="fill:url(#linearGradient4023);fill-opacity:1;stroke:#888a85;stroke-width:1.42493;stroke-linecap:round;stroke-linejoin:round;stroke-miterlimit:4;stroke-dasharray:none;stroke-dashoffset:0;stroke-opacity:1"
         width="17.909843"
         x="2.0700376"
         y="1.8975649" />
      <path
         d="m 6.9703726,7.040233 c -2.6428743,0.152605 -4.7456429,2.166175 -4.7456429,4.609625 0,0.09436 0.00982,0.183327 0.015979,0.276287 H 12.33918 c 0.0062,-0.09296 0.01598,-0.181926 0.01598,-0.276287 0,-2.542778 -2.271123,-4.609625 -5.0652146,-4.609625 -0.1091442,0 -0.2121379,-0.0062 -0.3195718,0 z"
         id="path3987"
         style="color:#000000;display:inline;overflow:visible;visibility:visible;fill:url(#radialGradient4025);fill-opacity:1;fill-rule:evenodd;stroke:none;stroke-width:1;stroke-linecap:round;stroke-linejoin:round;stroke-miterlimit:4;stroke-dasharray:none;stroke-dashoffset:0;stroke-opacity:1;marker:none;marker-start:none;marker-mid:none;marker-end:none" />
      <rect
         height="1.2498417"
         id="rect3989"
         rx="0"
         ry="0"
         style="fill:url(#linearGradient4027);fill-opacity:1;stroke:none;stroke-width:1;stroke-linecap:round;stroke-linejoin:round;stroke-miterlimit:4;stroke-dasharray:none;stroke-dashoffset:0;stroke-opacity:1"
         width="16.153767"
         x="3"
         y="11.250158" />
      <path
         d="m 13.858703,12.354474 c 0,0 -0.284078,-1.434762 -0.284078,-2.313722 0.0079,-0.40097 3.98146,-3.524655 3.991712,-3.98994 L 16.642515,6.783477 15.995617,5.181855 18.17646,5.387502 19.19909,4.456852 18.040877,5.230647 17.642548,5.148388 17.15383,3.526202 17.402399,5.107259 15.597288,5.025 16.162216,6.333476 14.597255,4.922177 16.252605,6.88653 c 4.4e-5,0.438116 -3.262636,3.112653 -3.257087,2.651483 L 11.642351,7.886306 11.529365,5.653402 12.551995,5.387502 13.447898,3.377009 12.266904,5.235198 11.344917,5.197179 9.2810511,3.610882 6.4472314,2.623779 8.8682235,3.834672 6.92753,3.991527 h 2.556575 l 1.533945,1.395975 0.180777,2.411305 -2.737352,-2.411305 1.151124,1.259685 -1.662439,1.06694 1.8261252,-0.93065 2.8886958,3.311307 -0.112986,2.25969 z"
         id="path3991"
         style="fill:#000000;fill-opacity:1;fill-rule:evenodd;stroke:none;stroke-width:1px;stroke-linecap:butt;stroke-linejoin:miter;stroke-opacity:1" />
      <path
         d="M 7.1115426,8.7376098 C 5.6693587,8.8160862 4.5219039,9.8515514 4.5219039,11.10808 c 0,0.04852 0.00536,0.09427 0.00872,0.142078 h 5.5106121 c 0.0034,-0.0478 0.0087,-0.09355 0.0087,-0.142078 0,-1.3076073 -1.2393244,-2.3704702 -2.7640259,-2.3704702 -0.059559,0 -0.1157612,-0.00319 -0.1743865,0 z"
         id="path3993"
         style="color:#000000;display:inline;overflow:visible;visibility:visible;fill:#fef39e;fill-opacity:1;fill-rule:evenodd;stroke:none;stroke-width:1;stroke-linecap:round;stroke-linejoin:round;stroke-miterlimit:4;stroke-dasharray:none;stroke-dashoffset:0;stroke-opacity:1;marker:none;marker-start:none;marker-mid:none;marker-end:none" />
      <path
         d="M 7.1529325,9.3069309 C 6.053049,9.3667822 5.177941,10.156481 5.177941,11.114775 c 0,0.03701 0.00409,0.0719 0.00665,0.108356 h 4.2026764 c 0.00256,-0.03646 0.00665,-0.07135 0.00665,-0.108356 0,-0.997249 -0.9451719,-1.8078441 -2.1079882,-1.8078441 -0.045423,0 -0.088285,-0.00243 -0.1329967,0 z"
         id="path3995"
         style="color:#000000;display:inline;overflow:visible;visibility:visible;fill:#fffbd7;fill-opacity:0.556818;fill-rule:evenodd;stroke:none;stroke-width:1;stroke-linecap:round;stroke-linejoin:round;stroke-miterlimit:4;stroke-dasharray:none;stroke-dashoffset:0;stroke-opacity:1;marker:none;marker-start:none;marker-mid:none;marker-end:none" />
    </g>
    <rect
       height="2"
       id="rect2061"
       rx="1.0975721"
       ry="1.4216787"
       style="opacity:0.8;fill:none;fill-opacity:1;stroke:#ffffff;stroke-width:1;stroke-linecap:round;stroke-linejoin:miter;stroke-miterlimit:4;stroke-dasharray:none;stroke-dashoffset:0;stroke-opacity:1"
       width="10"
       x="4.5"
       y="10.5" />
    <g
       id="g3813"
       transform="matrix(0.47066,0,0,0.449643,-1.79647,-4.462342)">
      <path
         d="m 15.500002,35.500004 h 17.00001 l -8.500005,8.999992 z"
         id="path3815"
         style="color:#000000;display:inline;overflow:visible;visibility:visible;fill:url(#linearGradient3845);fill-opacity:1;fill-rule:nonzero;stroke:url(#linearGradient3847);stroke-width:2.17377;stroke-linecap:round;stroke-linejoin:round;stroke-miterlimit:4;stroke-dashoffset:1.4;stroke-opacity:1;marker:none;marker-start:none;marker-mid:none;marker-end:none" />
      <path
         d="M 20.304687,35.570312 24,39.484375 27.695312,35.570312 Z"
         id="path3817"
         style="color:#000000;display:inline;overflow:visible;visibility:visible;opacity:0.7;fill:none;fill-opacity:1;fill-rule:nonzero;stroke:url(#linearGradient3849);stroke-width:2.17376;stroke-linecap:round;stroke-linejoin:miter;stroke-miterlimit:4;stroke-dasharray:none;stroke-dashoffset:1.4;stroke-opacity:1;marker:none;marker-start:none;marker-mid:none;marker-end:none"
         transform="translate(0,2)" />
    </g>
  </g>
</svg>
