<?xml version="1.0" encoding="UTF-8" standalone="no"?>
<!-- Created with Inkscape (http://www.inkscape.org/) -->
<svg version="1.1" width="24" height="24" id="svg3814" xmlns="http://www.w3.org/2000/svg" xmlns:svg="http://www.w3.org/2000/svg" xmlns:rdf="http://www.w3.org/1999/02/22-rdf-syntax-ns#" xmlns:cc="http://creativecommons.org/ns#" xmlns:dc="http://purl.org/dc/elements/1.1/">
  <defs id="defs3816"/>
  <metadata id="metadata3819">
    <rdf:RDF>
      <cc:Work rdf:about="">
        <dc:format>image/svg+xml</dc:format>
        <dc:type rdf:resource="http://purl.org/dc/dcmitype/StillImage"/>
      </cc:Work>
    </rdf:RDF>
  </metadata>
  <g id="g18459">
    <path d="m 19.697542,2.4970552 c 0,0 3.246575,3.0095292 3.246575,9.4842058 0,6.442848 -3.252084,9.521684 -3.252084,9.521684" id="path2990" style="display:inline;overflow:visible;visibility:visible;opacity:0.4;fill:none;stroke:#dfdbd2;stroke-width:2.11177;stroke-linecap:round;stroke-linejoin:miter;stroke-miterlimit:4;stroke-dasharray:none;stroke-dashoffset:0;stroke-opacity:1;marker:none;enable-background:accumulate"/>
    <path d="m 16.002206,5.2864192 c 0,0 2.292323,2.167418 2.210765,6.7135808 -0.08223,4.583871 -2.247583,6.713581 -2.247583,6.713581" id="path2988" style="display:inline;overflow:visible;visibility:visible;fill:none;stroke:#dfdbd2;stroke-width:2.11177;stroke-linecap:round;stroke-linejoin:miter;stroke-miterlimit:4;stroke-dasharray:none;stroke-dashoffset:0;stroke-opacity:1;marker:none;enable-background:accumulate"/>
    <path d="m 12.238743,7.9278441 c 0,0 1.221686,0.9875423 1.252825,4.0131579 0.03076,2.987896 -1.252825,4.131154 -1.252825,4.131154" id="path3209" style="display:inline;overflow:visible;visibility:visible;fill:none;stroke:#dfdbd2;stroke-width:2.11177;stroke-linecap:round;stroke-linejoin:miter;stroke-miterlimit:4;stroke-dasharray:none;stroke-dashoffset:0;stroke-opacity:1;marker:none;enable-background:accumulate"/>
    <path d="m 7.4562146,5.1678175 c -0.3791532,0 -0.7037487,0.1589532 -0.9316612,0.4270114 L 3.7295696,8.8944625 c 0,0 -2.48443,0 -2.48443,0 -0.68570264,0 -1.24221496,0.5565123 -1.24221496,1.2422155 -0.00778869,1.237334 0.00275771,2.502502 0,3.726645 0,0.685702 0.55651244,1.242215 1.24221496,1.242215 h 2.48443 l 2.6785261,3.066718 c 0.212864,0.378775 0.582977,0.659927 1.0481189,0.659927 0.6857027,0 1.2422155,-0.556513 1.242215,-1.242215 V 6.4100325 c 0,-0.6857027 -0.5565127,-1.242215 -1.242215,-1.242215 z" id="rect3180" style="display:inline;overflow:visible;visibility:visible;fill:#dfdbd2;fill-opacity:1;fill-rule:evenodd;stroke:none;stroke-width:2.11177;marker:none;enable-background:accumulate"/>
  </g>
</svg>