<?xml version="1.0" encoding="UTF-8" standalone="no"?>
<svg version="1.0" width="24" height="24" id="svg3240" xmlns="http://www.w3.org/2000/svg" xmlns:svg="http://www.w3.org/2000/svg" xmlns:rdf="http://www.w3.org/1999/02/22-rdf-syntax-ns#" xmlns:cc="http://creativecommons.org/ns#" xmlns:dc="http://purl.org/dc/elements/1.1/">
  <metadata id="metadata9">
    <rdf:RDF>
      <cc:Work rdf:about="">
        <dc:format>image/svg+xml</dc:format>
        <dc:type rdf:resource="http://purl.org/dc/dcmitype/StillImage"/>
      </cc:Work>
    </rdf:RDF>
  </metadata>
  <defs id="defs3242"/>
  <g id="g5683">
    <path d="m 2,3.9999999 c -1.108,0 -2,1.1893332 -2,2.6666665 V 17.333332 C 0,18.810666 0.892,20 2,20 h 18 c 1.108,0 2,-1.189334 2,-2.666668 V 16 h 0.384328 C 23.492328,16 24,14.810666 24,13.333332 V 10.666667 C 24,9.1893332 23.574418,8.0000002 22.466417,8.0000002 H 22 V 6.6666664 C 22,5.1893331 21.108,3.9999999 20,3.9999999 Z m 0,1.3333332 h 18 c 0.554,0 1,0.5946667 1,1.3333333 V 17.333332 c 0,0.738668 -0.446,1.333334 -1,1.333334 H 2 c -0.554,0 -1,-0.594666 -1,-1.333334 V 6.6666664 C 1,5.9279998 1.446,5.3333331 2,5.3333331 Z m 20,4.0000001 c 0.597415,0 1,0.068 1,1.3333338 v 2.666665 c 0,1.321868 -0.406448,1.333334 -1,1.333334 z" id="rect2401-48" style="display:inline;overflow:visible;visibility:visible;fill:#df382c;fill-opacity:1;fill-rule:nonzero;stroke:none;stroke-width:1.1547;marker:none;enable-background:accumulate"/>
  </g>
</svg>