<?xml version="1.0" encoding="UTF-8" standalone="no"?>
<svg version="1.1" width="24" height="24" id="svg3014" xmlns="http://www.w3.org/2000/svg" xmlns:svg="http://www.w3.org/2000/svg" xmlns:rdf="http://www.w3.org/1999/02/22-rdf-syntax-ns#" xmlns:cc="http://creativecommons.org/ns#" xmlns:dc="http://purl.org/dc/elements/1.1/">
  <defs id="defs3016"/>
  <metadata id="metadata3019">
    <rdf:RDF>
      <cc:Work rdf:about="">
        <dc:format>image/svg+xml</dc:format>
        <dc:type rdf:resource="http://purl.org/dc/dcmitype/StillImage"/>
      </cc:Work>
    </rdf:RDF>
  </metadata>
  <g transform="matrix(1.1,0,0,1.1,-0.10000001,-0.10000001)" id="g7783">
    <g id="g6991" transform="matrix(1.0909091,0,0,1.4545455,-1,-4.3939397)">
      <path d="M 2.6666667,5.5833334 C 1.7433334,5.5833334 1,6.3266667 1,7.25 v 6.666667 C 1,14.84 1.7433334,15.583333 2.6666667,15.583333 H 17.666667 c 0.923333,0 1.666666,-0.743333 1.666666,-1.666666 v -0.833334 h 0.320274 C 20.57694,13.083333 21,12.34 21,11.416667 V 9.75 C 21,8.8266667 20.645348,8.0833334 19.722015,8.0833334 H 19.333333 V 7.25 c 0,-0.9233333 -0.743333,-1.6666666 -1.666666,-1.6666666 z m 0,0.8333333 H 17.666667 C 18.128333,6.4166667 18.5,6.7883334 18.5,7.25 v 6.666667 C 18.5,14.378333 18.128333,14.75 17.666667,14.75 H 2.6666667 C 2.205,14.75 1.8333334,14.378333 1.8333334,13.916667 V 7.25 c 0,-0.4616666 0.3716666,-0.8333333 0.8333333,-0.8333333 z m 16.6666663,2.5 c 0.497846,0 0.833334,0.0425 0.833334,0.8333333 v 1.666667 c 0,0.826166 -0.338707,0.833333 -0.833334,0.833333 z" id="rect2401" style="display:inline;overflow:visible;visibility:visible;fill:#dfdbd2;fill-opacity:1;fill-rule:nonzero;stroke:none;stroke-width:0.833333;marker:none;enable-background:accumulate"/>
      <rect width="6.6666665" height="5.8333335" rx="0.41666666" ry="0.4166598" x="7.25" y="-8.5" transform="rotate(90)" id="rect3190" style="display:inline;overflow:visible;visibility:visible;fill:#dfdbd2;fill-opacity:1;fill-rule:evenodd;stroke:none;stroke-width:1.41667;marker:none;enable-background:accumulate"/>
    </g>
  </g>
</svg>