<?xml version="1.0" encoding="UTF-8" standalone="no"?>
<svg
   width="16"
   height="16"
   version="1.1"
   id="svg1"
   xmlns="http://www.w3.org/2000/svg"
   xmlns:svg="http://www.w3.org/2000/svg">
  <defs
     id="defs1" />
  <path
     style="fill:#dfdbd2;fill-opacity:1"
     d="M 8.8066,0 C 9.9048,1.38 10.234,1.57 9.8379,2.45 9.4788,3.25 8.551,3.15 9.0176,5 8.2512,4.1 7.6423,3.46 8.2441,2.54 8.8563,1.6 9.1916,1.53 8.8066,0 Z M 5.807,0 C 6.9048,1.38 7.234,1.57 6.8379,2.45 6.4788,3.25 5.551,3.15 6.0176,5 5.251,4.1 4.642,3.46 5.244,2.54 5.856,1.6 6.1916,1.53 5.807,0 Z m -3,0 C 3.905,1.38 4.234,1.57 3.838,2.45 3.479,3.25 2.551,3.15 3.018,5 2.251,4.1 1.642,3.46 2.244,2.54 2.856,1.6 3.192,1.53 2.807,0 Z M 12,6 c 2.2091,0 4,1.79 4,4 0,2.21 -1.7909,4 -4,4 -0.2425,0 -0.4843,-0.02 -0.7227,-0.07 C 10.538,15.48 9.042,16 6,16 0,16 0,14 0,6 Z m 0,2 h -0.0078 c -0.0116,1.6 -0.0522,2.94 -0.1953,3.99 0.0674,0 0.1352,0.01 0.2031,0.01 1.1046,0 2,-0.9 2,-2 0,-1.1 -0.8954,-2 -2,-2 z"
     id="path1" />
</svg>
