<?xml version="1.0" encoding="UTF-8" standalone="no"?>
<svg version="1.0" width="24" height="24" id="svg3229" xmlns="http://www.w3.org/2000/svg" xmlns:svg="http://www.w3.org/2000/svg" xmlns:rdf="http://www.w3.org/1999/02/22-rdf-syntax-ns#" xmlns:cc="http://creativecommons.org/ns#" xmlns:dc="http://purl.org/dc/elements/1.1/">
  <metadata id="metadata9">
    <rdf:RDF>
      <cc:Work rdf:about="">
        <dc:format>image/svg+xml</dc:format>
        <dc:type rdf:resource="http://purl.org/dc/dcmitype/StillImage"/>
      </cc:Work>
    </rdf:RDF>
  </metadata>
  <defs id="defs3231"/>
  <path style="display:inline;overflow:visible;visibility:visible;fill:#55d400;fill-opacity:1;fill-rule:nonzero;stroke:none;stroke-width:1.33333;marker:none;enable-background:accumulate" id="rect3170" d="M 1.7400476,4.0294965 C 0.92750595,4.0294965 2.5e-7,5.0430955 2.5e-7,5.7817615 V 18.179975 C 2.5e-7,19.154613 1.0518616,20 1.9380104,20 H 22.002998 C 23.066125,20 24,19.096218 24,18.165227 V 5.9527575 c 0,-1.03405 -0.919014,-1.952757 -1.879017,-1.952757 z m 0.7182856,1.512171 9.1250008,9.1249995 H 12.375 l 9.166667,-9.1249995 0.916667,0.916666 -5.458333,5.5416675 4.125,4.208333 L 20.208334,17.125 16,12.916666 12.958334,16 h -1.916667 l -3.0416662,-3.083334 -4.208334,4.25 L 2.8749997,16.208334 7.0416668,12.000001 1.5416669,6.4583335 Z"/>
</svg>