<?xml version="1.0" encoding="UTF-8" standalone="no"?>
<!-- Created with Inkscape (http://www.inkscape.org/) -->

<svg
   width="24"
   height="24"
   id="svg3815"
   version="1.1"
   xmlns="http://www.w3.org/2000/svg"
   xmlns:svg="http://www.w3.org/2000/svg"
   xmlns:rdf="http://www.w3.org/1999/02/22-rdf-syntax-ns#"
   xmlns:cc="http://creativecommons.org/ns#"
   xmlns:dc="http://purl.org/dc/elements/1.1/">
  <g
     id="g375"
     transform="matrix(1.3333333,0,0,1.3333333,-3.9999996,-3.326257)">
    <path
       d="M 13.500001,10.5 V -1.5000003 c 0,-0.554 0.445999,-1 1,-1 H 19.5 c 0.553999,0 1,0.446 1,1 V 10.5 c 0,0.554 -0.446001,1 -1,1 h -4.999999 c -0.554001,0 -1,-0.446 -1,-1 z M 15.50264,-2.6184513 c 7e-4,-0.32804 0.0015,-0.656076 0.0025,-0.984108 0.04076,-0.597825 0.649595,-0.976733 1.212193,-0.897474 0.532922,0.023433 1.176896,-0.124121 1.554865,0.363195 0.35076,0.438478 0.191405,1.0212 0.227796,1.537207"
       id="rect2442"
       style="display:inline;overflow:visible;visibility:visible;fill:none;stroke:#dfdbd2;stroke-width:1;stroke-linecap:round;stroke-linejoin:miter;stroke-miterlimit:4;stroke-dashoffset:0;stroke-opacity:1;marker:none;enable-background:accumulate"
       transform="translate(0,8)" />
    <path
       d="m 4,-3.0000003 c -0.554,0 -1,0.446 -1,1 V 11 c 0,0.554 0.446,1 1,1 h 5.0000005 c 0.554,0 1.0000005,-0.446 1.0000005,-1 V -2.0000003 c 0,-0.554 -0.4460005,-1 -1.0000005,-1 z m 0,3 h 1 v 1 H 4 Z m 2,0 h 1 v 1 H 6 Z m 2.0000005,1 h 1 V 8 h -1 z M 4,1.9999997 h 1 v 1 H 4 Z m 2,0 h 1 v 1 H 6 Z m -2,2 H 5 V 5 H 4 Z m 2,0 H 7 V 5 H 6 Z M 4,6 H 5 V 7 H 4 Z M 6,6 H 7 V 7 H 6 Z M 4,8 H 5 V 9 H 4 Z M 6,8 H 7 V 9 H 6 Z"
       id="rect2397"
       style="display:inline;overflow:visible;visibility:visible;fill:#dfdbd2;fill-opacity:1;fill-rule:evenodd;stroke:none;stroke-width:1.7;marker:none;enable-background:accumulate"
       transform="translate(0,8)" />
    <rect
       width="4"
       height="4"
       rx="0.5"
       ry="0.5"
       x="15"
       y="6"
       id="rect3728"
       style="display:inline;overflow:visible;visibility:visible;fill:#dfdbd2;fill-opacity:1;fill-rule:evenodd;stroke:none;stroke-width:1.7;marker:none;enable-background:accumulate"
       transform="translate(0,8)" />
  </g>
  <defs
     id="defs3817" />
  <metadata
     id="metadata3820">
    <rdf:RDF>
      <cc:Work
         rdf:about="">
        <dc:format>image/svg+xml</dc:format>
        <dc:type
           rdf:resource="http://purl.org/dc/dcmitype/StillImage" />
      </cc:Work>
    </rdf:RDF>
  </metadata>
</svg>
