<?xml version="1.0" encoding="UTF-8" standalone="no"?>
<svg
   height="16px"
   viewBox="0 0 16 16"
   width="16px"
   version="1.1"
   id="svg1"
   xmlns="http://www.w3.org/2000/svg"
   xmlns:svg="http://www.w3.org/2000/svg">
  <defs
     id="defs1" />
  <path
     d="M 8.0102557,5.0291682e-7 C 7.9021438,5.0291682e-7 7.7985364,0.0090105 7.6994343,0.0315315 4.2398542,0.2117182 1.208216,2.5901796 0.25773215,5.9461535 c -0.87840824,3.477597 0.6576811,7.1849345 3.73886975,9.0273405 3.1352445,1.747811 7.1128611,1.225268 9.6895281,-1.274818 2.500086,-2.576665 3.022628,-6.554283 1.274818,-9.6895277 1.734295,3.1442534 1.18923,7.1083567 -1.310855,9.6534917 -2.567658,2.477563 -6.5182466,2.973075 -9.6039396,1.229772 C 1.0235251,13.072529 -0.47202254,9.4327615 0.37935825,6.0452555 -0.44048961,9.4417715 1.0955997,13.045501 4.0911995,14.811329 c 3.0586656,1.693751 6.9506935,1.157697 9.4282575,-1.279326 2.414498,-2.500086 2.896497,-6.3786013 1.193736,-9.3787055 1.675733,3.018124 1.144183,6.8651055 -1.261306,9.3111365 C 10.983332,15.8474 7.1498651,16.324895 4.1857971,14.644656 1.2802906,12.905857 -0.17020991,9.3742015 0.65414235,6.1173306 -0.13867815,9.3787055 1.3478607,12.874323 4.2308443,14.563572 c 2.9370394,1.635191 6.7119467,1.112652 9.0859027,-1.234277 2.324405,-2.396481 2.79289,-6.157873 1.153194,-9.0363521 1.612669,2.8964966 1.094632,6.6308621 -1.220763,8.9687821 -2.360444,2.292872 -6.0857986,2.756852 -8.9192318,1.13968 C 1.5370571,12.734679 0.13160275,9.3066305 0.92892755,6.1849008 0.16313455,9.3156395 1.6046262,12.707651 4.3749935,14.32032 c 2.8109089,1.572128 6.4731995,1.0631 8.7435475,-1.189231 2.229809,-2.292872 2.684779,-5.9416495 1.103644,-8.6985014 1.554108,2.7703662 1.049585,6.3921144 -1.171213,8.6309314 -2.26134,2.198275 -5.869574,2.648743 -8.5813809,1.090129 C 1.7938225,12.563503 0.43341415,9.2435645 1.2037116,6.2569754 0.46494715,9.2525745 1.8613928,12.536474 4.5146382,14.072563 c 2.6892828,1.509062 6.2344518,1.018054 8.4011938,-1.144184 2.139715,-2.189265 2.576667,-5.7254252 1.0631,-8.3516422 1.486538,2.6442356 1.000036,6.1533672 -1.13067,8.2840732 -2.153228,2.108181 -5.6488453,2.545133 -8.2390262,1.049587 C 2.050588,12.39683 0.73522675,9.1805015 1.4739913,6.32905 c -0.71173705,2.8604605 0.6441669,6.036247 3.1847961,7.500262 2.5631523,1.445996 5.9957056,0.968503 8.0588396,-1.099137 2.045117,-2.085659 2.468555,-5.5092026 1.013549,-8.0137946 1.427978,2.5226107 0.954988,5.9191266 -1.081119,7.9462236 C 10.600436,14.676188 7.2174353,15.099627 4.753385,13.66264 2.3073534,12.225652 1.032535,9.1174365 1.7487754,6.4011246 1.0640668,9.1264445 2.3749236,12.198624 4.7984311,13.581555 c 2.4415272,1.387436 5.7569589,0.923456 7.7164869,-1.05409 1.955023,-1.982051 2.364947,-5.2884739 0.973006,-7.6669354 1.364912,2.3964801 0.905437,5.6758744 -1.040576,7.5993644 -1.946014,1.923492 -5.211894,2.32891 -7.5543181,0.959493 C 2.5641189,12.05898 1.3343465,9.0498655 2.0235595,6.4686937 1.3658794,9.0588745 2.631689,12.027448 4.9425802,13.338305 7.257977,14.662674 10.460792,14.212208 12.316713,12.32926 14.177138,10.450816 14.573548,7.2570097 13.240167,5.0001745 14.54652,7.2750284 14.100559,10.441806 12.249142,12.26169 10.406736,14.090583 7.2534726,14.482487 5.037179,13.17163 2.8208854,11.887803 1.6361591,8.9868005 2.2983446,6.5407682 1.667692,8.9958105 2.8884545,11.860775 5.0822251,13.090548 c 2.1892661,1.261305 5.2839689,0.828857 7.0317759,-0.963999 1.770334,-1.770331 2.148725,-4.8515206 0.882916,-6.9822254 1.238781,2.1487234 0.815343,5.1983804 -0.950484,6.9146564 -1.7388,1.743305 -4.7749418,2.11719 -6.8696092,0.869399 -2.099173,-1.211753 -3.2388521,-4.0046439 -2.6036951,-6.3155362 -0.603624,2.3199014 0.5720924,5.0767542 2.6532456,6.2344522 2.0631355,1.198241 5.0407167,0.779308 6.6894237,-0.91895 1.680238,-1.67123 2.040611,-4.635298 0.833362,-6.6443765 1.180221,2.0270972 0.770297,4.9641375 -0.900932,6.5768065 -1.635193,1.648706 -4.5632237,2.009079 -6.527255,0.819848 -1.9865567,-1.13067 -3.0811898,-3.8199537 -2.4730602,-6.00021 -0.581101,2.1847618 0.5585781,4.842512 2.5181062,5.919127 1.9415095,1.139679 4.806474,0.738765 6.347068,-0.873905 1.590145,-1.563117 1.937006,-4.4145693 0.792821,-6.2975173 1.117156,1.9009666 0.720746,4.7208853 -0.860391,6.2299473 -1.531584,1.558613 -4.3424929,1.900967 -6.1849004,0.779307 C 3.5911829,11.378776 2.5370914,8.7976046 3.1226981,6.7524876 2.5686244,8.8066133 3.6632575,11.351749 5.5101682,12.356287 7.3255471,13.432902 10.073391,13.045501 11.514882,11.52743 13.01043,10.063415 13.343776,7.3290843 12.258151,5.5677612 13.316747,7.347103 12.933851,10.054406 11.447313,11.45986 10.019335,12.923876 7.3210416,13.252715 5.6047658,12.189615 3.8479484,11.212103 2.838904,8.7300344 3.3974821,6.8245622 2.870437,8.7390432 3.9200229,11.180571 5.649813,12.108532 c 1.6937528,1.013548 4.3289789,0.639661 5.66236,-0.783812 1.400949,-1.3559035 1.720781,-3.977617 0.698222,-5.6128095 1.009045,1.6442023 0.666691,4.247896 -0.73426,5.5767725 -1.3243711,1.400949 -3.9325692,1.743304 -5.5767716,0.73426 C 4.0056106,11.103992 2.9965664,8.6714741 3.5461357,6.8245622 3.9966019,4.9506229 6.0822606,3.3514688 8.0102557,3.4010193 v -0.0045 c 0.9369698,0 1.6982572,-0.7612874 1.6982572,-1.6982571 C 9.7085129,0.7612926 8.9472255,5.0029168e-6 8.0102557,5.0029168e-6 Z m 0,0"
     fill="#2e3436"
     id="path1"
     style="stroke-width:1.15319" />
</svg>
