<?xml version="1.0" encoding="UTF-8" standalone="no"?>
<svg
   xmlns:dc="http://purl.org/dc/elements/1.1/"
   xmlns:cc="http://creativecommons.org/ns#"
   xmlns:rdf="http://www.w3.org/1999/02/22-rdf-syntax-ns#"
   xmlns:svg="http://www.w3.org/2000/svg"
   xmlns="http://www.w3.org/2000/svg"
   id="svg3215"
   height="24"
   width="24"
   version="1.0">
  <metadata
     id="metadata8">
    <rdf:RDF>
      <cc:Work
         rdf:about="">
        <dc:format>image/svg+xml</dc:format>
        <dc:type
           rdf:resource="http://purl.org/dc/dcmitype/StillImage" />
        <dc:title></dc:title>
      </cc:Work>
    </rdf:RDF>
  </metadata>
  <defs
     id="defs3217" />
  <path
     style="display:inline;overflow:visible;visibility:visible;fill:#df382c;fill-opacity:1;fill-rule:evenodd;stroke:none;stroke-width:2.26667;marker:none;enable-background:accumulate"
     id="rect3193"
     d="m 14,2.6666673 c -2.252608,0 -4.182405,1.4166935 -5.208333,3.4583333 -0.577693,-0.4805409 -1.3154,-0.7916665 -2.125,-0.7916666 -1.8400002,0 -3.3333335,1.4933336 -3.3333337,3.3333338 0,0.413236 0.07068,0.8013894 0.2083334,1.1666654 C 1.4489897,10.768373 0,12.885376 0,15.333333 c 0,3.324 2.676,6 6,6 h 12 c 3.324,0 6,-2.676 6,-6 0,-2.632897 -1.69164,-4.85471 -4.041667,-5.6666665 C 19.963533,9.5527598 20,9.4486678 20,9.3333345 20,5.653334 17.312,2.6666673 14,2.6666673 Z m -2,4 c 0.738667,0 1.333333,0.5946667 1.333333,1.3333333 V 14.666667 C 13.333333,15.405333 12.738667,16 12,16 11.261333,16 10.666667,15.405333 10.666667,14.666667 V 8.0000006 C 10.666667,7.261334 11.261333,6.6666673 12,6.6666673 Z M 11.333333,17.333333 H 12 12.666667 c 0.369333,0 0.666666,0.297334 0.666666,0.666667 v 0.666667 0.666666 C 13.333333,19.702667 13.036,20 12.666667,20 H 12 11.333333 C 10.964,20 10.666667,19.702667 10.666667,19.333333 V 18.666667 18 c 0,-0.369333 0.297333,-0.666667 0.666666,-0.666667 z" />
</svg>
