<?xml version="1.0" encoding="UTF-8" standalone="no"?>
<svg
   xmlns:dc="http://purl.org/dc/elements/1.1/"
   xmlns:cc="http://creativecommons.org/ns#"
   xmlns:rdf="http://www.w3.org/1999/02/22-rdf-syntax-ns#"
   xmlns:svg="http://www.w3.org/2000/svg"
   xmlns="http://www.w3.org/2000/svg"
   id="svg3215"
   height="24"
   width="24"
   version="1.0">
  <metadata
     id="metadata8">
    <rdf:RDF>
      <cc:Work
         rdf:about="">
        <dc:format>image/svg+xml</dc:format>
        <dc:type
           rdf:resource="http://purl.org/dc/dcmitype/StillImage" />
        <dc:title></dc:title>
      </cc:Work>
    </rdf:RDF>
  </metadata>
  <defs
     id="defs3217" />
  <path
     style="display:inline;overflow:visible;visibility:visible;fill:#dfdbd2;fill-opacity:1;fill-rule:evenodd;stroke:none;stroke-width:2.26667;marker:none;enable-background:accumulate"
     id="rect3193"
     d="m 13.999999,2.6666673 c -2.252608,0 -4.1824047,1.4166935 -5.2083318,3.4583334 C 8.2139742,5.6444597 7.4762663,5.3333341 6.6666664,5.333334 c -1.8399999,0 -3.3333332,1.4933336 -3.3333334,3.3333338 0,0.413236 0.07068,0.8013895 0.2083334,1.1666654 C 1.4489894,10.768373 -2.5e-7,12.885376 -2.5e-7,15.333333 c 0,3.324 2.67599995,6 6.00000015,6 H 17.999999 c 3.323999,0 6.000001,-2.676 6.000001,-6 0,-2.632897 -1.691642,-4.85471 -4.041668,-5.6666665 0.0052,-0.1139066 0.04166,-0.2179986 0.04166,-0.3333319 0,-3.6800006 -2.688,-6.6666673 -6,-6.6666673 z m -2,4.0000001 c 0.738666,0 1.333333,0.5946666 1.333333,1.3333332 V 14.666667 C 13.333332,15.405333 12.738665,16 11.999999,16 11.261332,16 10.666666,15.405333 10.666666,14.666667 V 8.0000006 c 0,-0.7386666 0.594666,-1.3333332 1.333333,-1.3333332 z M 11.333332,17.333334 h 0.666667 0.666666 c 0.369334,0 0.666667,0.297333 0.666667,0.666666 v 0.666667 0.666666 C 13.333332,19.702667 13.035999,20 12.666665,20 h -0.666666 -0.666667 c -0.369333,0 -0.666666,-0.297333 -0.666666,-0.666667 V 18.666667 18 c 0,-0.369333 0.297333,-0.666666 0.666666,-0.666666 z" />
</svg>
