<?xml version="1.0" encoding="UTF-8" standalone="no"?>
<svg
   xmlns:dc="http://purl.org/dc/elements/1.1/"
   xmlns:cc="http://creativecommons.org/ns#"
   xmlns:rdf="http://www.w3.org/1999/02/22-rdf-syntax-ns#"
   xmlns:svg="http://www.w3.org/2000/svg"
   xmlns="http://www.w3.org/2000/svg"
   id="svg3215"
   height="24"
   width="24"
   version="1.0">
  <metadata
     id="metadata8">
    <rdf:RDF>
      <cc:Work
         rdf:about="">
        <dc:format>image/svg+xml</dc:format>
        <dc:type
           rdf:resource="http://purl.org/dc/dcmitype/StillImage" />
        <dc:title></dc:title>
      </cc:Work>
    </rdf:RDF>
  </metadata>
  <defs
     id="defs3217" />
  <path
     style="display:inline;overflow:visible;visibility:visible;fill:#dfdbd2;fill-opacity:1;fill-rule:evenodd;stroke:none;stroke-width:2.26667;marker:none;enable-background:accumulate"
     id="rect3193"
     d="m 14,2.6666672 c -2.252608,10e-8 -4.1824048,1.4166934 -5.2083338,3.4583333 -0.577693,-0.4805408 -1.3154,-0.7916666 -2.1249999,-0.7916667 -1.8399998,1e-7 -3.3333331,1.4933336 -3.3333332,3.3333325 0,0.413236 0.07068,0.8013906 0.2083333,1.1666666 C 1.4489895,10.768373 -2e-7,12.885376 -2e-7,15.333333 c 0,3.324 2.6759999,6 5.9999999,6 H 18 c 3.324,0 6,-2.676 6,-6 0,-2.632897 -1.69164,-4.854711 -4.041667,-5.6666669 0.0052,-0.1139066 0.04167,-0.2179986 0.04167,-0.3333333 0,-3.6799996 -2.688,-6.6666657 -6,-6.6666657 z" />
</svg>
