<?xml version="1.0" encoding="UTF-8" standalone="no"?>
<svg
   xmlns:dc="http://purl.org/dc/elements/1.1/"
   xmlns:cc="http://creativecommons.org/ns#"
   xmlns:rdf="http://www.w3.org/1999/02/22-rdf-syntax-ns#"
   xmlns:svg="http://www.w3.org/2000/svg"
   xmlns="http://www.w3.org/2000/svg"
   version="1.0"
   width="24"
   height="24"
   id="svg3215">
  <defs
     id="defs8" />
  <metadata
     id="metadata8">
    <rdf:RDF>
      <cc:Work
         rdf:about="">
        <dc:format>image/svg+xml</dc:format>
        <dc:type
           rdf:resource="http://purl.org/dc/dcmitype/StillImage" />
        <dc:title></dc:title>
      </cc:Work>
    </rdf:RDF>
  </metadata>
  <path
     id="rect3193"
     d="m 14,2.6666665 c -2.252667,1e-7 -4.182467,1.4166 -5.208333,3.4583333 -0.577734,-0.4806666 -1.3154,-0.7916666 -2.1250003,-0.7916666 -1.84,0 -3.3333334,1.4933333 -3.3333334,3.3333333 0,0.4132 0.070733,0.8013333 0.2083334,1.1666667 C 1.449,10.768 0,12.885333 0,15.333334 c 0,3.324 2.676,6 6,6 h 12 c 3.324,0 6,-2.676 6,-6 C 24,12.7 22.307667,10.478666 19.958333,9.6666665 19.963667,9.5533332 20,9.4493332 20,9.3333332 c 0,-3.68 -2.688,-6.6666667 -6,-6.6666667 z M 8,9.3333332 h 2.666667 V 17.333334 H 8 Z m 5.333333,0 H 16 v 8.0000008 h -2.666667 z"
     style="fill:#dfdbd2;fill-rule:evenodd;stroke-width:1.33333" />
</svg>
