<?xml version="1.0" encoding="UTF-8" standalone="no"?>
<svg
   version="1.1"
   id="Layer_1"
   x="0px"
   y="0px"
   width="24"
   height="24"
   viewBox="0 0 24 24"
   enable-background="new 0 0 22 22"
   xml:space="preserve"
   xmlns="http://www.w3.org/2000/svg"
   xmlns:svg="http://www.w3.org/2000/svg"
   xmlns:rdf="http://www.w3.org/1999/02/22-rdf-syntax-ns#"
   xmlns:cc="http://creativecommons.org/ns#"
   xmlns:dc="http://purl.org/dc/elements/1.1/"><metadata
   id="metadata13"><rdf:RDF><cc:Work
       rdf:about=""><dc:format>image/svg+xml</dc:format><dc:type
         rdf:resource="http://purl.org/dc/dcmitype/StillImage" /></cc:Work></rdf:RDF></metadata><defs
   id="defs11" />


<g
   id="g1592"
   transform="matrix(1.0482954,0,0,1.0482954,-0.57954506,6.5177042e-7)"><rect
     x="10.569105"
     y="-1.091481e-07"
     width="2.8617885"
     height="10.01626"
     id="rect3-8"
     style="fill:#dfdbd2;fill-opacity:1;stroke:none;stroke-width:1.4309;stroke-opacity:1" /><path
     d="M 23.447155,12.878049 V 10.01626 h -2.99057 C 20.237659,8.7127155 19.72826,7.5121951 18.992781,6.4776586 L 21.107643,4.3627968 19.082927,2.3409431 16.968065,4.454374 C 16.327025,3.9979187 15.61587,3.6387643 14.861788,3.369756 v 3.1479676 c 1.702765,0.9916098 2.861789,2.8174309 2.861789,4.9294314 0,1.573983 -0.635317,2.996292 -1.662699,4.030829 l -0.03005,0.03005 c -1.034537,1.027382 -2.456846,1.662699 -4.030829,1.662699 -1.579708,0 -3.009171,-0.63961 -4.0451386,-1.675577 l -0.00429,-0.0029 C 6.9160318,14.457747 6.276422,13.026852 6.276422,11.447146 c 0,-2.1134312 1.1590244,-3.9378215 2.8617886,-4.9294312 V 3.369756 C 8.3841293,3.6387643 7.671544,3.9979187 7.0305033,4.454374 L 4.9156423,2.3395122 2.8923577,4.3627968 5.0072195,6.4776586 C 4.2717398,7.5121951 3.7623415,8.7127155 3.5434146,10.01626 H 0.5528455 v 2.861789 h 2.9905691 c 0.2189269,1.302113 0.7283252,2.504065 1.4638049,3.538601 l -2.1134309,2.113432 2.0232846,2.023284 2.1134309,-2.113431 c 1.0345365,0.73548 2.2350569,1.244878 3.5386009,1.463805 v 2.990569 h 2.86179 V 19.90374 c 1.302114,-0.218927 2.504064,-0.728325 3.5386,-1.463805 l 2.113432,2.113431 2.023284,-2.023284 -2.11343,-2.113432 c 0.73691,-1.034536 1.244878,-2.235057 1.463804,-3.538601 z"
     id="path7-6"
     style="fill:#dfdbd2;fill-opacity:1;stroke:none;stroke-width:1.4309;stroke-opacity:1" /></g></svg>
