<?xml version="1.0" encoding="UTF-8" standalone="no"?>
<svg
   width="24"
   height="24"
   version="1.1"
   id="svg141"
   xmlns="http://www.w3.org/2000/svg"
   xmlns:svg="http://www.w3.org/2000/svg">
  <defs
     id="defs137">
    <style
       id="current-color-scheme"
       type="text/css">
   .ColorScheme-Text { color:#ffffff; } .ColorScheme-Highlight { color:#4285f4; } .ColorScheme-NeutralText { color:#ff9800; } .ColorScheme-PositiveText { color:#4caf50; } .ColorScheme-NegativeText { color:#f44336; }
  </style>
  </defs>
  <path
     style="fill:#dfdbd2;stroke-width:1.5;fill-opacity:1"
     class="ColorScheme-Text"
     d="m 12.000061,-7.9188889e-5 c -0.288901,0 -0.574598,0.01526699889 -0.858399,0.03515499889 -0.03555,0.00263 -0.06977,0.00291 -0.105465,0.00587 C 6.749494,0.37922611 3.1174614,2.955148 1.2832599,6.6034514 1.1645858,6.8396264 1.0437305,7.0763504 0.9404853,7.3212254 0.3787199,8.5897764 0.0730431,9.9342874 0.017633,11.343688 c -0.00243,0.04552 -0.00393,0.09202 -0.00587,0.1377 -0.00371,0.13464 -0.00969,0.268518 -0.00879,0.404298 -3.481e-4,0.03808 -0.00293,0.07609 -0.00293,0.114255 0,1.395331 0.2485773,2.729007 0.6826177,3.97266 0.1746751,0.557518 0.3753443,1.120025 0.6181645,1.690431 0.6048455,1.420966 0.681113,1.80719 0.585938,2.994142 -0.066314,0.827024 -0.2910594,1.672112 -0.5712896,2.147462 -0.2540702,0.43107 -0.4570316,0.877 -0.4570316,0.990235 0,0.35013 2.0209751,0.226969 3.8115256,-0.231446 2.0976014,-0.53703 2.2820554,-0.536726 4.0019564,0.003 0.786796,0.2469 1.682364,0.37931 2.695315,0.416016 0.04237,0.0021 0.08641,0.0042 0.12891,0.0059 0.1386,0.0045 0.272766,0.0117 0.416016,0.0117 0.0117,0 0.0206,8.5e-5 0.03222,0 0.01847,8.2e-5 0.03717,0 0.05567,0 0.335085,0 0.665173,-0.01728 0.993164,-0.04395 2.966702,-0.210975 5.349595,-1.307203 7.494146,-3.448245 1.767002,-1.764001 2.863152,-3.940929 3.295902,-6.219732 0.03987,-0.208245 0.07059,-0.420818 0.09962,-0.632813 0.01755,-0.13014 0.03657,-0.259088 0.0498,-0.389648 0.02908,-0.280005 0.04601,-0.564086 0.05567,-0.849611 0.0021,-0.07195 0.0051,-0.141885 0.0058,-0.213867 10e-4,-0.06704 0.0058,-0.13491 0.0058,-0.202184 0,-6.537005 -5.175599,-11.81676989 -11.668954,-11.99121999 -0.0504,-0.00225 -0.10179,-0.00213 -0.152343,-0.00293 -0.06,-8.742e-4 -0.11856,-0.0058599989 -0.178712,-0.0058599989 z M 8.250058,5.9999253 c 1.242641,0 2.250001,1.0073601 2.250001,2.2500011 0,0.750001 0,2.2500016 -1.500001,2.2500016 0,1.500001 3.047347,4.418589 4.500004,4.500003 0,-1.500001 1.500001,-1.500001 2.250001,-1.500001 1.242642,0 2.250002,1.00736 2.250002,2.250002 0,1.242641 -1.00736,2.250001 -2.250002,2.250001 H 14.909242 C 14.464771,17.990233 13.946678,17.82601 13.218811,17.560479 10.784389,16.672389 9.094323,15.246732 7.362362,12.621024 6.353468,11.091498 6.005456,10.171015 6.000056,9.0262944 v -0.776368 c 0,-1.242641 1.00736,-2.2500011 2.250002,-2.2500011 z"
     id="path139" />
</svg>
