<?xml version="1.0" encoding="UTF-8" standalone="no"?>
<!-- Created with Inkscape (http://www.inkscape.org/) -->

<svg
   width="48"
   height="48"
   viewBox="0 0 12.7 12.7"
   version="1.1"
   id="svg715"
   xmlns:xlink="http://www.w3.org/1999/xlink"
   xmlns="http://www.w3.org/2000/svg"
   xmlns:svg="http://www.w3.org/2000/svg">
  <defs
     id="defs712">
    <linearGradient
       gradientTransform="translate(-14,-5)"
       gradientUnits="userSpaceOnUse"
       id="linearGradient3308"
       x1="-11.986486"
       x2="-11.986486"
       xlink:href="#linearGradient2065"
       y1="13.122552"
       y2="29.726542" />
    <linearGradient
       id="linearGradient2065">
      <stop
         id="stop2067"
         offset="0"
         style="stop-color:#555753" />
      <stop
         id="stop2069"
         offset="1"
         style="stop-color:#fcaf3e" />
    </linearGradient>
    <radialGradient
       cx="-6.0070167"
       cy="32.837029"
       fx="-6.0070167"
       fy="32.837029"
       gradientTransform="matrix(1,-1.487184e-8,1.425535e-8,0.958546,-27.2842,-3.424027)"
       gradientUnits="userSpaceOnUse"
       id="radialGradient3305"
       r="9.90625"
       xlink:href="#linearGradient4928" />
    <linearGradient
       id="linearGradient4928">
      <stop
         id="stop4930"
         offset="0"
         style="stop-color:#fce94f;stop-opacity:1;" />
      <stop
         id="stop4932"
         offset="1"
         style="stop-color:#fce94f;stop-opacity:0;" />
    </linearGradient>
    <linearGradient
       gradientTransform="translate(-50,-5)"
       gradientUnits="userSpaceOnUse"
       id="linearGradient3302"
       x1="25.355263"
       x2="25.355263"
       xlink:href="#linearGradient4616"
       y1="34.006802"
       y2="32.409008" />
    <linearGradient
       id="linearGradient4616">
      <stop
         id="stop4618"
         offset="0"
         style="stop-color:#2e3436;stop-opacity:1;" />
      <stop
         id="stop4620"
         offset="1"
         style="stop-color:#2e3436;stop-opacity:0;" />
    </linearGradient>
    <radialGradient
       cx="23.8125"
       cy="43"
       fx="23.8125"
       fy="43"
       gradientTransform="matrix(1,0,0,0.194656,0,34.62977)"
       gradientUnits="userSpaceOnUse"
       id="radialGradient2268"
       r="16.375"
       xlink:href="#linearGradient3188" />
    <linearGradient
       id="linearGradient3188">
      <stop
         id="stop3190"
         offset="0"
         style="stop-color:black;stop-opacity:1;" />
      <stop
         id="stop3192"
         offset="1"
         style="stop-color:black;stop-opacity:0;" />
    </linearGradient>
    <linearGradient
       gradientUnits="userSpaceOnUse"
       id="linearGradient3328"
       x1="22.750002"
       x2="22.750002"
       xlink:href="#linearGradient3269"
       y1="40.000755"
       y2="37.409679" />
    <linearGradient
       id="linearGradient3269">
      <stop
         id="stop3271"
         offset="0"
         style="stop-color:#fecb81;stop-opacity:1" />
      <stop
         id="stop3273"
         offset="1"
         style="stop-color:#fcaf3e;stop-opacity:1" />
    </linearGradient>
    <linearGradient
       gradientUnits="userSpaceOnUse"
       id="linearGradient3330"
       x1="17.25"
       x2="17.25"
       xlink:href="#linearGradient3284"
       y1="41.147343"
       y2="36.103439" />
    <linearGradient
       id="linearGradient3284">
      <stop
         id="stop3286"
         offset="0"
         style="stop-color:#ce5c00;stop-opacity:1;" />
      <stop
         id="stop3288"
         offset="1"
         style="stop-color:#f57900;stop-opacity:1" />
    </linearGradient>
    <linearGradient
       gradientUnits="userSpaceOnUse"
       id="linearGradient3335"
       x1="18.875"
       x2="18.875"
       xlink:href="#linearGradient3276"
       y1="35.183414"
       y2="43.978611" />
    <linearGradient
       id="linearGradient3276">
      <stop
         id="stop3278"
         offset="0"
         style="stop-color:white;stop-opacity:1;" />
      <stop
         id="stop3280"
         offset="1"
         style="stop-color:white;stop-opacity:0;" />
    </linearGradient>
  </defs>
  <g
     id="layer1" />
  <g
     id="g48"
     style="display:inline;enable-background:new"
     transform="matrix(0.26458333,0,0,0.26458333,-0.00357185,-0.39687463)">
    <g
       id="g3311"
       transform="translate(50)">
      <rect
         height="30.000021"
         id="rect2227"
         rx="2.3764169"
         ry="2.421876"
         style="fill:#eeeeec;fill-opacity:1;stroke:#888a85;stroke-width:1;stroke-linecap:round;stroke-linejoin:round;stroke-miterlimit:4;stroke-dasharray:none;stroke-dashoffset:0;stroke-opacity:1"
         width="40.972977"
         x="-46.472988"
         y="3.5000019" />
      <rect
         height="24"
         id="rect2229"
         rx="0.43750024"
         ry="0.4375"
         style="fill:url(#linearGradient3308);fill-opacity:1;stroke:#888a85;stroke-width:1;stroke-linecap:round;stroke-linejoin:round;stroke-miterlimit:4;stroke-dasharray:none;stroke-dashoffset:0;stroke-opacity:1"
         width="35.027027"
         x="-43.5"
         y="6.5" />
      <path
         d="m -33.916211,17.551777 c -5.168779,0.327955 -9.281251,4.655188 -9.281251,9.90625 0,0.202785 0.01921,0.393975 0.03125,0.59375 h 19.750001 c 0.01204,-0.199775 0.03125,-0.390965 0.03125,-0.59375 0,-5.464521 -4.441729,-9.90625 -9.90625,-9.90625 -0.213458,0 -0.414887,-0.01333 -0.625,0 z"
         id="path2231"
         style="color:#000000;display:inline;overflow:visible;visibility:visible;fill:url(#radialGradient3305);fill-opacity:1;fill-rule:evenodd;stroke:none;stroke-width:1;stroke-linecap:round;stroke-linejoin:round;stroke-miterlimit:4;stroke-dasharray:none;stroke-dashoffset:0;stroke-opacity:1;marker:none;marker-start:none;marker-mid:none;marker-end:none" />
      <rect
         height="2"
         id="rect2233"
         rx="0"
         ry="0"
         style="fill:url(#linearGradient3302);fill-opacity:1;stroke:none;stroke-width:1;stroke-linecap:round;stroke-linejoin:round;stroke-miterlimit:4;stroke-dasharray:none;stroke-dashoffset:0;stroke-opacity:1"
         width="34"
         x="-43"
         y="28" />
      <path
         d="m -20.444416,28.972272 c 0,0 -0.555584,-3.083355 -0.555584,-4.972272 0.01541,-0.861699 7.786707,-7.574609 7.806757,-8.574524 L -15,17 -16.265165,13.558058 -12,14 l 2,-2 -2.265165,1.662913 -0.779029,-0.176777 L -14,10 l 0.486136,3.397748 -3.53033,-0.176777 1.104854,2.811961 L -19,13 l 3.237437,4.221464 c 8.5e-5,0.941528 -6.380874,6.689202 -6.37002,5.698133 L -24.779029,19.370019 -25,14.571429 -23,14 l 1.752155,-4.320621 -2.30972,3.993315 -1.803168,-0.0817 -4.036388,-3.409009 -5.542219,-2.121321 4.734835,2.602253 L -34,11 h 5 l 3,3 0.353553,5.181981 L -31,14 -28.748699,16.707107 -32,19 l 3.571429,-2 5.649542,7.116117 L -23,28.972272 Z"
         id="path2235"
         style="fill:#000000;fill-opacity:1;fill-rule:evenodd;stroke:none;stroke-width:1px;stroke-linecap:butt;stroke-linejoin:miter;stroke-opacity:1" />
      <path
         d="m -33.632266,22.233668 c -2.820539,0.178961 -5.064664,2.540279 -5.064664,5.405719 0,0.110657 0.01048,0.214987 0.01705,0.324002 h 10.777333 c 0.0066,-0.109015 0.01705,-0.213345 0.01705,-0.324002 0,-2.981922 -2.423797,-5.405719 -5.405719,-5.405719 -0.116482,0 -0.226399,-0.0073 -0.341055,0 z"
         id="path2237"
         style="color:#000000;display:inline;overflow:visible;visibility:visible;fill:#fef39e;fill-opacity:1;fill-rule:evenodd;stroke:none;stroke-width:1;stroke-linecap:round;stroke-linejoin:round;stroke-miterlimit:4;stroke-dasharray:none;stroke-dashoffset:0;stroke-opacity:1;marker:none;marker-start:none;marker-mid:none;marker-end:none" />
      <path
         d="m -33.551318,23.531973 c -2.151088,0.136486 -3.862573,1.937349 -3.862573,4.122681 0,0.08439 0.008,0.16396 0.013,0.2471 h 8.219349 c 0.005,-0.08314 0.01301,-0.162708 0.01301,-0.2471 0,-2.274167 -1.848512,-4.122681 -4.12268,-4.122681 -0.08884,0 -0.172663,-0.0055 -0.260106,0 z"
         id="path2239"
         style="color:#000000;display:inline;overflow:visible;visibility:visible;fill:#fffbd7;fill-opacity:0.556818;fill-rule:evenodd;stroke:none;stroke-width:1;stroke-linecap:round;stroke-linejoin:round;stroke-miterlimit:4;stroke-dasharray:none;stroke-dashoffset:0;stroke-opacity:1;marker:none;marker-start:none;marker-mid:none;marker-end:none" />
      <rect
         height="27.999979"
         id="rect2241"
         rx="1.3854144"
         ry="1.3854144"
         style="fill:none;fill-opacity:1;stroke:#ffffff;stroke-width:1;stroke-linecap:round;stroke-linejoin:round;stroke-miterlimit:4;stroke-dasharray:none;stroke-dashoffset:0;stroke-opacity:1"
         width="38.973003"
         x="-45.473003"
         y="4.5000257" />
    </g>
    <ellipse
       id="path2243"
       style="color:#000000;display:inline;overflow:visible;visibility:visible;opacity:0.2;fill:url(#radialGradient2268);fill-opacity:1;fill-rule:nonzero;stroke:none;stroke-width:1;stroke-linecap:round;stroke-linejoin:miter;stroke-miterlimit:4;stroke-dasharray:none;stroke-dashoffset:1.4;stroke-opacity:1;marker:none;marker-start:none;marker-mid:none;marker-end:none"
       transform="matrix(1.068703,0,0,1.411765,-1.9485,-17.2059)"
       cx="23.8125"
       cy="43"
       rx="16.375"
       ry="3.1875" />
    <g
       id="g3321">
      <path
         d="m 15.500002,35.500004 h 17.00001 l -8.500005,8.999992 z"
         id="path3323"
         style="color:#000000;display:inline;overflow:visible;visibility:visible;fill:url(#linearGradient3328);fill-opacity:1;fill-rule:nonzero;stroke:url(#linearGradient3330);stroke-width:1;stroke-linecap:round;stroke-linejoin:round;stroke-miterlimit:4;stroke-dashoffset:1.4;stroke-opacity:1;marker:none;marker-start:none;marker-mid:none;marker-end:none" />
      <path
         d="M 17.820312,34.5 24,41.042969 30.179687,34.5 Z"
         id="path3325"
         style="color:#000000;display:inline;overflow:visible;visibility:visible;opacity:0.7;fill:none;fill-opacity:1;fill-rule:nonzero;stroke:url(#linearGradient3335);stroke-width:1;stroke-linecap:round;stroke-linejoin:miter;stroke-miterlimit:4;stroke-dasharray:none;stroke-dashoffset:1.4;stroke-opacity:1;marker:none;marker-start:none;marker-mid:none;marker-end:none"
         transform="translate(0,2)" />
    </g>
  </g>
</svg>
