<?xml version="1.0" encoding="UTF-8" standalone="no"?>
<!-- Created with Inkscape (http://www.inkscape.org/) -->

<svg
   version="1.1"
   width="48"
   height="48"
   id="svg3081"
   xmlns:xlink="http://www.w3.org/1999/xlink"
   xmlns="http://www.w3.org/2000/svg"
   xmlns:svg="http://www.w3.org/2000/svg">
  <defs
     id="defs3083">
    <linearGradient
       id="linearGradient8838-795">
      <stop
         id="stop2737"
         style="stop-color:black;stop-opacity:1"
         offset="0" />
      <stop
         id="stop2739"
         style="stop-color:black;stop-opacity:0"
         offset="1" />
    </linearGradient>
    <radialGradient
       cx="62.625"
       cy="4.625"
       r="10.625"
       fx="62.625"
       fy="4.625"
       id="radialGradient3546"
       xlink:href="#linearGradient8838-795"
       gradientUnits="userSpaceOnUse"
       gradientTransform="matrix(1,0,0,0.341176,0,3.047059)" />
    <linearGradient
       id="linearGradient37935">
      <stop
         id="stop37937"
         style="stop-color:#7c7c7c;stop-opacity:1"
         offset="0" />
      <stop
         id="stop37939"
         style="stop-color:#242424;stop-opacity:1"
         offset="1" />
    </linearGradient>
    <linearGradient
       x1="15.655657"
       y1="13.360059"
       x2="15.655657"
       y2="44.785629"
       id="linearGradient3571"
       xlink:href="#linearGradient37935"
       gradientUnits="userSpaceOnUse"
       gradientTransform="translate(0.749992,5e-8)" />
    <linearGradient
       id="linearGradient4873-625-158-888-767">
      <stop
         id="stop4258"
         style="stop-color:white;stop-opacity:1"
         offset="0" />
      <stop
         id="stop4260"
         style="stop-color:white;stop-opacity:0"
         offset="1" />
    </linearGradient>
    <linearGradient
       x1="63.397362"
       y1="-9.3832779"
       x2="63.397362"
       y2="7.4434662"
       id="linearGradient3568"
       xlink:href="#linearGradient4873-625-158-888-767"
       gradientUnits="userSpaceOnUse"
       gradientTransform="matrix(2.149872,0,0,2.149872,-109.36554,31.935343)" />
    <linearGradient
       id="linearGradient42174">
      <stop
         id="stop42176"
         style="stop-color:#a0a0a0;stop-opacity:1"
         offset="0" />
      <stop
         id="stop42178"
         style="stop-color:white;stop-opacity:1"
         offset="1" />
    </linearGradient>
    <linearGradient
       x1="6.342216"
       y1="7.7893324"
       x2="22.218424"
       y2="25.884274"
       id="linearGradient3565"
       xlink:href="#linearGradient42174"
       gradientUnits="userSpaceOnUse" />
    <linearGradient
       id="linearGradient2145">
      <stop
         id="stop2147"
         style="stop-color:#fffffd;stop-opacity:1"
         offset="0" />
      <stop
         id="stop2149"
         style="stop-color:#cbcbc9;stop-opacity:1"
         offset="1" />
    </linearGradient>
    <radialGradient
       cx="11.901996"
       cy="10.045444"
       r="29.292715"
       fx="11.901996"
       fy="10.045444"
       id="radialGradient3563"
       xlink:href="#linearGradient2145"
       gradientUnits="userSpaceOnUse" />
    <linearGradient
       id="linearGradient4222">
      <stop
         id="stop4224"
         style="stop-color:white;stop-opacity:1"
         offset="0" />
      <stop
         id="stop4226"
         style="stop-color:white;stop-opacity:0"
         offset="1" />
    </linearGradient>
    <linearGradient
       x1="24.138529"
       y1="-9.8008652"
       x2="24.138529"
       y2="47.272728"
       id="linearGradient5206"
       xlink:href="#linearGradient4222"
       gradientUnits="userSpaceOnUse"
       gradientTransform="matrix(0.5364316,0,0,0.5331957,-15.687737,50.16873)" />
    <linearGradient
       id="linearGradient2264">
      <stop
         id="stop2266"
         style="stop-color:#d7e866;stop-opacity:1"
         offset="0" />
      <stop
         id="stop2268"
         style="stop-color:#8cab2a;stop-opacity:1"
         offset="1" />
    </linearGradient>
    <linearGradient
       x1="24.103895"
       y1="15.168831"
       x2="24.103895"
       y2="32.485161"
       id="linearGradient5204"
       xlink:href="#linearGradient2264"
       gradientUnits="userSpaceOnUse"
       gradientTransform="matrix(0.8930497,0,0,0.8876627,-24.246571,42.1613)" />
    <radialGradient
       id="radialGradient2419"
       cx="62.625"
       cy="4.625"
       r="10.625"
       gradientTransform="matrix(2.1647,0,0,0.75294,-160.55764,30.755856)"
       gradientUnits="userSpaceOnUse">
      <stop
         id="stop8840"
         offset="0" />
      <stop
         id="stop8842"
         style="stop-opacity:0"
         offset="1" />
    </radialGradient>
    <radialGradient
       id="radialGradient2414"
       cx="23.896"
       cy="3.99"
       r="20.396999"
       gradientTransform="matrix(0,2.2875,-3.0194,0,-12.950638,-56.392144)"
       gradientUnits="userSpaceOnUse">
      <stop
         id="stop3244"
         style="stop-color:#f8b17e"
         offset="0" />
      <stop
         id="stop3246"
         style="stop-color:#e35d4f"
         offset=".26238" />
      <stop
         id="stop3248"
         style="stop-color:#c6262e"
         offset=".66094" />
      <stop
         id="stop3250"
         style="stop-color:#690b54"
         offset="1" />
    </radialGradient>
    <linearGradient
       id="linearGradient2416"
       x1="18.379"
       x2="18.379"
       y1="44.98"
       y2="3.0816"
       gradientTransform="matrix(0.95844,0,0,0.95844,-48.000118,-3.7646439)"
       gradientUnits="userSpaceOnUse">
      <stop
         id="stop2492"
         style="stop-color:#791235"
         offset="0" />
      <stop
         id="stop2494"
         style="stop-color:#dd3b27"
         offset="1" />
    </linearGradient>
    <linearGradient
       id="linearGradient2411"
       x1="63.396999"
       x2="63.396999"
       y1="-12.489"
       y2="5.4675999"
       gradientTransform="matrix(2.1154,0,0,2.1153,-156.57764,26.664856)"
       gradientUnits="userSpaceOnUse">
      <stop
         id="stop4875"
         style="stop-color:#fff"
         offset="0" />
      <stop
         id="stop4877"
         style="stop-color:#fff;stop-opacity:0"
         offset="1" />
    </linearGradient>
  </defs>
  <g
     id="layer1">
    <path
       d="m 73.25,4.625 a 10.625,3.625 0 1 1 -21.25,0 10.625,3.625 0 1 1 21.25,0 z"
       transform="matrix(2.149872,0,0,2.5636643,-110.63573,26.84977)"
       id="path8836"
       style="opacity:0.56043958;fill:url(#radialGradient3546);fill-opacity:1;fill-rule:evenodd;stroke:none;stroke-width:0.99999988;marker:none;visibility:visible;display:inline;overflow:visible" />
    <path
       d="m 44.254925,24.386798 c 0,10.989786 -8.909149,19.898833 -19.897424,19.898833 -10.989282,0 -19.897925,-8.909148 -19.897925,-19.898833 0,-10.989282 8.908643,-19.8974244 19.897925,-19.8974244 10.988275,0 19.897424,8.9081424 19.897424,19.8974244 l 0,0 z"
       id="path6495"
       style="fill:url(#linearGradient3571);fill-opacity:1;fill-rule:nonzero;stroke:#333;stroke-width:1;stroke-miterlimit:4;stroke-dasharray:none" />
    <path
       d="m 43.159073,24.38683 c 0,10.384468 -8.41843,18.802802 -18.801469,18.802802 -10.383989,0 -18.801944,-8.41843 -18.801944,-18.802802 0,-10.383988 8.417955,-18.8014688 18.801944,-18.8014688 10.383039,0 18.801469,8.4174808 18.801469,18.8014688 l 0,0 z"
       id="path8655"
       style="opacity:0.4;fill:none;stroke:url(#linearGradient3568);stroke-width:1;stroke-miterlimit:4;stroke-opacity:1;stroke-dasharray:none" />
    <path
       d="m 31.160714,16.910715 a 14.910714,14.910714 0 1 1 -29.8214281,0 14.910714,14.910714 0 1 1 29.8214281,0 z"
       transform="matrix(1.0989743,0,0,1.0990035,6.4989174,5.6021946)"
       id="path35549"
       style="fill:url(#radialGradient3563);fill-opacity:1;fill-rule:evenodd;stroke:url(#linearGradient3565);stroke-width:0.84248883;stroke-linecap:round;stroke-linejoin:bevel;stroke-miterlimit:4;stroke-opacity:1;stroke-dasharray:none;stroke-dashoffset:0" />
    <path
       d="m 10.358832,24.537057 c 2.766321,0 3.11659,-0.07959 3.11659,-0.07959"
       id="path2291"
       style="fill:#616161;fill-opacity:1;fill-rule:evenodd;stroke:#5f5f5f;stroke-width:0.92588592;stroke-linecap:round;stroke-linejoin:miter;stroke-miterlimit:4;stroke-opacity:1;stroke-dasharray:none" />
    <path
       d="m 35.518785,24.537057 c 2.766323,0 3.116593,-0.07959 3.116593,-0.07959"
       id="path2296"
       style="fill:#1f1f1f;fill-opacity:1;fill-rule:evenodd;stroke:#1f1f1f;stroke-width:0.92588592;stroke-linecap:round;stroke-linejoin:miter;stroke-miterlimit:4;stroke-opacity:1;stroke-dasharray:none" />
    <path
       d="m 24.542531,38.01125 c 0,-2.76632 -0.07959,-3.11659 -0.07959,-3.11659"
       id="path2306"
       style="fill:#131313;fill-opacity:1;fill-rule:evenodd;stroke:#121212;stroke-width:0.92588592;stroke-linecap:round;stroke-linejoin:miter;stroke-miterlimit:4;stroke-opacity:1;stroke-dasharray:none" />
    <path
       d="m 24.542531,13.060941 c 0,-2.766358 -0.07959,-3.1166318 -0.07959,-3.1166318"
       id="path2308"
       style="fill:#1f1f1f;fill-opacity:1;fill-rule:evenodd;stroke:#727272;stroke-width:0.92588592;stroke-linecap:round;stroke-linejoin:miter;stroke-miterlimit:4;stroke-opacity:1;stroke-dasharray:none" />
    <g
       transform="matrix(0.5733387,0,0,0.5733387,11.655599,11.154465)"
       id="g2318"
       style="stroke-width:1.61490202;stroke-linecap:round;stroke-miterlimit:4;stroke-dasharray:none">
      <path
         d="M 21.168246,23.652869 40.199004,4.6221125"
         id="path2312"
         style="fill:none;stroke:black;stroke-width:1.61490202;stroke-linecap:round;stroke-linejoin:miter;stroke-miterlimit:4;stroke-opacity:1;stroke-dasharray:none" />
      <path
         d="M 24.25811,23.793317 11.547531,11.082739"
         id="path2314"
         style="fill:none;stroke:black;stroke-width:1.61490202;stroke-linecap:round;stroke-linejoin:miter;stroke-miterlimit:4;stroke-opacity:1;stroke-dasharray:none" />
      <path
         d="M 21.589592,22.66973 43.260774,16.862955"
         id="path2316"
         style="fill:red;fill-rule:evenodd;stroke:red;stroke-width:1.61490202;stroke-linecap:round;stroke-linejoin:miter;stroke-miterlimit:4;stroke-opacity:1;stroke-dasharray:none" />
    </g>
  </g>
  <g
     id="g1"
     transform="matrix(0.45000337,0,0,0.45000337,49.249021,29.34299)">
    <path
       id="path2555"
       d="m -24.997638,-0.2603439 c -10.758,0 -19.498,8.7398 -19.498,19.4979999 0,10.7582 8.7398,19.498 19.498,19.498 10.758,0 19.498,-8.7398 19.498,-19.498 0,-10.7579999 -8.7398,-19.4979999 -19.498,-19.4979999 z"
       style="fill:url(#radialGradient2414);stroke:url(#linearGradient2416);stroke-width:1.0037;stroke-linecap:round;stroke-linejoin:round" />
    <path
       id="path8655-5"
       d="m -6.497638,19.236856 c 0,10.218 -8.2833,18.501 -18.5,18.501 -10.217,0 -18.5,-8.2832 -18.5,-18.501 0,-10.2169999 8.2829,-18.4989999 18.5,-18.4989999 10.216,0 18.5,8.2822 18.5,18.4989999 z"
       style="opacity:0.4;fill:none;stroke:url(#linearGradient2411)" />
    <g
       id="g3243"
       transform="translate(2.077362,-5.1935239)">
      <path
         id="path3295"
         d="m -29.451,12.554 c 0.56298,5.4993 1.2079,10.961 1.6871,16.482 h 1.5294 c 0.39752,-5.3018 1.0387,-10.572 1.5012,-15.867 0.23577,-1.2538 -0.40798,-2.7425 -1.732,-3.0471 -1.3083,-0.38252 -2.7701,0.56471 -2.944,1.9178 -0.02885,0.16985 -0.04172,0.34224 -0.04172,0.51446 h -1e-6 z m -0.16686,22.359 c -0.05953,1.6369 1.7416,2.9201 3.2795,2.4012 1.4895,-0.38015 2.2741,-2.2523 1.5107,-3.5831 -0.68336,-1.3756 -2.6873,-1.8289 -3.84,-0.77606 -0.58269,0.47872 -0.96891,1.1934 -0.95015,1.958 l -1e-6,-1e-6 z"
         style="opacity:0.2" />
      <path
         id="text2315"
         d="m -29.451,13.555 c 0.56298,5.4993 1.2079,10.961 1.6871,16.482 h 1.5294 c 0.39752,-5.3018 1.0387,-10.572 1.5012,-15.867 0.23577,-1.2538 -0.40798,-2.7425 -1.732,-3.0471 -1.3083,-0.38252 -2.7701,0.56471 -2.944,1.9178 -0.02885,0.16985 -0.04172,0.34224 -0.04172,0.51446 h -1e-6 z m -0.16686,22.359 c -0.05953,1.6369 1.7416,2.9201 3.2795,2.4012 1.4895,-0.38015 2.2741,-2.2523 1.5107,-3.5831 -0.68336,-1.3756 -2.6873,-1.8289 -3.84,-0.77606 -0.58269,0.47872 -0.96891,1.1934 -0.95015,1.958 l -1e-6,-10e-7 z"
         style="fill:#ffffff" />
    </g>
  </g>
</svg>
