<?xml version="1.0" encoding="UTF-8" standalone="no"?>
<svg version="1.1" width="24" height="24" id="svg3014" xmlns="http://www.w3.org/2000/svg" xmlns:svg="http://www.w3.org/2000/svg" xmlns:rdf="http://www.w3.org/1999/02/22-rdf-syntax-ns#" xmlns:cc="http://creativecommons.org/ns#" xmlns:dc="http://purl.org/dc/elements/1.1/">
  <defs id="defs3016"/>
  <metadata id="metadata3019">
    <rdf:RDF>
      <cc:Work rdf:about="">
        <dc:format>image/svg+xml</dc:format>
        <dc:type rdf:resource="http://purl.org/dc/dcmitype/StillImage"/>
      </cc:Work>
    </rdf:RDF>
  </metadata>
  <g id="g6656" transform="matrix(1.0909091,0,0,1.4545454,-1.0909091,-4.7878784)">
    <rect width="7.3333335" height="16.5" rx="0.45833334" ry="0.45833334" x="7.875" y="-19.333334" transform="rotate(90)" id="rect3190" style="display:inline;overflow:visible;visibility:visible;opacity:0.4;fill:#dfdbd2;fill-opacity:1;fill-rule:evenodd;stroke:none;stroke-width:1.55833;marker:none;enable-background:accumulate"/>
    <path d="M 2.8333333,6.0416667 C 1.8176667,6.0416667 1,6.8593334 1,7.875 v 7.333333 C 1,16.224 1.8176667,17.041667 2.8333333,17.041667 H 19.333333 c 1.015667,0 1.833334,-0.817667 1.833334,-1.833334 v -0.916666 h 0.3523 C 22.534634,14.291667 23,13.474 23,12.458333 V 10.625 C 23,9.6093334 22.609883,8.7916667 21.594216,8.7916667 H 21.166667 V 7.875 c 0,-1.0156666 -0.817667,-1.8333333 -1.833334,-1.8333333 z m 0,0.9166667 H 19.333333 C 19.841167,6.9583334 20.25,7.3671667 20.25,7.875 v 7.333333 c 0,0.507834 -0.408833,0.916667 -0.916667,0.916667 H 2.8333333 C 2.3255,16.125 1.9166667,15.716167 1.9166667,15.208333 V 7.875 c 0,-0.5078333 0.4088333,-0.9166666 0.9166666,-0.9166666 z m 18.3333337,2.75 c 0.54763,0 0.916666,0.04675 0.916666,0.9166666 v 1.833333 c 0,0.908784 -0.372577,0.916667 -0.916666,0.916667 z" id="rect2401" style="display:inline;overflow:visible;visibility:visible;fill:#dfdbd2;fill-opacity:1;fill-rule:nonzero;stroke:none;stroke-width:0.916667;marker:none;enable-background:accumulate"/>
    <path d="M 17.497972,14.296603 11.081307,7.8799363 V 11.546603 L 5.5813059,8.7966029 12.91464,15.21327 v -2.75 z" id="path3172" style="fill:#dfdbd2;fill-opacity:1;fill-rule:evenodd;stroke:none;stroke-width:0.916667"/>
  </g>
</svg>