<?xml version="1.0" encoding="UTF-8" standalone="no"?>
<!-- Created with Inkscape (http://www.inkscape.org/) -->

<svg
   width="48"
   height="48"
   viewBox="0 0 12.7 12.7"
   version="1.1"
   id="svg715"
   xmlns:xlink="http://www.w3.org/1999/xlink"
   xmlns="http://www.w3.org/2000/svg"
   xmlns:svg="http://www.w3.org/2000/svg">
  <defs
     id="defs712">
    <filter
       color-interpolation-filters="sRGB"
       id="filter6051-1"
       height="2.1323529"
       y="-0.56617646"
       width="1.1799766"
       x="-0.089988312">
      <feGaussianBlur
         id="feGaussianBlur6053-18"
         stdDeviation="1.4154412" />
    </filter>
    <linearGradient
       y2="32.161697"
       x2="40.938126"
       y1="32.161697"
       x1="6.72682"
       gradientTransform="matrix(0.9715125,0,0,1.1298556,-2.814831,-7.9391361)"
       gradientUnits="userSpaceOnUse"
       id="linearGradient6225-62"
       xlink:href="#linearGradient6215-61" />
    <linearGradient
       id="linearGradient6215-61">
      <stop
         style="stop-color:#ead200;stop-opacity:1;"
         offset="0"
         id="stop6217-21" />
      <stop
         id="stop6219-1"
         offset="0.20999999"
         style="stop-color:#fff16a;stop-opacity:1;" />
      <stop
         style="stop-color:#b5a300;stop-opacity:1;"
         offset="0.83999997"
         id="stop6221-3" />
      <stop
         style="stop-color:#e8d000;stop-opacity:1;"
         offset="1"
         id="stop6223-87" />
    </linearGradient>
    <linearGradient
       y2="36.127281"
       x2="30.875446"
       y1="25.002281"
       x1="10.907269"
       gradientTransform="matrix(0.968931,0,0,1.1176137,-2.73812,-6.0950107)"
       gradientUnits="userSpaceOnUse"
       id="linearGradient1575-10"
       xlink:href="#linearGradient9845-1" />
    <linearGradient
       id="linearGradient9845-1">
      <stop
         style="stop-color:#ffffff;stop-opacity:1;"
         offset="0"
         id="stop9847-2" />
      <stop
         style="stop-color:#ffffff;stop-opacity:0.49484536;"
         offset="1.0000000"
         id="stop9849-33" />
    </linearGradient>
    <linearGradient
       gradientTransform="matrix(0.9706798,0,0,1.5,-2.794759,-9.499999)"
       gradientUnits="userSpaceOnUse"
       y2="17"
       x2="24.75"
       y1="21"
       x1="24.875"
       id="linearGradient1591-78"
       xlink:href="#linearGradient5881-76" />
    <linearGradient
       id="linearGradient5881-76">
      <stop
         style="stop-color:#fffac7;stop-opacity:1;"
         offset="0"
         id="stop5883-93" />
      <stop
         id="stop5885-9"
         offset="1"
         style="stop-color:#fff8b2;stop-opacity:1;" />
    </linearGradient>
    <linearGradient
       y2="18.037588"
       x2="21.941509"
       y1="21.550869"
       x1="21.941509"
       gradientTransform="matrix(0.9697914,0,0,0.951923,-2.773435,2.033825)"
       gradientUnits="userSpaceOnUse"
       id="linearGradient1387-4"
       xlink:href="#linearGradient12071-7" />
    <linearGradient
       id="linearGradient12071-7">
      <stop
         style="stop-color:#ffffff;stop-opacity:1;"
         offset="0"
         id="stop12073-6" />
      <stop
         style="stop-color:#ffffff;stop-opacity:0;"
         offset="1"
         id="stop12075-6" />
    </linearGradient>
    <filter
       color-interpolation-filters="sRGB"
       id="filter5957-797"
       height="1.1976471"
       y="-0.098823532"
       width="2.1858824"
       x="-0.59294118">
      <feGaussianBlur
         id="feGaussianBlur5959-5"
         stdDeviation="0.69878785" />
    </filter>
    <radialGradient
       r="3.3125"
       fy="20.3125"
       fx="15.9375"
       cy="20.3125"
       cx="15.9375"
       gradientTransform="matrix(1,0,0,0.5849057,0,8.4316038)"
       gradientUnits="userSpaceOnUse"
       id="radialGradient6085-72"
       xlink:href="#linearGradient6075-1" />
    <linearGradient
       id="linearGradient6075-1">
      <stop
         id="stop6077-86"
         offset="0"
         style="stop-color:#000000;stop-opacity:1;" />
      <stop
         id="stop6079-41"
         offset="1"
         style="stop-color:#000000;stop-opacity:0;" />
    </linearGradient>
    <linearGradient
       gradientTransform="translate(0,-0.5)"
       gradientUnits="userSpaceOnUse"
       y2="20.09375"
       x2="34"
       y1="20.09375"
       x1="17.1875"
       id="linearGradient6095-1"
       xlink:href="#linearGradient6089-20" />
    <linearGradient
       id="linearGradient6089-20">
      <stop
         id="stop6091-24"
         offset="0"
         style="stop-color:#000000;stop-opacity:1;" />
      <stop
         style="stop-color:#000000;stop-opacity:0.17171717;"
         offset="0.5"
         id="stop6097-26" />
      <stop
         id="stop6093-7"
         offset="1"
         style="stop-color:#000000;stop-opacity:1;" />
    </linearGradient>
    <filter
       color-interpolation-filters="sRGB"
       id="filter6171-54"
       height="4.6525176"
       y="-1.8262588"
       width="1.3394533"
       x="-0.16972665">
      <feGaussianBlur
         id="feGaussianBlur6173-6"
         stdDeviation="1.1889706" />
    </filter>
    <linearGradient
       gradientUnits="userSpaceOnUse"
       y2="20.4375"
       x2="38.25"
       y1="20.4375"
       x1="31.375"
       id="linearGradient5759-4"
       xlink:href="#linearGradient6075-1" />
    <linearGradient
       xlink:href="#linearGradient10591-3"
       id="linearGradient1392-1"
       gradientUnits="userSpaceOnUse"
       gradientTransform="translate(0,-1.926279)"
       x1="10.650842"
       y1="2.9136841"
       x2="27.192274"
       y2="17.470011" />
    <linearGradient
       id="linearGradient10591-3">
      <stop
         style="stop-color:#cad0c6;stop-opacity:1.0000000;"
         offset="0.0000000"
         id="stop10593-6" />
      <stop
         id="stop10599-90"
         offset="0.50000000"
         style="stop-color:#eaece9;stop-opacity:1.0000000;" />
      <stop
         style="stop-color:#c5cbc0;stop-opacity:1.0000000;"
         offset="1.0000000"
         id="stop10595-3" />
    </linearGradient>
    <linearGradient
       y2="9.1301517"
       x2="30.279551"
       y1="24.300459"
       x1="35.004684"
       gradientTransform="translate(-19.532826,1.7437184)"
       gradientUnits="userSpaceOnUse"
       id="linearGradient6334-19"
       xlink:href="#linearGradient5310-0" />
    <linearGradient
       id="linearGradient5310-0">
      <stop
         style="stop-color:#000000;stop-opacity:0.59770115"
         offset="0"
         id="stop5312-8" />
      <stop
         style="stop-color:#000000;stop-opacity:0;"
         offset="1"
         id="stop5314-3" />
    </linearGradient>
    <filter
       color-interpolation-filters="sRGB"
       id="filter5306-3"
       height="1.2197038"
       y="-0.10985189"
       width="1.9867587"
       x="-0.49337936">
      <feGaussianBlur
         id="feGaussianBlur5308-9"
         stdDeviation="0.68862765" />
    </filter>
    <linearGradient
       gradientTransform="translate(1.6824037,1.125)"
       gradientUnits="userSpaceOnUse"
       y2="9.5222654"
       x2="39.619183"
       y1="14.00656"
       x1="33.950081"
       id="linearGradient6233-9"
       xlink:href="#linearGradient6075-1" />
    <filter
       color-interpolation-filters="sRGB"
       id="filter6251-3"
       height="1.0911427"
       y="-0.045571364"
       width="1.1334328"
       x="-0.066716423">
      <feGaussianBlur
         id="feGaussianBlur6253-5"
         stdDeviation="0.24444548" />
    </filter>
    <filter
       color-interpolation-filters="sRGB"
       id="filter5246-6"
       x="-0.14453843"
       y="-0.10571929"
       width="1.2890769"
       height="1.2114328">
      <feGaussianBlur
         id="feGaussianBlur5248-5"
         stdDeviation="0.52810278" />
    </filter>
    <radialGradient
       r="3.1819806"
       fy="6.2806997"
       fx="18.031223"
       cy="6.2806997"
       cx="18.031223"
       gradientUnits="userSpaceOnUse"
       id="radialGradient6071-45"
       xlink:href="#linearGradient12071-7" />
    <filter
       color-interpolation-filters="sRGB"
       id="filter6328-4"
       height="1.8178907"
       y="-0.40894535"
       width="1.2059828"
       x="-0.10299138">
      <feGaussianBlur
         id="feGaussianBlur6330-1"
         stdDeviation="0.42546784" />
    </filter>
  </defs>
  <g
     id="layer1" />
  <g
     id="g992"
     transform="matrix(0.26458333,0,0,0.26458333,-183.79798,-13.235806)"
     style="display:inline;enable-background:new">
    <g
       style="display:inline;enable-background:new"
       id="layer1-4"
       transform="translate(695.04568,50.989094)">
      <rect
         transform="matrix(1.0264901,0,0,1,-5.165563,-2)"
         ry="1.9748279"
         rx="3.1708715"
         y="39.75"
         x="6.25"
         height="6"
         width="37.75"
         id="rect5961"
         style="color:#000000;display:inline;overflow:visible;visibility:visible;opacity:0.458824;fill:#000000;fill-opacity:1;fill-rule:evenodd;stroke:none;stroke-width:1;marker:none;filter:url(#filter6051-1);enable-background:accumulate" />
      <path
         id="rect1314"
         d="m 5.671306,15.5 c 9.794546,-1.443399 19.693309,-1.219316 29.654275,0 1.202904,0 2.171306,1.04357 2.171306,2.339844 v 23.320312 c 0,1.296274 -1.030902,2.152344 -2.171306,2.339844 -10.327183,1.208603 -19.18205,1.199062 -29.654275,0 C 4.280902,43.0625 3.5,42.45643 3.5,41.160156 V 17.839844 C 3.5,16.54357 4.468402,15.5 5.671306,15.5 Z"
         style="fill:url(#linearGradient6225-62);fill-opacity:1;fill-rule:evenodd;stroke:#7d6400;stroke-width:1;stroke-linecap:round;stroke-linejoin:round;stroke-miterlimit:4;stroke-dashoffset:0;stroke-opacity:1" />
      <g
         transform="translate(-5,-2)"
         id="g4695">
        <path
           style="color:#000000;display:inline;overflow:visible;visibility:visible;opacity:0.141176;fill:#000000;fill-opacity:1;fill-rule:evenodd;stroke:none;stroke-width:1;marker:none;enable-background:accumulate"
           d="m 41.940271,24.444505 c -0.398206,1.330312 -4.534152,1.670412 -5.302076,1.773431 0,0 -16.308875,0.480472 -16.308875,0.480472 0,0 16.26324,0.159134 16.26324,0.159134 0.825913,-0.09712 5.218651,0.103389 5.4361,-1.70593 z"
           id="path6193" />
        <path
           id="path4678"
           d="m 41.940271,26.444505 c -0.398206,1.330312 -4.534152,1.670412 -5.302076,1.773431 0,0 -19.058875,0.480472 -19.058875,0.480472 0,0 19.01324,0.159134 19.01324,0.159134 0.825913,-0.09712 5.218651,0.103389 5.4361,-1.70593 z"
           style="color:#000000;display:inline;overflow:visible;visibility:visible;opacity:0.141176;fill:#000000;fill-opacity:1;fill-rule:evenodd;stroke:none;stroke-width:1;marker:none;enable-background:accumulate" />
        <path
           style="color:#000000;display:inline;overflow:visible;visibility:visible;opacity:0.141176;fill:#000000;fill-opacity:1;fill-rule:evenodd;stroke:none;stroke-width:1;marker:none;enable-background:accumulate"
           d="m 41.940271,28.444505 c -0.398206,1.330312 -4.534152,1.670412 -5.302076,1.773431 0,0 -16.308875,0.480472 -16.308875,0.480472 0,0 16.26324,0.159134 16.26324,0.159134 0.825913,-0.09712 5.218651,0.103389 5.4361,-1.70593 z"
           id="path4680" />
        <path
           id="path4682"
           d="m 41.940271,30.444505 c -0.398206,1.330312 -4.534152,1.670412 -5.302076,1.773431 0,0 -11.058875,0.480472 -11.058875,0.480472 0,0 11.01324,0.159134 11.01324,0.159134 0.825913,-0.09712 5.218651,0.103389 5.4361,-1.70593 z"
           style="color:#000000;display:inline;overflow:visible;visibility:visible;opacity:0.141176;fill:#000000;fill-opacity:1;fill-rule:evenodd;stroke:none;stroke-width:1;marker:none;enable-background:accumulate" />
        <path
           style="color:#000000;display:inline;overflow:visible;visibility:visible;opacity:0.141176;fill:#000000;fill-opacity:1;fill-rule:evenodd;stroke:none;stroke-width:1;marker:none;enable-background:accumulate"
           d="m 41.940271,32.444505 c -0.398206,1.330312 -4.534152,1.670412 -5.302076,1.773431 0,0 -16.308875,0.480472 -16.308875,0.480472 0,0 16.26324,0.159134 16.26324,0.159134 0.825913,-0.09712 5.218651,0.103389 5.4361,-1.70593 z"
           id="path4684" />
        <path
           id="path4686"
           d="m 41.940271,34.444505 c -0.398206,1.330312 -4.534152,1.670412 -5.302076,1.773431 0,0 -18.746375,0.480472 -18.746375,0.480472 0,0 18.70074,0.159134 18.70074,0.159134 0.825913,-0.09712 5.218651,0.103389 5.4361,-1.70593 z"
           style="color:#000000;display:inline;overflow:visible;visibility:visible;opacity:0.141176;fill:#000000;fill-opacity:1;fill-rule:evenodd;stroke:none;stroke-width:1;marker:none;enable-background:accumulate" />
        <path
           style="color:#000000;display:inline;overflow:visible;visibility:visible;opacity:0.141176;fill:#000000;fill-opacity:1;fill-rule:evenodd;stroke:none;stroke-width:1;marker:none;enable-background:accumulate"
           d="m 41.940271,36.444505 c -0.398206,1.330312 -4.534152,1.670412 -5.302076,1.773431 0,0 -13.996375,0.480472 -13.996375,0.480472 0,0 13.95074,0.159134 13.95074,0.159134 0.825913,-0.09712 5.218651,0.103389 5.4361,-1.70593 z"
           id="path4688" />
        <path
           id="path4690"
           d="m 41.940271,38.444505 c -0.398206,1.330312 -4.534152,1.670412 -5.302076,1.773431 0,0 -8.433875,0.480472 -8.433875,0.480472 0,0 8.38824,0.159134 8.38824,0.159134 0.825913,-0.09712 5.218651,0.103389 5.4361,-1.70593 z"
           style="color:#000000;display:inline;overflow:visible;visibility:visible;opacity:0.141176;fill:#000000;fill-opacity:1;fill-rule:evenodd;stroke:none;stroke-width:1;marker:none;enable-background:accumulate" />
        <path
           style="color:#000000;display:inline;overflow:visible;visibility:visible;opacity:0.141176;fill:#000000;fill-opacity:1;fill-rule:evenodd;stroke:none;stroke-width:1;marker:none;enable-background:accumulate"
           d="m 41.940271,40.444505 c -0.398206,1.330312 -4.534152,1.670412 -5.302076,1.773431 0,0 -16.308875,0.480472 -16.308875,0.480472 0,0 16.26324,0.159134 16.26324,0.159134 0.825913,-0.09712 5.218651,0.103389 5.4361,-1.70593 z"
           id="path4692" />
      </g>
      <path
         id="rect6903"
         d="m 5.749588,16.995361 h 29.504845 c 0.692271,0 1.249588,0.586115 1.249588,1.314159 v 22.876321 c 0,0.728044 -0.494817,1.064159 -1.249588,1.314159 -9.647448,1.203613 -19.169897,1.200821 -29.504845,0 C 5.057316,42.25 4.5,41.913885 4.5,41.185841 V 18.30952 c 0,-0.728044 0.557316,-1.314159 1.249588,-1.314159 z"
         style="fill:none;stroke:url(#linearGradient1575-10);stroke-width:1;stroke-linecap:round;stroke-linejoin:round;stroke-miterlimit:4;stroke-dashoffset:0;stroke-opacity:0.601093" />
      <path
         id="rect1460"
         d="m 5.607725,16 c 9.929221,-1.460747 19.858441,-1.200569 29.787662,0 0.89068,0 1.607726,0.717046 1.607726,1.607725 v 2.78455 C 37.003113,21.282954 36.286067,22 35.395387,22 25.033658,22.6901 15.499962,22.44381 5.607725,22 4.717045,22 4,21.282954 4,20.392275 v -2.78455 C 4,16.717046 4.717045,16 5.607725,16 Z"
         style="color:#000000;display:inline;overflow:visible;visibility:visible;fill:url(#linearGradient1591-78);fill-opacity:1;fill-rule:evenodd;stroke:none;stroke-width:2;marker:none" />
      <path
         id="rect1593"
         d="m 5.663938,18.69248 h 29.675241 c 0.644821,0 1.163938,0.489194 1.163938,1.096848 v 0.662074 c 0,0.607654 -0.519117,1.096848 -1.163938,1.096848 -9.799434,1.200072 -19.70957,1.273512 -29.675241,0 C 5.019116,21.54825 4.5,21.059056 4.5,20.451402 v -0.662074 c 0,-0.607654 0.519116,-1.096848 1.163938,-1.096848 z"
         style="color:#000000;display:inline;overflow:visible;visibility:visible;fill:none;stroke:url(#linearGradient1387-4);stroke-width:1;stroke-linecap:round;stroke-linejoin:round;stroke-miterlimit:4;stroke-dashoffset:0;stroke-opacity:1;marker:none" />
      <rect
         transform="matrix(1.9722718,0,0,1.2416619,-20.56437,-7.8390095)"
         ry="1.6077254"
         rx="1.6077254"
         y="23.226137"
         x="14.594036"
         height="16.970562"
         width="2.8284271"
         id="rect5887"
         style="color:#000000;display:inline;overflow:visible;visibility:visible;opacity:0.294118;fill:#ffffff;fill-opacity:1;fill-rule:evenodd;stroke:none;stroke-width:1;marker:none;filter:url(#filter5957-797);enable-background:accumulate" />
      <ellipse
         style="color:#000000;display:inline;overflow:visible;visibility:visible;opacity:0.626437;fill:url(#radialGradient6085-72);fill-opacity:1;fill-rule:evenodd;stroke:none;stroke-width:1;marker:none;enable-background:accumulate"
         id="path6083"
         transform="matrix(1.7556483,0.0186846,-0.2566879,1.4540468,6.6771103,-11.231651)"
         cx="15.9375"
         cy="20.3125"
         rx="3.3125"
         ry="1.9375" />
      <rect
         transform="matrix(-1,-0.1942467,0,1,63.818732,3.4532897)"
         ry="0.78125"
         rx="0.78125"
         y="18.8125"
         x="17.1875"
         height="1.5625"
         width="16.8125"
         id="rect6087"
         style="color:#000000;display:inline;overflow:visible;visibility:visible;opacity:0.482353;fill:url(#linearGradient6095-1);fill-opacity:1;fill-rule:evenodd;stroke:none;stroke-width:1;marker:none;filter:url(#filter6171-54);enable-background:accumulate" />
      <ellipse
         transform="translate(-24.125,-2)"
         id="path5751"
         style="color:#000000;display:inline;overflow:visible;visibility:visible;opacity:0.547059;fill:url(#linearGradient5759-4);fill-opacity:1;fill-rule:evenodd;stroke:none;stroke-width:2;marker:none;enable-background:accumulate"
         cx="34.8125"
         cy="20.4375"
         rx="3.4375"
         ry="1.5625" />
      <g
         transform="matrix(-0.8575185,-0.1731867,0,1,58.479607,2.1759735)"
         id="g1387">
        <path
           style="fill:url(#linearGradient1392-1);fill-opacity:1;fill-rule:evenodd;stroke:#888a85;stroke-width:1.07989;stroke-linecap:butt;stroke-linejoin:miter;stroke-miterlimit:4;stroke-dasharray:none;stroke-opacity:1"
           d="m 12.743205,25.823932 v -1.630579 l 1.051502,-0.442894 -1.121602,-1.444246 0.0701,-2.217127 c 0,-14.4482086 4.063464,-16.3738539 11.276822,-17.0114055 7.147892,-0.6317654 13.334204,3.4343524 13.334204,11.3970745 v 7.984846 c 0,1.954229 -7.094166,0.987752 -7.094166,-1.215199 v -5.984846 c 0,-3.768804 -0.600196,-6.549514 -4.794912,-6.2839343 -5.792683,0.3667516 -5.878727,6.5362603 -5.878727,14.3115203 v 3.776498 c 0,2.35462 -6.843221,1.138579 -6.843221,-1.239708 z"
           id="path2086" />
        <path
           transform="matrix(-1,0,0,1,28.762476,-5.6647124)"
           style="opacity:0.626437;fill:url(#linearGradient6334-19);fill-opacity:1;fill-rule:evenodd;stroke:none;filter:url(#filter5306-3)"
           d="m 12.122089,14.371007 0.371719,0.169195 c 2.740717,0.378248 2.978049,11.622697 2.978049,11.622697 -0.0625,1.125 -2.03125,3.713231 -2,3.181981 0,0 0.594089,-12.724206 -1.349768,-14.973873 z"
           id="path6332" />
        <path
           transform="matrix(-1,-0.3463734,0,1,67.435126,11.502092)"
           id="rect1345"
           d="m 43.423941,11.814335 c -5.320444,-1.9042839 -6.628941,0.07812 -6.857769,2.98764 0,0 0.120915,7.670507 0.120915,7.670507 -0.0271,1.132158 -2.03125,0.53125 -2,0 0,0 -0.05662,-7.96374 -0.05662,-7.96374 0.04825,-2.956884 2.088243,-6.3093017 8.793474,-2.694407 z"
           style="opacity:0.103448;fill:url(#linearGradient6233-9);fill-opacity:1;fill-rule:evenodd;stroke:none;filter:url(#filter6251-3)" />
      </g>
      <path
         transform="matrix(-1,-0.1942467,0,1,62.318732,2.5782897)"
         id="path5675"
         d="M 18.5,27.169521 19.25,11.915925 C 19.25,3.852052 34.1875,2.6985997 34.1875,14.25 v 7.625"
         style="color:#000000;display:inline;overflow:visible;visibility:visible;fill:none;stroke:#ffffff;stroke-width:2;stroke-linecap:round;stroke-linejoin:miter;stroke-miterlimit:4;stroke-dasharray:none;stroke-dashoffset:0;stroke-opacity:1;marker:none;filter:url(#filter5246-6);enable-background:accumulate" />
      <g
         transform="matrix(-1,-0.01371923,0,1,50.629257,-3.9261026)"
         id="g6067">
        <circle
           style="color:#000000;display:inline;overflow:visible;visibility:visible;fill:url(#radialGradient6071-45);fill-opacity:1;fill-rule:evenodd;stroke:none;stroke-width:1;marker:none;enable-background:accumulate"
           id="path6055"
           cx="18.031223"
           cy="6.2806997"
           r="3.1819806" />
        <circle
           id="path6065"
           style="color:#000000;display:inline;overflow:visible;visibility:visible;fill:#ffffff;fill-opacity:1;fill-rule:evenodd;stroke:none;stroke-width:1;marker:none;enable-background:accumulate"
           transform="matrix(0.4343344,0,0,0.4343344,10.199642,3.5527756)"
           cx="18.031223"
           cy="6.2806997"
           r="3.1819806" />
      </g>
      <path
         transform="matrix(-1,-0.1942467,0,1,61.251892,3.4097128)"
         id="rect6257"
         d="m 21.715689,3.956218 c 2.327745,-1.0520748 5.115615,-1.3035861 7.612892,0 1.605901,0.8382852 1.233389,1.8891372 0,1.5434979 -2.532582,-0.7097188 -5.096484,-0.5199497 -7.612892,0 -1.77916,0.3676169 -1.501589,-0.8648224 0,-1.5434979 z"
         style="color:#000000;display:inline;overflow:visible;visibility:visible;fill:#ffffff;fill-opacity:1;fill-rule:evenodd;stroke:none;stroke-width:1;marker:none;filter:url(#filter6328-4);enable-background:accumulate" />
      <path
         id="path5749"
         d="m 47.288402,24.325633 -3,1 c 0,0 1.375,-1.6875 2.125,-1.9375 0.75,-0.25 0.875,0.9375 0.875,0.9375 z"
         style="color:#000000;display:inline;overflow:visible;visibility:visible;fill:#999b97;fill-opacity:1;fill-rule:evenodd;stroke:none;stroke-width:2;marker:none;enable-background:accumulate" />
    </g>
  </g>
</svg>
