<?xml version="1.0" encoding="UTF-8" standalone="no"?>
<svg
   id="svg3213"
   height="22"
   width="22"
   version="1.0"
   sodipodi:docname="blueman-active.svg"
   inkscape:version="1.2.1 (9c6d41e410, 2022-07-14)"
   xmlns:inkscape="http://www.inkscape.org/namespaces/inkscape"
   xmlns:sodipodi="http://sodipodi.sourceforge.net/DTD/sodipodi-0.dtd"
   xmlns="http://www.w3.org/2000/svg"
   xmlns:svg="http://www.w3.org/2000/svg"
   xmlns:rdf="http://www.w3.org/1999/02/22-rdf-syntax-ns#"
   xmlns:cc="http://creativecommons.org/ns#"
   xmlns:dc="http://purl.org/dc/elements/1.1/">
  <sodipodi:namedview
     id="namedview9"
     pagecolor="#ffffff"
     bordercolor="#666666"
     borderopacity="1.0"
     inkscape:showpageshadow="2"
     inkscape:pageopacity="0.0"
     inkscape:pagecheckerboard="0"
     inkscape:deskcolor="#d1d1d1"
     showgrid="false"
     inkscape:zoom="10.727273"
     inkscape:cx="-7.5974576"
     inkscape:cy="11"
     inkscape:window-width="2496"
     inkscape:window-height="1025"
     inkscape:window-x="64"
     inkscape:window-y="27"
     inkscape:window-maximized="1"
     inkscape:current-layer="svg3213" />
  <metadata
     id="metadata12">
    <rdf:RDF>
      <cc:Work
         rdf:about="">
        <dc:format>image/svg+xml</dc:format>
        <dc:type
           rdf:resource="http://purl.org/dc/dcmitype/StillImage" />
      </cc:Work>
    </rdf:RDF>
  </metadata>
  <defs
     id="defs3215" />
  <g
     id="g853">
    <path
       d="M 7.0753308,18.692713 11.359791,14.121257 3.307285,6.0167448 m -2e-7,7.4139942 L 11.359791,5.3262255 7.0190433,0.86256504"
       id="path3367"
       style="fill:none;stroke:#55d400;stroke-width:1.72513;stroke-linecap:round;stroke-linejoin:round;stroke-miterlimit:4;stroke-dasharray:none;stroke-opacity:1" />
    <path
       d="M 6.7315562,1.0692914 6.8394036,18.370631"
       id="path3590"
       style="fill:#55d400;stroke:#55d400;stroke-width:1.22221px;stroke-linecap:round;stroke-linejoin:miter;stroke-opacity:1" />
    <path
       d="m 15.888665,12.222359 c -1.354204,0 -2.444411,1.113139 -2.444411,2.482604 v 1.184011 c -0.677101,0 -1.222205,0.545104 -1.222205,1.222205 v 3.666616 C 12.222049,21.454897 12.767153,22 13.444254,22 h 4.888821 c 0.677102,0 1.222205,-0.545103 1.222205,-1.222205 v -3.666616 c 0,-0.677101 -0.545103,-1.222205 -1.222205,-1.222205 v -1.184011 c 0,-1.369464 -1.090207,-2.482604 -2.44441,-2.482604 z m 0,1.222205 c 0.677101,0 1.222205,0.540658 1.222205,1.222205 v 1.222205 h -2.444411 v -1.222205 c 0,-0.681547 0.545104,-1.222205 1.222206,-1.222205 z"
       id="rect2822"
       style="display:inline;overflow:visible;visibility:visible;fill:#55d400;fill-opacity:1;fill-rule:nonzero;stroke:none;stroke-width:1.22221;marker:none;enable-background:accumulate" />
  </g>
</svg>
