<?xml version="1.0" encoding="UTF-8" standalone="no"?>
<svg
   xmlns:dc="http://purl.org/dc/elements/1.1/"
   xmlns:cc="http://creativecommons.org/ns#"
   xmlns:rdf="http://www.w3.org/1999/02/22-rdf-syntax-ns#"
   xmlns:svg="http://www.w3.org/2000/svg"
   xmlns="http://www.w3.org/2000/svg"
   id="svg3738"
   height="24"
   width="24"
   version="1.1">
  <metadata
     id="metadata13">
    <rdf:RDF>
      <cc:Work
         rdf:about="">
        <dc:format>image/svg+xml</dc:format>
        <dc:type
           rdf:resource="http://purl.org/dc/dcmitype/StillImage" />
        <dc:title></dc:title>
      </cc:Work>
    </rdf:RDF>
  </metadata>
  <defs
     id="defs3740" />
  <g
     transform="matrix(1.5,0,0,1.5,-5.953875,-6)"
     id="g834">
    <path
       d="m 8.0005,5 c -0.554,0 -1,0.446 -1,1 0,0.554 0.446,1 1,1 h 3.03125 l -0.0625,4 H 6.813 l -1.875,8 v 1 H 19.0005 V 19.0625 L 17.2505,11 h -4.25 v 3 h 2 L 12.03175,17.0625 9.0005,14 h 1.96875 l 0.0625,-3 H 13.0005 V 7 h 3 c 0.554,0 1,-0.446 1,-1 0,-0.554 -0.446,-1 -1,-1 z"
       id="path3712-8"
       style="color:#000000;display:inline;overflow:visible;visibility:visible;opacity:0.3;fill:#000000;fill-opacity:1;fill-rule:evenodd;stroke:none;marker:none;enable-background:accumulate" />
    <path
       d="m 8.0005,4 c -0.554,0 -1,0.446 -1,1 0,0.554 0.446,1 1,1 h 3.03125 l -0.0625,4 H 6.813 l -1.875,8 v 1 H 19.0005 V 18.0625 L 17.2505,10 h -4.25 v 3 h 2 L 12.03175,16.0625 9.0005,13 h 1.96875 l 0.0625,-3 H 13.0005 V 6 h 3 c 0.554,0 1,-0.446 1,-1 0,-0.554 -0.446,-1 -1,-1 z"
       id="path3712"
       style="color:#000000;display:inline;overflow:visible;visibility:visible;fill:#dfdbd2;fill-opacity:1;fill-rule:evenodd;stroke:none;marker:none;enable-background:accumulate" />
  </g>
</svg>
