<?xml version="1.0" encoding="UTF-8" standalone="no"?>
<svg
   version="1.0"
   width="24"
   height="24"
   id="svg3240"
   xmlns:xlink="http://www.w3.org/1999/xlink"
   xmlns="http://www.w3.org/2000/svg"
   xmlns:svg="http://www.w3.org/2000/svg"
   xmlns:rdf="http://www.w3.org/1999/02/22-rdf-syntax-ns#"
   xmlns:cc="http://creativecommons.org/ns#"
   xmlns:dc="http://purl.org/dc/elements/1.1/">
  <metadata
     id="metadata9">
    <rdf:RDF>
      <cc:Work
         rdf:about="">
        <dc:format>image/svg+xml</dc:format>
        <dc:type
           rdf:resource="http://purl.org/dc/dcmitype/StillImage" />
      </cc:Work>
    </rdf:RDF>
  </metadata>
  <defs
     id="defs3242">
    <linearGradient
       xlink:href="#linearGradient929-0"
       id="linearGradient3941-43"
       gradientUnits="userSpaceOnUse"
       gradientTransform="matrix(0.60000002,0,0,0.66666667,-54.4678,7.9349)"
       x1="12.029413"
       y1="25"
       x2="36.608757"
       y2="25" />
    <linearGradient
       id="linearGradient929-0">
      <stop
         id="stop918-8"
         offset="0"
         style="stop-color:#ad5f00;stop-opacity:0" />
      <stop
         style="stop-color:#ad5f00;stop-opacity:1"
         offset="0.08017239"
         id="stop921-3" />
      <stop
         style="stop-color:#ad5f00;stop-opacity:0"
         offset="0.48701805"
         id="stop923-8" />
      <stop
         id="stop925-7"
         offset="0.82605612"
         style="stop-color:#ad5f00;stop-opacity:1" />
      <stop
         id="stop927-3"
         offset="1"
         style="stop-color:#ad5f00;stop-opacity:0" />
    </linearGradient>
    <radialGradient
       gradientTransform="matrix(0.15931399,0,0,0.03982852,24.2707,29.18692)"
       gradientUnits="userSpaceOnUse"
       xlink:href="#linearGradient3820-7-2-1-2-6"
       id="radialGradient5362-98"
       fy="186.17059"
       fx="99.157013"
       r="62.769119"
       cy="186.17059"
       cx="99.157013" />
    <linearGradient
       id="linearGradient3820-7-2-1-2-6">
      <stop
         id="stop3822-2-6-3-3-7"
         style="stop-color:#3d3d3d;stop-opacity:1"
         offset="0" />
      <stop
         id="stop3864-8-7-7-9-1"
         style="stop-color:#686868;stop-opacity:0.49803922"
         offset="0.5" />
      <stop
         id="stop3824-1-2-5-0-3"
         style="stop-color:#686868;stop-opacity:0"
         offset="1" />
    </linearGradient>
    <linearGradient
       gradientTransform="matrix(1,0,0,0.32432432,12.5678,5.66914)"
       xlink:href="#linearGradient899-0"
       id="linearGradient901-85"
       x1="20.038094"
       y1="84.583336"
       x2="43.5"
       y2="84.583336"
       gradientUnits="userSpaceOnUse" />
    <linearGradient
       id="linearGradient899-0">
      <stop
         id="stop895-5"
         offset="0"
         style="stop-color:#ffe16b;stop-opacity:1" />
      <stop
         id="stop897-0"
         offset="1"
         style="stop-color:#d48e15;stop-opacity:1" />
    </linearGradient>
    <linearGradient
       x1="30"
       y1="32.586082"
       x2="30"
       y2="43"
       id="linearGradient4760-7-0"
       xlink:href="#linearGradient4271"
       gradientUnits="userSpaceOnUse"
       gradientTransform="matrix(0.56521739,0,0,0.49999961,26.50258,14.85158)" />
    <linearGradient
       id="linearGradient4271">
      <stop
         offset="0"
         style="stop-color:#ffffff;stop-opacity:1"
         id="stop4273" />
      <stop
         offset="0.2559385"
         style="stop-color:#ffffff;stop-opacity:0.23529412"
         id="stop4275" />
      <stop
         offset="0.90909094"
         style="stop-color:#ffffff;stop-opacity:0.15686275"
         id="stop4277" />
      <stop
         offset="1"
         style="stop-color:#ffffff;stop-opacity:0.39215687"
         id="stop4279" />
    </linearGradient>
    <linearGradient
       spreadMethod="reflect"
       gradientTransform="matrix(0.36855189,0,0,0.13359585,49.71108,23.80085)"
       gradientUnits="userSpaceOnUse"
       xlink:href="#linearGradient5118"
       id="linearGradient5066-8-50"
       y2="-93.091553"
       x2="-45.761551"
       y1="-93.091553"
       x1="-17.12093" />
    <linearGradient
       id="linearGradient5118">
      <stop
         id="stop5120"
         style="stop-color:#9d9d9d;stop-opacity:1"
         offset="0" />
      <stop
         id="stop5122"
         style="stop-color:#ffffff;stop-opacity:1"
         offset="1" />
    </linearGradient>
    <linearGradient
       spreadMethod="reflect"
       gradientTransform="matrix(0.12740271,0,0,0.15113872,43.38705,25.12585)"
       gradientUnits="userSpaceOnUse"
       xlink:href="#linearGradient2793-2-0-669-94-2"
       id="linearGradient3457-7-6-28"
       y2="-93.091553"
       x2="-48.479328"
       y1="-93.091553"
       x1="-20.446733" />
    <linearGradient
       id="linearGradient2793-2-0-669-94-2">
      <stop
         id="stop4681-3-1"
         style="stop-color:#b4b4b4;stop-opacity:1"
         offset="0" />
      <stop
         id="stop4683-67-4"
         style="stop-color:#ffffff;stop-opacity:1"
         offset="1" />
    </linearGradient>
    <linearGradient
       gradientTransform="matrix(0.51999998,0,0,0.64864864,27.5878,8.38535)"
       gradientUnits="userSpaceOnUse"
       xlink:href="#linearGradient4762"
       id="linearGradient4760-79"
       y2="43"
       x2="30"
       y1="7"
       x1="30" />
    <linearGradient
       id="linearGradient4762">
      <stop
         id="stop4764"
         style="stop-color:#ffffff;stop-opacity:1"
         offset="0" />
      <stop
         id="stop4766"
         style="stop-color:#ffffff;stop-opacity:0.23529412"
         offset="0.05034721" />
      <stop
         id="stop4768"
         style="stop-color:#ffffff;stop-opacity:0.15686275"
         offset="0.94965279" />
      <stop
         id="stop4770"
         style="stop-color:#ffffff;stop-opacity:0.39215687"
         offset="1" />
    </linearGradient>
    <linearGradient
       gradientTransform="matrix(0.9777772,0,0,1.3941434,21.69003,-12.46589)"
       gradientUnits="userSpaceOnUse"
       xlink:href="#linearGradient10515"
       id="linearGradient5508-98"
       y2="35.717499"
       x2="17.77273"
       y1="17.458462"
       x1="13.681819" />
    <linearGradient
       id="linearGradient10515">
      <stop
         style="stop-color:#ffffff;stop-opacity:1;"
         offset="0"
         id="stop10517" />
      <stop
         style="stop-color:#ffffff;stop-opacity:0;"
         offset="1"
         id="stop10519" />
    </linearGradient>
    <linearGradient
       gradientTransform="matrix(0.9777772,0,0,1.4146455,18.3567,-13.011)"
       gradientUnits="userSpaceOnUse"
       xlink:href="#linearGradient10515"
       id="linearGradient5510-05"
       y2="35.717499"
       x2="27.31819"
       y1="17.458462"
       x1="25.272734" />
    <radialGradient
       gradientTransform="matrix(0.53450479,0,0,0.5901873,26.83671,8.17786)"
       gradientUnits="userSpaceOnUse"
       xlink:href="#linearGradient10515"
       id="radialGradient5132-20"
       fy="7.5"
       fx="16.5"
       r="3.5"
       cy="7.5"
       cx="16.5" />
  </defs>
  <g
     id="g135162"
     transform="matrix(0.77586207,0,0,0.77586207,-19.087086,-6.311563)">
    <rect
       transform="scale(-1,1)"
       style="color:#000000;font-variation-settings:normal;display:block;overflow:visible;visibility:visible;opacity:0.1;fill:url(#linearGradient3941-43);fill-opacity:1;stroke:none;stroke-width:1;stroke-linecap:butt;stroke-linejoin:miter;stroke-miterlimit:4;stroke-dasharray:none;stroke-dashoffset:0;stroke-opacity:1;marker:none;enable-background:accumulate;stop-color:#000000"
       id="rect3268-4-24"
       y="11.601556"
       x="-47.567772"
       ry="1"
       rx="9"
       height="26"
       width="15" />
    <rect
       style="color:#000000;font-variation-settings:normal;display:inline;overflow:visible;visibility:visible;fill:url(#linearGradient901-85);fill-opacity:1;fill-rule:nonzero;stroke:none;stroke-width:1;stroke-linecap:butt;stroke-linejoin:miter;stroke-miterlimit:4;stroke-dasharray:none;stroke-dashoffset:0;stroke-opacity:1;marker:none;enable-background:accumulate;stop-color:#000000"
       id="rect3268-0-1-7-00"
       y="29.601555"
       x="32.567772"
       ry="1.5000004"
       rx="13.5"
       height="8"
       width="15" />
    <path
       style="color:#000000;display:inline;overflow:visible;visibility:visible;opacity:0.5;fill:none;stroke:#ad5f00;stroke-width:1;stroke-linecap:butt;stroke-linejoin:round;stroke-miterlimit:4;stroke-dasharray:none;stroke-dashoffset:0;stroke-opacity:1;marker:none;enable-background:accumulate"
       id="rect3268-0-8-1"
       d="m 47.5678,30.60157 c 0,-0.554 -3.345,-1 -7.5,-1 -4.155,0 -7.5,0.446 -7.5,1" />
    <path
       style="color:#000000;display:block;overflow:visible;visibility:visible;opacity:0.5;fill:none;stroke:url(#linearGradient4760-7-0);stroke-width:1;stroke-linecap:butt;stroke-linejoin:miter;stroke-miterlimit:7;stroke-dasharray:none;stroke-dashoffset:0;stroke-opacity:1;marker:none;enable-background:accumulate"
       id="path4230-5"
       d="m 40.0678,30.60157 c -1.93864,0 -3.68527,0.0868 -4.92799,0.21875 -0.62136,0.066 -1.12707,0.14229 -1.43071,0.21875 -0.0803,0.0202 -0.0929,0.0299 -0.1413,0.0469 v 5.03125 c 0.0484,0.017 0.061,0.0267 0.1413,0.0469 0.30364,0.0765 0.80935,0.15279 1.43071,0.21875 1.24272,0.13191 2.98935,0.21874 4.92799,0.21874 1.93865,0 3.68527,-0.0868 4.92799,-0.21875 0.62136,-0.066 1.12707,-0.14229 1.43071,-0.21875 0.0803,-0.0202 0.0929,-0.0299 0.1413,-0.0469 v -5.03124 c -0.0484,-0.017 -0.061,-0.0267 -0.1413,-0.0469 -0.30364,-0.0765 -0.80935,-0.15279 -1.43071,-0.21875 -1.24272,-0.13191 -2.98934,-0.21874 -4.92799,-0.21874 z" />
    <path
       style="color:#000000;display:block;overflow:visible;visibility:visible;opacity:0.4;fill:none;stroke:#ffffff;stroke-width:1;stroke-linecap:butt;stroke-linejoin:miter;stroke-miterlimit:7;stroke-dasharray:none;stroke-dashoffset:0;stroke-opacity:1;marker:none;enable-background:accumulate"
       id="rect3268-0-7-1-8"
       d="m 47.24318,31.89194 c -0.92885,0.41152 -3.78441,0.70963 -7.1814,0.70963 -3.3856,0 -6.23341,-0.29612 -7.172,-0.7055" />
    <path
       style="color:#000000;display:inline;overflow:visible;visibility:visible;opacity:0.15;fill:none;stroke:#ad5f00;stroke-width:1;stroke-linecap:butt;stroke-linejoin:round;stroke-miterlimit:4;stroke-dasharray:none;stroke-dashoffset:0;stroke-opacity:1;marker:none;enable-background:accumulate"
       id="rect3268-0-3-0"
       d="m 47.5678,30.60157 c 0,0.554 -3.345,1 -7.5,1 -4.155,0 -7.5,-0.446 -7.5,-1" />
    <path
       style="color:#000000;display:block;overflow:visible;visibility:visible;opacity:0.2;fill:none;stroke:#ffffff;stroke-width:1;stroke-linecap:butt;stroke-linejoin:miter;stroke-miterlimit:7;stroke-dasharray:none;stroke-dashoffset:0;stroke-opacity:1;marker:none;enable-background:accumulate"
       id="rect3268-0-7-8-0"
       d="m 47.24318,30.55861 c -0.92885,0.41152 -3.78441,0.70963 -7.1814,0.70963 -3.3856,0 -6.23341,-0.29612 -7.172,-0.7055" />
    <path
       style="color:#000000;display:inline;overflow:visible;visibility:visible;fill:url(#linearGradient5066-8-50);fill-opacity:1;fill-rule:nonzero;stroke:none;stroke-width:1;marker:none;enable-background:accumulate"
       id="rect3268-6-4-04"
       d="m 40.0678,11.60157 c -4.155,0 -7.5,0.57343 -7.5,1.28571 v 1.71429 c 0,-0.71229 3.345,-1.28571 7.5,-1.28571 4.155,0 7.5,0.57342 7.5,1.28571 v -1.71429 c 0,-0.71228 -3.345,-1.28571 -7.5,-1.28571 z" />
    <path
       style="color:#000000;display:block;overflow:visible;visibility:visible;opacity:0.3;fill:none;stroke:#000000;stroke-width:1;stroke-linecap:butt;stroke-linejoin:miter;stroke-miterlimit:7;stroke-dasharray:none;stroke-dashoffset:0;stroke-opacity:1;marker:none;enable-background:accumulate"
       id="rect3268-6-75"
       d="m 33.00898,14.12759 c 0,-0.56499 3.14823,-1.01983 7.05882,-1.01983 3.91059,0 7.05882,0.45484 7.05882,1.01983" />
    <path
       style="color:#000000;display:inline;overflow:visible;visibility:visible;fill:url(#linearGradient3457-7-6-28);fill-opacity:1;fill-rule:nonzero;stroke:none;stroke-width:1;marker:none;enable-background:accumulate"
       id="rect3268-3-9-3"
       d="m 42.5678,11.60157 v -1.18182 c 0,-0.45464 -1.115,-0.81818 -2.5,-0.81818 -1.385,0 -2.5,0.36354 -2.5,0.81818 v 1.18182" />
    <path
       style="color:#000000;display:block;overflow:visible;visibility:visible;opacity:0.3;fill:none;stroke:#000000;stroke-width:1;stroke-linecap:butt;stroke-linejoin:miter;stroke-miterlimit:7;stroke-dasharray:none;stroke-dashoffset:0;stroke-opacity:1;marker:none;enable-background:accumulate"
       id="rect3268-3-14"
       d="m 42.5678,11.10157 v -0.88636 c 0,-0.34098 -1.115,-0.61364 -2.5,-0.61364 -1.385,0 -2.5,0.27266 -2.5,0.61364 v 0.88636" />
    <path
       style="color:#000000;display:block;overflow:visible;visibility:visible;opacity:0.8;fill:none;stroke:url(#linearGradient4760-79);stroke-width:1;stroke-linecap:butt;stroke-linejoin:miter;stroke-miterlimit:7;stroke-dasharray:none;stroke-dashoffset:0;stroke-opacity:1;marker:none;enable-background:accumulate"
       id="path4752-20"
       d="m 40.0678,12.60157 c -1.92914,0 -3.66741,0.11191 -4.9075,0.28378 -0.62004,0.086 -1.12069,0.18209 -1.43,0.28379 -0.0851,0.028 -0.11086,0.0369 -0.1625,0.0608 v 22.74324 c 0.0516,0.0239 0.0774,0.0328 0.1625,0.0608 0.30931,0.1017 0.80996,0.19785 1.43,0.28379 1.24009,0.17187 2.97836,0.28378 4.9075,0.28378 1.92914,0 3.66741,-0.11191 4.9075,-0.28378 0.62004,-0.0859 1.12069,-0.18209 1.43,-0.28379 0.0851,-0.028 0.11085,-0.0369 0.1625,-0.0608 V 13.22994 c -0.0516,-0.0239 -0.0774,-0.0329 -0.1625,-0.0608 -0.30931,-0.1017 -0.80996,-0.19785 -1.43,-0.28379 -1.24009,-0.17187 -2.97836,-0.28378 -4.9075,-0.28378 z" />
    <path
       id="rect3268-13"
       style="color:#000000;display:block;overflow:visible;visibility:visible;opacity:0.3;fill:none;stroke:#000000;stroke-width:1;stroke-linecap:butt;stroke-linejoin:miter;stroke-miterlimit:7;stroke-dasharray:none;stroke-dashoffset:0;stroke-opacity:1;marker:none;enable-background:accumulate"
       d="m 47.5678,14.10157 v -1.5 c 0,-0.554 -3.345,-1 -7.5,-1 -4.155,0 -7.5,0.446 -7.5,1 v 1.5" />
    <path
       style="display:inline;overflow:visible;visibility:visible;opacity:0.3;fill:url(#linearGradient5508-98);fill-opacity:1;fill-rule:nonzero;stroke:none;stroke-width:1;marker:none;enable-background:new"
       id="path5194-00"
       d="m 39.0678,11.60157 c -2.14179,0.0812 -3.00484,0.24143 -4,0.48148 v 25.03704 c 0.99516,0.24004 1.85821,0.40032 4,0.48148 z" />
    <path
       style="display:inline;overflow:visible;visibility:visible;opacity:0.1;fill:url(#linearGradient5510-05);fill-opacity:1;fill-rule:nonzero;stroke:none;stroke-width:1;marker:none;enable-background:new"
       id="rect3244-48"
       d="m 43.0678,11.60157 v 26 c 0.75778,-0.0841 1.53619,-0.18386 2,-0.29739 V 11.89895 c -0.46381,-0.11352 -1.24222,-0.21333 -2,-0.29738 z" />
    <path
       style="color:#000000;display:inline;overflow:visible;visibility:visible;opacity:0.2;fill:url(#radialGradient5132-20);fill-opacity:1;fill-rule:nonzero;stroke:none;stroke-width:1.37003;marker:none;enable-background:accumulate"
       id="path5124-22"
       d="m 37.5268,12.60427 a 1.8707668,2.0656562 0 1 1 -3.74153,0 1.8707669,2.0656556 0 1 1 3.74153,0 z" />
    <path
       id="rect891"
       style="color:#000000;display:block;overflow:visible;visibility:visible;opacity:0.3;fill:none;stroke:#ad5f00;stroke-width:1;stroke-linecap:butt;stroke-linejoin:miter;stroke-miterlimit:7;stroke-dasharray:none;stroke-dashoffset:0;stroke-opacity:1;marker:none;enable-background:accumulate"
       d="m 32.5678,14.10157 v 22.5 c 0,0.554 3.345,1 7.5,1 4.155,0 7.5,-0.446 7.5,-1 v -22.5" />
  </g>
</svg>
