<?xml version="1.0" encoding="UTF-8" standalone="no"?>
<svg
   version="1.1"
   width="24"
   height="24"
   id="svg3014"
   xmlns:xlink="http://www.w3.org/1999/xlink"
   xmlns="http://www.w3.org/2000/svg"
   xmlns:svg="http://www.w3.org/2000/svg"
   xmlns:rdf="http://www.w3.org/1999/02/22-rdf-syntax-ns#"
   xmlns:cc="http://creativecommons.org/ns#"
   xmlns:dc="http://purl.org/dc/elements/1.1/">
  <defs
     id="defs3016">
    <linearGradient
       y2="25"
       x2="36.608757"
       y1="25"
       x1="12.029413"
       gradientTransform="matrix(0.60000002,0,0,0.66666667,-59.95932,16.07049)"
       gradientUnits="userSpaceOnUse"
       id="linearGradient3941"
       xlink:href="#linearGradient914" />
    <linearGradient
       id="linearGradient914">
      <stop
         id="stop904"
         offset="0"
         style="stop-color:#002e99;stop-opacity:0" />
      <stop
         style="stop-color:#002e99;stop-opacity:1"
         offset="0.06865654"
         id="stop906" />
      <stop
         style="stop-color:#002e99;stop-opacity:0"
         offset="0.5"
         id="stop908" />
      <stop
         id="stop910"
         offset="0.82605612"
         style="stop-color:#002e99;stop-opacity:1" />
      <stop
         id="stop912"
         offset="1"
         style="stop-color:#002e99;stop-opacity:0" />
    </linearGradient>
    <radialGradient
       cx="99.157013"
       cy="186.17059"
       r="62.769119"
       fx="99.157013"
       fy="186.17059"
       id="radialGradient5362"
       xlink:href="#linearGradient3820-7-2-1-2-6"
       gradientUnits="userSpaceOnUse"
       gradientTransform="matrix(0.15931399,0,0,0.03982852,29.76222,37.32251)" />
    <linearGradient
       id="linearGradient3820-7-2-1-2-6">
      <stop
         id="stop3822-2-6-3-3-7"
         style="stop-color:#3d3d3d;stop-opacity:1"
         offset="0" />
      <stop
         id="stop3864-8-7-7-9-1"
         style="stop-color:#686868;stop-opacity:0.49803922"
         offset="0.5" />
      <stop
         id="stop3824-1-2-5-0-3"
         style="stop-color:#686868;stop-opacity:0"
         offset="1" />
    </linearGradient>
    <linearGradient
       gradientUnits="userSpaceOnUse"
       y2="33.5"
       x2="43.473835"
       y1="33.5"
       x1="28.593813"
       id="linearGradient901"
       xlink:href="#linearGradient899"
       gradientTransform="translate(9.55932,3.73716)" />
    <linearGradient
       id="linearGradient899">
      <stop
         id="stop895"
         offset="0"
         style="stop-color:#64baff;stop-opacity:1" />
      <stop
         id="stop897"
         offset="1"
         style="stop-color:#3689e6;stop-opacity:1" />
    </linearGradient>
    <linearGradient
       x1="-17.12093"
       y1="-93.091553"
       x2="-45.761551"
       y2="-93.091553"
       id="linearGradient5066-8"
       xlink:href="#linearGradient5118"
       gradientUnits="userSpaceOnUse"
       gradientTransform="matrix(0.36855189,0,0,0.13359585,55.2026,31.93644)"
       spreadMethod="reflect" />
    <linearGradient
       id="linearGradient5118">
      <stop
         id="stop5120"
         style="stop-color:#9d9d9d;stop-opacity:1"
         offset="0" />
      <stop
         id="stop5122"
         style="stop-color:#ffffff;stop-opacity:1"
         offset="1" />
    </linearGradient>
    <linearGradient
       x1="-20.446733"
       y1="-93.091553"
       x2="-48.479328"
       y2="-93.091553"
       id="linearGradient3457-7-6"
       xlink:href="#linearGradient2793-2-0-669-94-2"
       gradientUnits="userSpaceOnUse"
       gradientTransform="matrix(0.12740271,0,0,0.15113872,48.87857,33.26144)"
       spreadMethod="reflect" />
    <linearGradient
       id="linearGradient2793-2-0-669-94-2">
      <stop
         id="stop4681-3-1"
         style="stop-color:#b4b4b4;stop-opacity:1"
         offset="0" />
      <stop
         id="stop4683-67-4"
         style="stop-color:#ffffff;stop-opacity:1"
         offset="1" />
    </linearGradient>
    <linearGradient
       x1="13.681819"
       y1="17.458462"
       x2="17.77273"
       y2="35.717499"
       id="linearGradient5508"
       xlink:href="#linearGradient10515"
       gradientUnits="userSpaceOnUse"
       gradientTransform="matrix(0.9777772,0,0,1.3941434,27.18155,-4.3303)" />
    <linearGradient
       id="linearGradient10515">
      <stop
         style="stop-color:#ffffff;stop-opacity:1;"
         offset="0"
         id="stop10517" />
      <stop
         style="stop-color:#ffffff;stop-opacity:0;"
         offset="1"
         id="stop10519" />
    </linearGradient>
    <linearGradient
       x1="25.272734"
       y1="17.458462"
       x2="27.31819"
       y2="35.717499"
       id="linearGradient5510"
       xlink:href="#linearGradient10515"
       gradientUnits="userSpaceOnUse"
       gradientTransform="matrix(0.9777772,0,0,1.4146455,23.84822,-4.87541)" />
    <radialGradient
       cx="16.5"
       cy="7.5"
       r="3.5"
       fx="16.5"
       fy="7.5"
       id="radialGradient5132"
       xlink:href="#linearGradient10515"
       gradientUnits="userSpaceOnUse"
       gradientTransform="matrix(0.53450479,0,0,0.5901873,32.32823,16.31345)" />
    <linearGradient
       x1="30"
       y1="7"
       x2="30"
       y2="43"
       id="linearGradient4760"
       xlink:href="#linearGradient4762"
       gradientUnits="userSpaceOnUse"
       gradientTransform="matrix(0.51999998,0,0,0.64864864,33.07932,16.52094)" />
    <linearGradient
       id="linearGradient4762">
      <stop
         id="stop4764"
         style="stop-color:#ffffff;stop-opacity:1"
         offset="0" />
      <stop
         id="stop4766"
         style="stop-color:#ffffff;stop-opacity:0.23529412"
         offset="0.05034721" />
      <stop
         id="stop4768"
         style="stop-color:#ffffff;stop-opacity:0.15686275"
         offset="0.94965279" />
      <stop
         id="stop4770"
         style="stop-color:#ffffff;stop-opacity:0.39215687"
         offset="1" />
    </linearGradient>
  </defs>
  <metadata
     id="metadata3019">
    <rdf:RDF>
      <cc:Work
         rdf:about="">
        <dc:format>image/svg+xml</dc:format>
        <dc:type
           rdf:resource="http://purl.org/dc/dcmitype/StillImage" />
      </cc:Work>
    </rdf:RDF>
  </metadata>
  <g
     id="g132438"
     transform="matrix(0.77586207,0,0,0.77586207,-23.347748,-12.623659)">
    <rect
       width="15"
       height="26"
       rx="9"
       ry="1"
       x="-53.059284"
       y="19.737183"
       id="rect3268-4"
       style="color:#000000;font-variation-settings:normal;display:block;overflow:visible;visibility:visible;opacity:0.1;fill:url(#linearGradient3941);fill-opacity:1;stroke:none;stroke-width:1;stroke-linecap:butt;stroke-linejoin:miter;stroke-miterlimit:4;stroke-dasharray:none;stroke-dashoffset:0;stroke-opacity:1;marker:none;enable-background:accumulate;stop-color:#000000"
       transform="scale(-1,1)" />
    <path
       style="color:#000000;font-variation-settings:normal;display:inline;overflow:visible;visibility:visible;fill:url(#linearGradient901);fill-opacity:1;fill-rule:nonzero;stroke:none;stroke-width:1;stroke-linecap:butt;stroke-linejoin:miter;stroke-miterlimit:4;stroke-dasharray:none;stroke-dashoffset:0;stroke-opacity:1;marker:none;enable-background:accumulate;stop-color:#000000"
       id="rect3268-0-1-2"
       d="m 38.05932,32.73716 v 12 c 0,0.554 3.345,1 7.5,1 4.155,0 7.5,-0.446 7.5,-1 v -12 z" />
    <path
       style="color:#000000;display:block;overflow:visible;visibility:visible;opacity:0.2;fill:none;stroke:#ffffff;stroke-width:1;stroke-linecap:butt;stroke-linejoin:miter;stroke-miterlimit:7;stroke-dasharray:none;stroke-dashoffset:0;stroke-opacity:1;marker:none;enable-background:accumulate"
       id="path3077-3"
       d="m 39.05932,33.73716 h 13" />
    <path
       d="m 45.55932,19.73716 c -4.155,0 -7.5,0.57343 -7.5,1.28571 v 1.71429 c 0,-0.71229 3.345,-1.28571 7.5,-1.28571 4.155,0 7.5,0.57342 7.5,1.28571 v -1.71429 c 0,-0.71228 -3.345,-1.28571 -7.5,-1.28571 z"
       id="rect3268-6-4"
       style="color:#000000;display:inline;overflow:visible;visibility:visible;fill:url(#linearGradient5066-8);fill-opacity:1;fill-rule:nonzero;stroke:none;stroke-width:1;marker:none;enable-background:accumulate" />
    <path
       d="m 38.5005,22.26318 c 0,-0.56499 3.14823,-1.01983 7.05882,-1.01983 3.91059,0 7.05882,0.45484 7.05882,1.01983"
       id="rect3268-6"
       style="color:#000000;display:block;overflow:visible;visibility:visible;opacity:0.3;fill:none;stroke:#000000;stroke-width:1;stroke-linecap:butt;stroke-linejoin:miter;stroke-miterlimit:7;stroke-dasharray:none;stroke-dashoffset:0;stroke-opacity:1;marker:none;enable-background:accumulate" />
    <path
       d="m 48.05932,19.73716 v -1.18182 c 0,-0.45464 -1.115,-0.81818 -2.5,-0.81818 -1.385,0 -2.5,0.36354 -2.5,0.81818 v 1.18182"
       id="rect3268-3-9"
       style="color:#000000;display:inline;overflow:visible;visibility:visible;fill:url(#linearGradient3457-7-6);fill-opacity:1;fill-rule:nonzero;stroke:none;stroke-width:1;marker:none;enable-background:accumulate" />
    <path
       d="M 48.05932,19.23716 V 18.3508 c 0,-0.34098 -1.115,-0.61364 -2.5,-0.61364 -1.385,0 -2.5,0.27266 -2.5,0.61364 v 0.88636"
       id="rect3268-3"
       style="color:#000000;display:block;overflow:visible;visibility:visible;opacity:0.3;fill:none;stroke:#000000;stroke-width:1;stroke-linecap:butt;stroke-linejoin:miter;stroke-miterlimit:7;stroke-dasharray:none;stroke-dashoffset:0;stroke-opacity:1;marker:none;enable-background:accumulate" />
    <path
       id="rect3268"
       style="color:#000000;display:block;overflow:visible;visibility:visible;opacity:0.3;fill:none;stroke:#000000;stroke-width:1;stroke-linecap:butt;stroke-linejoin:miter;stroke-miterlimit:7;stroke-dasharray:none;stroke-dashoffset:0;stroke-opacity:1;marker:none;enable-background:accumulate"
       d="m 53.05932,22.23716 v -1.5 c 0,-0.554 -3.345,-1 -7.5,-1 -4.155,0 -7.5,0.446 -7.5,1 v 1.5" />
    <path
       d="m 44.55932,19.73716 c -2.14179,0.0812 -3.00484,0.24143 -4,0.48148 v 25.03704 c 0.99516,0.24005 1.85821,0.40032 4,0.48148 z"
       id="path5194"
       style="display:inline;overflow:visible;visibility:visible;opacity:0.3;fill:url(#linearGradient5508);fill-opacity:1;fill-rule:nonzero;stroke:none;stroke-width:1;marker:none;enable-background:new" />
    <path
       d="m 48.55932,19.73716 v 26 c 0.75778,-0.0841 1.53619,-0.18386 2,-0.29739 V 20.03454 c -0.46381,-0.11352 -1.24222,-0.21333 -2,-0.29738 z"
       id="rect3244"
       style="display:inline;overflow:visible;visibility:visible;opacity:0.1;fill:url(#linearGradient5510);fill-opacity:1;fill-rule:nonzero;stroke:none;stroke-width:1;marker:none;enable-background:new" />
    <path
       d="m 43.01832,20.73986 a 1.8707668,2.0656562 0 1 1 -3.74153,0 1.8707669,2.0656556 0 1 1 3.74153,0 z"
       id="path5124"
       style="color:#000000;display:inline;overflow:visible;visibility:visible;opacity:0.2;fill:url(#radialGradient5132);fill-opacity:1;fill-rule:nonzero;stroke:none;stroke-width:1.37003;marker:none;enable-background:accumulate" />
    <path
       id="rect928"
       style="color:#000000;display:block;overflow:visible;visibility:visible;opacity:0.5;fill:none;stroke:#0d52bf;stroke-width:1;stroke-linecap:butt;stroke-linejoin:miter;stroke-miterlimit:7;stroke-dasharray:none;stroke-dashoffset:0;stroke-opacity:1;marker:none;enable-background:accumulate"
       d="m 38.05932,22.23716 v 22.5 c 0,0.554 3.345,1 7.5,1 4.155,0 7.5,-0.446 7.5,-1 v -22.5" />
    <path
       id="path54"
       style="font-variation-settings:normal;display:inline;opacity:0.95;fill:#0d52bf;fill-opacity:1;stroke:none;stroke-width:1;stroke-linecap:butt;stroke-linejoin:miter;stroke-miterlimit:4;stroke-dasharray:none;stroke-dashoffset:0;stroke-opacity:1;marker:none;enable-background:new;stop-color:#000000"
       d="m 40.71166,32.73716 -1.05859,1.49414 c -0.0592,0.0996 -0.0937,0.21556 -0.0937,0.33984 0,0.36819 0.29782,0.66602 0.66602,0.66602 h 5.33398 l -0.94336,4.40039 c -0.0357,0.0817 -0.0566,0.17079 -0.0566,0.26563 0,0.36819 0.29783,0.66796 0.66602,0.66796 0.19896,0 0.37785,-0.0883 0.5,-0.22656 l 5.39062,-7.60742 z" />
    <path
       id="path54-36"
       style="font-variation-settings:normal;display:inline;fill:#7f7f7f;fill-opacity:1;stroke:none;stroke-width:1;stroke-linecap:butt;stroke-linejoin:miter;stroke-miterlimit:4;stroke-dasharray:none;stroke-dashoffset:0;stroke-opacity:1;marker:none;enable-background:new;stop-color:#000000"
       d="m 45.8933,25.90318 c -0.19895,0 -0.37785,0.0883 -0.5,0.22656 l -4.68164,6.60742 h 10.4043 l 0.34961,-0.49414 c 0.0592,-0.0996 0.0937,-0.21556 0.0937,-0.33984 0,-0.36819 -0.29782,-0.66602 -0.66602,-0.66602 h -5.33398 l 0.94336,-4.40039 c 0.0357,-0.0817 0.0566,-0.17079 0.0566,-0.26563 0,-0.36819 -0.29783,-0.66796 -0.66602,-0.66796 z" />
    <path
       style="color:#000000;display:inline;overflow:visible;visibility:visible;opacity:0.5;fill:none;fill-opacity:0;fill-rule:nonzero;stroke:#0d52bf;stroke-width:1;stroke-linecap:butt;stroke-linejoin:round;stroke-miterlimit:4;stroke-dasharray:none;stroke-dashoffset:0;stroke-opacity:1;marker:none;enable-background:accumulate"
       id="path3077"
       d="m 38.05932,32.73716 h 15" />
    <path
       d="m 45.55932,20.73716 c -1.92914,0 -3.66741,0.11191 -4.9075,0.28378 -0.62004,0.086 -1.12069,0.18209 -1.43,0.28379 -0.0851,0.028 -0.11086,0.0369 -0.1625,0.0608 v 22.74324 c 0.0516,0.0239 0.0774,0.0328 0.1625,0.0608 0.30931,0.1017 0.80996,0.19785 1.43,0.28379 1.24009,0.17187 2.97836,0.28378 4.9075,0.28378 1.92914,0 3.66741,-0.11191 4.9075,-0.28378 0.62004,-0.0859 1.12069,-0.18209 1.43,-0.28379 0.0851,-0.028 0.11085,-0.0369 0.1625,-0.0608 V 21.36553 c -0.0516,-0.0239 -0.0774,-0.0329 -0.1625,-0.0608 -0.30931,-0.1017 -0.80996,-0.19785 -1.43,-0.28379 -1.24009,-0.17187 -2.97836,-0.28378 -4.9075,-0.28378 z"
       id="path4752"
       style="color:#000000;display:block;overflow:visible;visibility:visible;opacity:0.8;fill:none;stroke:url(#linearGradient4760);stroke-width:1;stroke-linecap:butt;stroke-linejoin:miter;stroke-miterlimit:7;stroke-dasharray:none;stroke-dashoffset:0;stroke-opacity:1;marker:none;enable-background:accumulate" />
  </g>
</svg>
