<?xml version="1.0" encoding="UTF-8" standalone="no"?>
<!-- Created with Inkscape (http://www.inkscape.org/) -->

<svg
   id="svg11300"
   width="24"
   height="24"
   version="1.0"
   xmlns:xlink="http://www.w3.org/1999/xlink"
   xmlns="http://www.w3.org/2000/svg"
   xmlns:svg="http://www.w3.org/2000/svg">
  <defs
     id="defs3">
    <linearGradient
       id="linearGradient3028">
      <stop
         id="stop3030"
         offset="0" />
      <stop
         id="stop3032"
         style="stop-opacity:0"
         offset="1" />
    </linearGradient>
    <linearGradient
       id="linearGradient5536"
       x1="-104.53"
       x2="-104.76"
       y1="74.239998"
       y2="84.220001"
       gradientTransform="matrix(0.18399,0,0,0.26054,29.318,-22.63305)"
       gradientUnits="userSpaceOnUse">
      <stop
         id="stop6546"
         style="stop-color:#ebebeb"
         offset="0" />
      <stop
         id="stop6548"
         style="stop-color:#b4b4b4"
         offset="1" />
    </linearGradient>
    <linearGradient
       id="linearGradient5538"
       x1="15.114"
       x2="15.031"
       y1="18"
       y2="40"
       gradientTransform="matrix(0.48936,0,0,0.61905,0.25528,-25.45265)"
       gradientUnits="userSpaceOnUse">
      <stop
         id="stop7605"
         style="stop-color:#b4b4b4"
         offset="0" />
      <stop
         id="stop7607"
         style="stop-color:#8c8c8c"
         offset="1" />
    </linearGradient>
    <radialGradient
       id="radialGradient5544"
       cx="3"
       cy="33.214001"
       r="3"
       gradientTransform="matrix(0,-0.75,1.3333,0,-40.286,35)"
       gradientUnits="userSpaceOnUse"
       xlink:href="#linearGradient3028" />
    <radialGradient
       id="radialGradient5546"
       cx="3"
       cy="33.214001"
       r="3"
       gradientTransform="matrix(0,-0.75,1.3333,0,-88.286,-30.5)"
       gradientUnits="userSpaceOnUse"
       xlink:href="#linearGradient3028" />
    <linearGradient
       id="linearGradient5548"
       x1="37.030998"
       x2="37.030998"
       y1="35.063"
       y2="29.995001"
       gradientTransform="matrix(1,0,0,0.88889,0,3.8333)"
       gradientUnits="userSpaceOnUse">
      <stop
         id="stop3044"
         style="stop-opacity:0"
         offset="0" />
      <stop
         id="stop3050"
         offset=".5" />
      <stop
         id="stop3046"
         style="stop-opacity:0"
         offset="1" />
    </linearGradient>
    <radialGradient
       id="radialGradient5893"
       cx="12"
       cy="13"
       r="10"
       gradientTransform="matrix(0,1.5,-0.8,0,18.90015,-6)"
       gradientUnits="userSpaceOnUse">
      <stop
         id="stop3909"
         style="stop-color:#fff;stop-opacity:.70588"
         offset="0" />
      <stop
         id="stop3911"
         style="stop-color:#fff;stop-opacity:.23529"
         offset="1" />
    </radialGradient>
    <linearGradient
       id="linearGradient5580"
       x1="13"
       x2="16"
       y1="2"
       y2="16"
       gradientUnits="userSpaceOnUse"
       gradientTransform="rotate(90,10.750075,10.750075)">
      <stop
         id="stop4576"
         style="stop-color:#282828"
         offset="0" />
      <stop
         id="stop4578"
         style="stop-color:#5a5c58"
         offset="1" />
    </linearGradient>
    <linearGradient
       id="linearGradient9116">
      <stop
         style="stop-color:#000000;stop-opacity:1;"
         offset="0"
         id="stop9118" />
      <stop
         id="stop9124"
         offset="0.7857551"
         style="stop-color:#000000;stop-opacity:0.49803922;" />
      <stop
         style="stop-color:#000000;stop-opacity:0;"
         offset="1"
         id="stop9120" />
    </linearGradient>
    <linearGradient
       id="linearGradient9736">
      <stop
         style="stop-color:#000000;stop-opacity:0.498"
         offset="0"
         id="stop9738" />
      <stop
         id="stop9740"
         offset="0.65400881"
         style="stop-color:#000000;stop-opacity:0" />
      <stop
         style="stop-color:#000000;stop-opacity:0.498"
         offset="1"
         id="stop9742" />
    </linearGradient>
    <radialGradient
       xlink:href="#linearGradient9116"
       id="radialGradient20398"
       gradientUnits="userSpaceOnUse"
       gradientTransform="matrix(1,0,0,0.3779528,0,40.122047)"
       cx="-135.75"
       cy="64.5"
       fx="-135.75"
       fy="64.5"
       r="31.75" />
    <linearGradient
       id="linearGradient10898-5">
      <stop
         id="stop10900-3"
         offset="0"
         style="stop-color:#73d216;stop-opacity:1" />
      <stop
         style="stop-color:#8ae234;stop-opacity:1"
         offset="0.37205976"
         id="stop10902-79" />
      <stop
         style="stop-color:#4e9a06;stop-opacity:1"
         offset="0.74411952"
         id="stop10904-2" />
      <stop
         id="stop10906-2"
         offset="1"
         style="stop-color:#73d216;stop-opacity:1" />
    </linearGradient>
    <radialGradient
       xlink:href="#linearGradient9116"
       id="radialGradient23438"
       gradientUnits="userSpaceOnUse"
       gradientTransform="matrix(1,0,0,0.3779528,0,40.122047)"
       cx="-135.75"
       cy="64.5"
       fx="-135.75"
       fy="64.5"
       r="31.75" />
    <radialGradient
       xlink:href="#linearGradient9116"
       id="radialGradient35131"
       gradientUnits="userSpaceOnUse"
       gradientTransform="matrix(1,0,0,0.3779528,0,40.122047)"
       cx="-135.75"
       cy="64.5"
       fx="-135.75"
       fy="64.5"
       r="31.75" />
    <radialGradient
       xlink:href="#linearGradient9116"
       id="radialGradient36602"
       gradientUnits="userSpaceOnUse"
       gradientTransform="matrix(1,0,0,0.3779528,0,40.122047)"
       cx="-135.75"
       cy="64.5"
       fx="-135.75"
       fy="64.5"
       r="31.75" />
    <radialGradient
       id="radialGradient5544-1"
       cx="3"
       cy="33.214001"
       r="3"
       gradientTransform="matrix(0,-0.75,1.3333,0,-40.286,35)"
       gradientUnits="userSpaceOnUse"
       xlink:href="#linearGradient3028" />
    <radialGradient
       id="radialGradient5546-0"
       cx="3"
       cy="33.214001"
       r="3"
       gradientTransform="matrix(0,-0.75,1.3333,0,-88.286,-30.5)"
       gradientUnits="userSpaceOnUse"
       xlink:href="#linearGradient3028" />
    <linearGradient
       id="linearGradient5536-7"
       x1="-104.53"
       x2="-104.76"
       y1="74.239998"
       y2="84.220001"
       gradientTransform="matrix(0.18399,0,0,0.26054,29.31804,-21.132859)"
       gradientUnits="userSpaceOnUse">
      <stop
         id="stop6546-6"
         style="stop-color:#ebebeb"
         offset="0" />
      <stop
         id="stop6548-9"
         style="stop-color:#b4b4b4"
         offset="1" />
    </linearGradient>
    <linearGradient
       id="linearGradient5538-1"
       x1="15.114"
       x2="15.031"
       y1="18"
       y2="40"
       gradientTransform="matrix(0.48936,0,0,0.61905,0.25531999,-23.952459)"
       gradientUnits="userSpaceOnUse">
      <stop
         id="stop7605-9"
         style="stop-color:#b4b4b4"
         offset="0" />
      <stop
         id="stop7607-8"
         style="stop-color:#8c8c8c"
         offset="1" />
    </linearGradient>
    <linearGradient
       id="linearGradient5580-7"
       x1="13"
       x2="16"
       y1="2"
       y2="16"
       gradientUnits="userSpaceOnUse"
       gradientTransform="rotate(90,9.9999599,9.9999998)">
      <stop
         id="stop4576-6"
         style="stop-color:#282828"
         offset="0" />
      <stop
         id="stop4578-5"
         style="stop-color:#5a5c58"
         offset="1" />
    </linearGradient>
    <radialGradient
       id="radialGradient5893-1"
       cx="12"
       cy="13"
       r="10"
       gradientTransform="matrix(0,1.5,-0.8,0,17.399959,-5.99996)"
       gradientUnits="userSpaceOnUse">
      <stop
         id="stop3909-1"
         style="stop-color:#fff;stop-opacity:.70588"
         offset="0" />
      <stop
         id="stop3911-4"
         style="stop-color:#fff;stop-opacity:.23529"
         offset="1" />
    </radialGradient>
    <linearGradient
       y2="25"
       x2="36.608757"
       y1="25"
       x1="12.029413"
       gradientTransform="matrix(-0.60000002,0,0,0.66666667,47.8133,-8.8632)"
       gradientUnits="userSpaceOnUse"
       id="linearGradient3941-27"
       xlink:href="#linearGradient971" />
    <linearGradient
       id="linearGradient971">
      <stop
         style="stop-color:#7a0000;stop-opacity:0"
         offset="0"
         id="stop961" />
      <stop
         id="stop963"
         offset="0.06865654"
         style="stop-color:#7a0000;stop-opacity:1" />
      <stop
         id="stop965"
         offset="0.5"
         style="stop-color:#7a0000;stop-opacity:0" />
      <stop
         style="stop-color:#7a0000;stop-opacity:1"
         offset="0.82605612"
         id="stop967" />
      <stop
         style="stop-color:#7a0000;stop-opacity:0"
         offset="1"
         id="stop969" />
    </linearGradient>
    <radialGradient
       cx="99.157013"
       cy="186.17059"
       r="62.769119"
       fx="99.157013"
       fy="186.17059"
       id="radialGradient5362-9"
       xlink:href="#linearGradient3820-7-2-1-2-6"
       gradientUnits="userSpaceOnUse"
       gradientTransform="matrix(0.15931399,0,0,0.03982852,17.6162,12.38882)" />
    <linearGradient
       id="linearGradient3820-7-2-1-2-6">
      <stop
         id="stop3822-2-6-3-3-7"
         style="stop-color:#3d3d3d;stop-opacity:1"
         offset="0" />
      <stop
         id="stop3864-8-7-7-9-1"
         style="stop-color:#686868;stop-opacity:0.49803922"
         offset="0.5" />
      <stop
         id="stop3824-1-2-5-0-3"
         style="stop-color:#686868;stop-opacity:0"
         offset="1" />
    </linearGradient>
    <linearGradient
       x1="20.4"
       y1="14.64286"
       x2="20.4"
       y2="58.07143"
       id="linearGradient4393-0"
       xlink:href="#linearGradient3242-4-2"
       gradientUnits="userSpaceOnUse"
       gradientTransform="matrix(0.55555556,0,0,0.18421053,20.07997,12.6061)" />
    <linearGradient
       id="linearGradient3242-4-2">
      <stop
         id="stop3244-8-8"
         style="stop-color:#ff8c82;stop-opacity:1"
         offset="0" />
      <stop
         id="stop3250-3-0"
         style="stop-color:#a10705;stop-opacity:1"
         offset="1" />
    </linearGradient>
    <linearGradient
       x1="-17.12093"
       y1="-93.091553"
       x2="-45.761551"
       y2="-93.091553"
       id="linearGradient5066-8-59"
       xlink:href="#linearGradient5118"
       gradientUnits="userSpaceOnUse"
       gradientTransform="matrix(0.36855189,0,0,0.13359585,43.05658,7.00275)"
       spreadMethod="reflect" />
    <linearGradient
       id="linearGradient5118">
      <stop
         id="stop5120"
         style="stop-color:#9d9d9d;stop-opacity:1"
         offset="0" />
      <stop
         id="stop5122"
         style="stop-color:#ffffff;stop-opacity:1"
         offset="1" />
    </linearGradient>
    <linearGradient
       x1="-20.446733"
       y1="-93.091553"
       x2="-48.479328"
       y2="-93.091553"
       id="linearGradient3457-7-6-6"
       xlink:href="#linearGradient2793-2-0-669-94-2"
       gradientUnits="userSpaceOnUse"
       gradientTransform="matrix(0.12740271,0,0,0.15113872,36.73256,8.32775)"
       spreadMethod="reflect" />
    <linearGradient
       id="linearGradient2793-2-0-669-94-2">
      <stop
         id="stop4681-3-1"
         style="stop-color:#b4b4b4;stop-opacity:1"
         offset="0" />
      <stop
         id="stop4683-67-4"
         style="stop-color:#ffffff;stop-opacity:1"
         offset="1" />
    </linearGradient>
    <linearGradient
       x1="30"
       y1="7"
       x2="30"
       y2="43"
       id="linearGradient4760-20"
       xlink:href="#linearGradient4762"
       gradientUnits="userSpaceOnUse"
       gradientTransform="matrix(0.51999998,0,0,0.64864864,20.9333,-8.41275)" />
    <linearGradient
       id="linearGradient4762">
      <stop
         id="stop4764"
         style="stop-color:#ffffff;stop-opacity:1"
         offset="0" />
      <stop
         id="stop4766"
         style="stop-color:#ffffff;stop-opacity:0.23529412"
         offset="0.05034721" />
      <stop
         id="stop4768"
         style="stop-color:#ffffff;stop-opacity:0.15686275"
         offset="0.94965279" />
      <stop
         id="stop4770"
         style="stop-color:#ffffff;stop-opacity:0.39215687"
         offset="1" />
    </linearGradient>
    <linearGradient
       x1="13.681819"
       y1="17.458462"
       x2="17.77273"
       y2="35.717499"
       id="linearGradient5508-01"
       xlink:href="#linearGradient10515"
       gradientUnits="userSpaceOnUse"
       gradientTransform="matrix(0.9777772,0,0,1.3941434,15.03553,-29.26399)" />
    <linearGradient
       id="linearGradient10515">
      <stop
         style="stop-color:#ffffff;stop-opacity:1;"
         offset="0"
         id="stop10517" />
      <stop
         style="stop-color:#ffffff;stop-opacity:0;"
         offset="1"
         id="stop10519" />
    </linearGradient>
    <linearGradient
       x1="25.272734"
       y1="17.458462"
       x2="27.31819"
       y2="35.717499"
       id="linearGradient5510-67"
       xlink:href="#linearGradient10515"
       gradientUnits="userSpaceOnUse"
       gradientTransform="matrix(0.9777772,0,0,1.4146455,11.7022,-29.8091)" />
    <radialGradient
       cx="16.5"
       cy="7.5"
       r="3.5"
       fx="16.5"
       fy="7.5"
       id="radialGradient5132-57"
       xlink:href="#linearGradient10515"
       gradientUnits="userSpaceOnUse"
       gradientTransform="matrix(0.53450479,0,0,0.5901873,20.18221,-8.62024)" />
    <linearGradient
       gradientTransform="matrix(0.3333471,0,0,0.32559732,33.42022,8.29842)"
       gradientUnits="userSpaceOnUse"
       xlink:href="#linearGradient4171"
       id="linearGradient3042"
       y2="43.828014"
       x2="24"
       y1="1.7296801"
       x1="24" />
    <linearGradient
       id="linearGradient4171">
      <stop
         id="stop4173"
         offset="0"
         style="stop-color:#ffe16b;stop-opacity:1" />
      <stop
         id="stop4175"
         offset="1"
         style="stop-color:#f9c440;stop-opacity:1" />
    </linearGradient>
    <linearGradient
       gradientTransform="matrix(0.3209283,0,-0.00139699,0.29826454,32.10061,4.76738)"
       gradientUnits="userSpaceOnUse"
       xlink:href="#linearGradient3117-8"
       id="linearGradient3039"
       y2="57.567127"
       x2="29.291178"
       y1="19.787613"
       x1="29.126724" />
    <linearGradient
       id="linearGradient3117-8">
      <stop
         id="stop3119-9"
         style="stop-color:#ffffff;stop-opacity:1"
         offset="0" />
      <stop
         id="stop3121-9"
         style="stop-color:#ffffff;stop-opacity:0.23529412"
         offset="0.56911701" />
      <stop
         id="stop3123-6"
         style="stop-color:#ffffff;stop-opacity:0.15686275"
         offset="0.93297637" />
      <stop
         id="stop3125-3"
         style="stop-color:#ffffff;stop-opacity:0.39215687"
         offset="1" />
    </linearGradient>
    <linearGradient
       xlink:href="#linearGradient929-0"
       id="linearGradient3941-43"
       gradientUnits="userSpaceOnUse"
       gradientTransform="matrix(0.60000002,0,0,0.66666667,-50.65103,-6.13376)"
       x1="12.029413"
       y1="25"
       x2="36.608757"
       y2="25" />
    <linearGradient
       id="linearGradient929-0">
      <stop
         id="stop918-8"
         offset="0"
         style="stop-color:#ad5f00;stop-opacity:0" />
      <stop
         style="stop-color:#ad5f00;stop-opacity:1"
         offset="0.08017239"
         id="stop921-3" />
      <stop
         style="stop-color:#ad5f00;stop-opacity:0"
         offset="0.48701805"
         id="stop923-8" />
      <stop
         id="stop925-7"
         offset="0.82605612"
         style="stop-color:#ad5f00;stop-opacity:1" />
      <stop
         id="stop927-3"
         offset="1"
         style="stop-color:#ad5f00;stop-opacity:0" />
    </linearGradient>
    <linearGradient
       gradientTransform="matrix(1,0,0,0.32432432,8.75103,-8.39952)"
       xlink:href="#linearGradient899-0"
       id="linearGradient901-85"
       x1="20.038094"
       y1="84.583336"
       x2="43.5"
       y2="84.583336"
       gradientUnits="userSpaceOnUse" />
    <linearGradient
       id="linearGradient899-0">
      <stop
         id="stop895-5"
         offset="0"
         style="stop-color:#ffe16b;stop-opacity:1" />
      <stop
         id="stop897-0"
         offset="1"
         style="stop-color:#d48e15;stop-opacity:1" />
    </linearGradient>
    <linearGradient
       x1="30"
       y1="32.586082"
       x2="30"
       y2="43"
       id="linearGradient4760-7-0"
       xlink:href="#linearGradient4271"
       gradientUnits="userSpaceOnUse"
       gradientTransform="matrix(0.56521739,0,0,0.49999961,22.68581,0.78292)" />
    <linearGradient
       id="linearGradient4271">
      <stop
         offset="0"
         style="stop-color:#ffffff;stop-opacity:1"
         id="stop4273" />
      <stop
         offset="0.2559385"
         style="stop-color:#ffffff;stop-opacity:0.23529412"
         id="stop4275" />
      <stop
         offset="0.90909094"
         style="stop-color:#ffffff;stop-opacity:0.15686275"
         id="stop4277" />
      <stop
         offset="1"
         style="stop-color:#ffffff;stop-opacity:0.39215687"
         id="stop4279" />
    </linearGradient>
    <linearGradient
       spreadMethod="reflect"
       gradientTransform="matrix(0.36855189,0,0,0.13359585,45.89431,9.73219)"
       gradientUnits="userSpaceOnUse"
       xlink:href="#linearGradient5118"
       id="linearGradient5066-8-50"
       y2="-93.091553"
       x2="-45.761551"
       y1="-93.091553"
       x1="-17.12093" />
    <linearGradient
       spreadMethod="reflect"
       gradientTransform="matrix(0.12740271,0,0,0.15113872,39.57028,11.05719)"
       gradientUnits="userSpaceOnUse"
       xlink:href="#linearGradient2793-2-0-669-94-2"
       id="linearGradient3457-7-6-28"
       y2="-93.091553"
       x2="-48.479328"
       y1="-93.091553"
       x1="-20.446733" />
    <linearGradient
       gradientTransform="matrix(0.51999998,0,0,0.64864864,23.77103,-5.68331)"
       gradientUnits="userSpaceOnUse"
       xlink:href="#linearGradient4762"
       id="linearGradient4760-79"
       y2="43"
       x2="30"
       y1="7"
       x1="30" />
    <linearGradient
       gradientTransform="matrix(0.9777772,0,0,1.3941434,17.87326,-26.53455)"
       gradientUnits="userSpaceOnUse"
       xlink:href="#linearGradient10515"
       id="linearGradient5508-98"
       y2="35.717499"
       x2="17.77273"
       y1="17.458462"
       x1="13.681819" />
    <linearGradient
       gradientTransform="matrix(0.9777772,0,0,1.4146455,14.53993,-27.07966)"
       gradientUnits="userSpaceOnUse"
       xlink:href="#linearGradient10515"
       id="linearGradient5510-05"
       y2="35.717499"
       x2="27.31819"
       y1="17.458462"
       x1="25.272734" />
    <radialGradient
       gradientTransform="matrix(0.53450479,0,0,0.5901873,23.01994,-5.8908)"
       gradientUnits="userSpaceOnUse"
       xlink:href="#linearGradient10515"
       id="radialGradient5132-20"
       fy="7.5"
       fx="16.5"
       r="3.5"
       cy="7.5"
       cx="16.5" />
    <linearGradient
       xlink:href="#linearGradient5538-1"
       id="linearGradient100732"
       gradientUnits="userSpaceOnUse"
       gradientTransform="matrix(0.48936,0,0,0.61905,0.25531999,-23.952459)"
       x1="15.114"
       y1="18"
       x2="15.031"
       y2="40" />
    <radialGradient
       gradientTransform="matrix(0.53450479,0,0,0.5901873,23.01994,-5.8908)"
       gradientUnits="userSpaceOnUse"
       xlink:href="#linearGradient10515"
       id="radialGradient5132-20-1"
       fy="7.5"
       fx="16.5"
       r="3.5"
       cy="7.5"
       cx="16.5" />
    <linearGradient
       y2="25"
       x2="36.608757"
       y1="25"
       x1="12.029413"
       gradientTransform="matrix(0.60000002,0,0,0.66666667,-50.03171,-10.79933)"
       gradientUnits="userSpaceOnUse"
       id="linearGradient3941-8"
       xlink:href="#linearGradient914" />
    <linearGradient
       id="linearGradient914">
      <stop
         id="stop904"
         offset="0"
         style="stop-color:#002e99;stop-opacity:0" />
      <stop
         style="stop-color:#002e99;stop-opacity:1"
         offset="0.06865654"
         id="stop906" />
      <stop
         style="stop-color:#002e99;stop-opacity:0"
         offset="0.5"
         id="stop908" />
      <stop
         id="stop910"
         offset="0.82605612"
         style="stop-color:#002e99;stop-opacity:1" />
      <stop
         id="stop912"
         offset="1"
         style="stop-color:#002e99;stop-opacity:0" />
    </linearGradient>
    <radialGradient
       cx="99.157013"
       cy="186.17059"
       r="62.769119"
       fx="99.157013"
       fy="186.17059"
       id="radialGradient5362-7"
       xlink:href="#linearGradient3820-7-2-1-2-6"
       gradientUnits="userSpaceOnUse"
       gradientTransform="matrix(0.15931399,0,0,0.03982852,19.83461,10.45269)" />
    <linearGradient
       gradientUnits="userSpaceOnUse"
       y2="33.5"
       x2="43.473194"
       y1="33.5"
       x1="28.412779"
       id="linearGradient901-7"
       xlink:href="#linearGradient899"
       gradientTransform="translate(-0.36829,-23.13266)" />
    <linearGradient
       id="linearGradient899">
      <stop
         id="stop895"
         offset="0"
         style="stop-color:#64baff;stop-opacity:1" />
      <stop
         id="stop897"
         offset="1"
         style="stop-color:#3689e6;stop-opacity:1" />
    </linearGradient>
    <linearGradient
       x1="-17.12093"
       y1="-93.091553"
       x2="-45.761551"
       y2="-93.091553"
       id="linearGradient5066-8-37"
       xlink:href="#linearGradient5118"
       gradientUnits="userSpaceOnUse"
       gradientTransform="matrix(0.36855189,0,0,0.13359585,45.27499,5.06662)"
       spreadMethod="reflect" />
    <linearGradient
       x1="-20.446733"
       y1="-93.091553"
       x2="-48.479328"
       y2="-93.091553"
       id="linearGradient3457-7-6-06"
       xlink:href="#linearGradient2793-2-0-669-94-2"
       gradientUnits="userSpaceOnUse"
       gradientTransform="matrix(0.12740271,0,0,0.15113872,38.95096,6.39162)"
       spreadMethod="reflect" />
    <linearGradient
       x1="30"
       y1="7"
       x2="30"
       y2="43"
       id="linearGradient4760-2"
       xlink:href="#linearGradient4762"
       gradientUnits="userSpaceOnUse"
       gradientTransform="matrix(0.51999998,0,0,0.64864864,23.15171,-10.34888)" />
    <linearGradient
       x1="13.681819"
       y1="17.458462"
       x2="17.77273"
       y2="35.717499"
       id="linearGradient5508-67"
       xlink:href="#linearGradient10515"
       gradientUnits="userSpaceOnUse"
       gradientTransform="matrix(0.9777772,0,0,1.3941434,17.25394,-31.20012)" />
    <linearGradient
       x1="25.272734"
       y1="17.458462"
       x2="27.31819"
       y2="35.717499"
       id="linearGradient5510-6"
       xlink:href="#linearGradient10515"
       gradientUnits="userSpaceOnUse"
       gradientTransform="matrix(0.9777772,0,0,1.4146455,13.9206,-31.74523)" />
    <radialGradient
       cx="16.5"
       cy="7.5"
       r="3.5"
       fx="16.5"
       fy="7.5"
       id="radialGradient5132-84"
       xlink:href="#linearGradient10515"
       gradientUnits="userSpaceOnUse"
       gradientTransform="matrix(0.53450479,0,0,0.5901873,22.40061,-10.55637)" />
    <radialGradient
       id="radialGradient5893-1-9"
       cx="12"
       cy="13"
       r="10"
       gradientTransform="matrix(0,1.5,-0.8,0,17.399959,-5.99996)"
       gradientUnits="userSpaceOnUse">
      <stop
         id="stop3909-1-1"
         style="stop-color:#fff;stop-opacity:.70588"
         offset="0" />
      <stop
         id="stop3911-4-5"
         style="stop-color:#fff;stop-opacity:.23529"
         offset="1" />
    </radialGradient>
  </defs>
  <g
     id="g26522"
     transform="translate(-715.04872,-183.21057)">
    <g
       style="opacity:0.8"
       transform="translate(20)"
       id="g26526" />
  </g>
  <g
     id="g102167"
     transform="matrix(0.65749769,0,0,0.83062644,-4.6877485,7.957059)">
    <rect
       width="15"
       height="26"
       rx="9"
       ry="1"
       x="-43.13168"
       y="-7.1326375"
       id="rect3268-4-21"
       style="color:#000000;font-variation-settings:normal;display:block;overflow:visible;visibility:visible;opacity:0.1;fill:url(#linearGradient3941-8);fill-opacity:1;stroke:none;stroke-width:1;stroke-linecap:butt;stroke-linejoin:miter;stroke-miterlimit:4;stroke-dasharray:none;stroke-dashoffset:0;stroke-opacity:1;marker:none;enable-background:accumulate;stop-color:#000000"
       transform="scale(-1,1)" />
    <path
       style="color:#000000;font-variation-settings:normal;display:inline;overflow:visible;visibility:visible;fill:url(#linearGradient901-7);fill-opacity:1;fill-rule:nonzero;stroke:none;stroke-width:1;stroke-linecap:butt;stroke-linejoin:miter;stroke-miterlimit:4;stroke-dasharray:none;stroke-dashoffset:0;stroke-opacity:1;marker:none;enable-background:accumulate;stop-color:#000000"
       id="rect3268-0-1-2-9"
       d="m 28.13171,5.86734 v 12 c 0,0.554 3.345,1 7.5,1 4.155,0 7.5,-0.446 7.5,-1 v -12 z" />
    <path
       style="color:#000000;display:inline;overflow:visible;visibility:visible;opacity:0.5;fill:none;fill-opacity:0;fill-rule:nonzero;stroke:#0d52bf;stroke-width:1;stroke-linecap:butt;stroke-linejoin:round;stroke-miterlimit:4;stroke-dasharray:none;stroke-dashoffset:0;stroke-opacity:1;marker:none;enable-background:accumulate"
       id="path3077-1"
       d="m 28.13171,5.86734 h 15" />
    <path
       style="color:#000000;display:block;overflow:visible;visibility:visible;opacity:0.2;fill:none;stroke:#ffffff;stroke-width:1;stroke-linecap:butt;stroke-linejoin:miter;stroke-miterlimit:7;stroke-dasharray:none;stroke-dashoffset:0;stroke-opacity:1;marker:none;enable-background:accumulate"
       id="path3077-3-6"
       d="m 29.13171,6.86734 h 13" />
    <path
       d="m 35.6317,-7.13266 c -4.155,0 -7.49999,0.57343 -7.49999,1.28571 v 1.71429 c 0,-0.71229 3.34499,-1.28571 7.49999,-1.28571 4.15501,0 7.50001,0.57342 7.50001,1.28571 v -1.71429 c 0,-0.71228 -3.345,-1.28571 -7.50001,-1.28571 z"
       id="rect3268-6-4-210"
       style="color:#000000;display:inline;overflow:visible;visibility:visible;fill:url(#linearGradient5066-8-37);fill-opacity:1;fill-rule:nonzero;stroke:none;stroke-width:1;marker:none;enable-background:accumulate" />
    <path
       d="m 28.57288,-4.60664 c 0,-0.56499 3.14824,-1.01983 7.05883,-1.01983 3.91059,0 7.05882,0.45484 7.05882,1.01983"
       id="rect3268-6-53"
       style="color:#000000;display:block;overflow:visible;visibility:visible;opacity:0.3;fill:none;stroke:#000000;stroke-width:1;stroke-linecap:butt;stroke-linejoin:miter;stroke-miterlimit:7;stroke-dasharray:none;stroke-dashoffset:0;stroke-opacity:1;marker:none;enable-background:accumulate" />
    <path
       d="m 38.13171,-7.13266 v -1.18182 c 0,-0.45464 -1.115,-0.81818 -2.5,-0.81818 -1.385,0 -2.5,0.36354 -2.5,0.81818 v 1.18182"
       id="rect3268-3-9-21"
       style="color:#000000;display:inline;overflow:visible;visibility:visible;fill:url(#linearGradient3457-7-6-06);fill-opacity:1;fill-rule:nonzero;stroke:none;stroke-width:1;marker:none;enable-background:accumulate" />
    <path
       d="m 38.1317,-7.63266 v -0.88636 c 0,-0.34098 -1.11499,-0.61364 -2.5,-0.61364 -1.385,0 -2.49999,0.27266 -2.49999,0.61364 v 0.88636"
       id="rect3268-3-97"
       style="color:#000000;display:block;overflow:visible;visibility:visible;opacity:0.3;fill:none;stroke:#000000;stroke-width:1;stroke-linecap:butt;stroke-linejoin:miter;stroke-miterlimit:7;stroke-dasharray:none;stroke-dashoffset:0;stroke-opacity:1;marker:none;enable-background:accumulate" />
    <path
       d="m 35.63171,-6.13266 c -1.92915,0 -3.66742,0.11191 -4.9075,0.28378 -0.62005,0.086 -1.12069,0.18209 -1.43,0.28379 -0.0851,0.028 -0.11086,0.0369 -0.1625,0.0608 v 22.74324 c 0.0516,0.0239 0.0774,0.0328 0.1625,0.0608 0.30931,0.1017 0.80995,0.19785 1.43,0.28379 1.24008,0.17187 2.97835,0.28378 4.9075,0.28378 1.92914,0 3.66741,-0.11191 4.9075,-0.28378 0.62004,-0.0859 1.12069,-0.18209 1.43,-0.28379 0.0851,-0.028 0.11085,-0.0369 0.1625,-0.0608 V -5.50429 c -0.0516,-0.0239 -0.0774,-0.0329 -0.1625,-0.0608 -0.30931,-0.1017 -0.80996,-0.19785 -1.43,-0.28379 -1.24009,-0.17187 -2.97836,-0.28378 -4.9075,-0.28378 z"
       id="path4752-68"
       style="color:#000000;display:block;overflow:visible;visibility:visible;opacity:0.8;fill:none;stroke:url(#linearGradient4760-2);stroke-width:1;stroke-linecap:butt;stroke-linejoin:miter;stroke-miterlimit:7;stroke-dasharray:none;stroke-dashoffset:0;stroke-opacity:1;marker:none;enable-background:accumulate" />
    <path
       id="rect3268-2"
       style="color:#000000;display:block;overflow:visible;visibility:visible;opacity:0.3;fill:none;stroke:#000000;stroke-width:1;stroke-linecap:butt;stroke-linejoin:miter;stroke-miterlimit:7;stroke-dasharray:none;stroke-dashoffset:0;stroke-opacity:1;marker:none;enable-background:accumulate"
       d="m 43.13171,-4.63266 v -1.5 c 0,-0.554 -3.345,-1 -7.5,-1 -4.155,0 -7.5,0.446 -7.5,1 v 1.5" />
    <path
       d="m 34.63171,-7.13266 c -2.14179,0.0812 -3.00485,0.24143 -4,0.48148 v 25.03704 c 0.99515,0.24005 1.85821,0.40032 4,0.48148 z"
       id="path5194-0"
       style="display:inline;overflow:visible;visibility:visible;opacity:0.3;fill:url(#linearGradient5508-67);fill-opacity:1;fill-rule:nonzero;stroke:none;stroke-width:1;marker:none;enable-background:new" />
    <path
       d="m 38.63171,-7.13266 v 26 c 0.75778,-0.0841 1.53619,-0.18386 2,-0.29739 V -6.83528 c -0.46381,-0.11352 -1.24222,-0.21333 -2,-0.29738 z"
       id="rect3244-64"
       style="display:inline;overflow:visible;visibility:visible;opacity:0.1;fill:url(#linearGradient5510-6);fill-opacity:1;fill-rule:nonzero;stroke:none;stroke-width:1;marker:none;enable-background:new" />
    <path
       d="m 33.09071,-6.12996 a 1.87077,2.0656597 0 1 1 -3.74154,0 1.87077,2.065659 0 1 1 3.74154,0 z"
       id="path5124-33"
       style="color:#000000;display:inline;overflow:visible;visibility:visible;opacity:0.2;fill:url(#radialGradient5132-84);fill-opacity:1;fill-rule:nonzero;stroke:none;stroke-width:1.37003;marker:none;enable-background:accumulate" />
    <path
       id="rect917"
       style="color:#000000;display:block;overflow:visible;visibility:visible;opacity:0.5;fill:none;stroke:#0d52bf;stroke-width:1;stroke-linecap:butt;stroke-linejoin:miter;stroke-miterlimit:7;stroke-dasharray:none;stroke-dashoffset:0;stroke-opacity:1;marker:none;enable-background:accumulate"
       d="m 28.13171,-4.63266 v 22.5 c 0,0.554 3.345,1 7.5,1 4.155,0 7.5,-0.446 7.5,-1 v -22.5" />
  </g>
  <g
     id="g110006"
     transform="translate(-0.99999994)">
    <rect
       id="rect6674"
       x="0.5"
       y="-12.49996"
       width="23"
       height="11"
       rx="0.48936"
       ry="0.59091002"
       style="fill:url(#linearGradient5536-7);stroke:url(#linearGradient100732);stroke-width:0.99992;enable-background:new"
       transform="rotate(90)" />
    <path
       id="path6794"
       d="m 10.49996,20.91604 c -0.22947,0 -0.4155,-0.18603 -0.4155,-0.4155 0,-0.22948 0.18603,-0.4155 0.4155,-0.4155 0.22948,0 0.4155,0.18602 0.4155,0.4155 0,0.22947 -0.18603,0.4155 -0.4155,0.4155 z"
       style="fill:#3ce010;stroke:#297713;stroke-width:0.169;enable-background:new" />
    <path
       id="path6806"
       d="m 10.49996,21.91504 c -0.22947,0 -0.4155,-0.18603 -0.4155,-0.4155 0,-0.22948 0.18603,-0.4155 0.4155,-0.4155 0.22948,0 0.4155,0.18602 0.4155,0.4155 0,0.22947 -0.18602,0.4155 -0.4155,0.4155 z"
       style="fill:#146400;stroke:#154708;stroke-width:0.169;enable-background:new" />
    <path
       id="path6807"
       d="m 10.49996,19.91504 c -0.22947,0 -0.4155,-0.18603 -0.4155,-0.4155 0,-0.22947 0.18603,-0.4155 0.4155,-0.4155 0.22947,0 0.4155,0.18602 0.4155,0.4155 0,0.22948 -0.18603,0.4155 -0.4155,0.4155 z"
       style="fill:#146400;stroke:#154708;stroke-width:0.169;enable-background:new" />
    <path
       id="rect5550"
       d="M 10.99996,2.00004 H 9.9999597 v 1 H 10.99996 Z m 0,2 H 9.9999597 v 3 H 10.99996 Z m 0,4 H 9.9999597 v 3 H 10.99996 Z m 0,4 H 9.9999597 v 3 H 10.99996 Z m 0,4 H 9.9999597 v 2 H 10.99996 Z m -2.0000003,-14 h -6 v 13 h 6 z m 0,14 h -3 v 2 h 3 z m 0,3 h -6 v 3 h 6 z m -4,-3 h -2 v 2 h 2 z"
       style="fill:url(#linearGradient5580-7)" />
    <path
       id="rect2340"
       d="M 10.99996,2.00004 H 9.9999597 v 1 H 10.99996 Z m 0,2 H 9.9999597 v 1 H 10.99996 Z m 0,2 H 9.9999597 v 1 H 10.99996 Z m 0,2 H 9.9999597 v 1 H 10.99996 Z m 0,2 H 9.9999597 v 1 H 10.99996 Z m 0,2 H 9.9999597 v 1 H 10.99996 Z m 0,2 H 9.9999597 v 1 H 10.99996 Z m 0,2 H 9.9999597 v 1 H 10.99996 Z m -2.0000003,-13 h -1 v 1 h 1 z m -1,1 h -1 v 1 h 1 z m 0,1 v 1 h 1 v -1 z m 0,1 h -1 v 1 h 1 z m 0,1 v 1 h 1 v -1 z m 0,1 h -1 v 1 h 1 z m 0,1 v 1 h 1 v -1 z m 0,1 h -1 v 1 h 1 z m 0,1 v 1 h 1 v -1 z m 0,1 h -1 v 1 h 1 z m 0,1 v 1 h 1 v -1 z m 0,1 h -1 v 1 h 1 z m -1,0 v -1 h -1 v 1 z m -1,0 h -1 v 1 h 1 z m -1,0 v -1 h -1 v 1 z m -1,0 h -1 v 1 h 1 z m 1,-1 h 1 v -1 h -1 z m 0,-1 v -1 h -1 v 1 z m 0,-1 h 1 v -1 h -1 z m 0,-1 v -1 h -1 v 1 z m 0,-1 h 1 v -1 h -1 z m 0,-1 v -1 h -1 v 1 z m 0,-1 h 1 v -1 h -1 z m 0,-1 v -1 h -1 v 1 z m 0,-1 h 1 v -1 h -1 z m 0,-1 v -1 h -1 v 1 z m -1,-1 v -1 h -1 v 1 z m 1,0 h 1 v -1 h -1 z m 1,0 v 1 h 1 v -1 z m 1,0 h 1 v -1 h -1 z m -1,2 v 1 h 1 v -1 z m 0,2 v 1 h 1 v -1 z m 0,2 v 1 h 1 v -1 z m 0,2 v 1 h 1 v -1 z m 3,6 h -1 v 1 h 1 z m -1,0 v -1 h -1 v 1 z m -1,0 h -1 v 1 h 1 z m 2,2 h -1 v 1 h 1 z m -1,1 h -1 v 1 h 1 z m 0,1 v 1 h 1 v -1 z m -1,0 h -1 v 1 h 1 z m -1,0 v -1 h -1 v 1 z m -1,0 h -1 v 1 h 1 z m -1,0 v -1 h -1 v 1 z m 0,-1 h 1 v -1 h -1 z m 2,0 h 1 v -1 h -1 z m -1,-4 h -1 v 1 h 1 z m -1,1 h -1 v 1 h 1 z"
       style="opacity:0.6;fill:url(#radialGradient5893-1-9)" />
  </g>
</svg>
