<?xml version="1.0" encoding="UTF-8" standalone="no"?>
<!-- Created with Inkscape (http://www.inkscape.org/) -->

<svg
   id="svg3591"
   width="16"
   height="16"
   version="1.0"
   xmlns="http://www.w3.org/2000/svg"
   xmlns:svg="http://www.w3.org/2000/svg">
  <defs
     id="defs3593">
    <linearGradient
       id="linearGradient3738"
       x1="14.953"
       x2="14.953"
       y1="45.381"
       y2="13.214"
       gradientTransform="matrix(.36876 0 0 .36876 -.851 -.85137)"
       gradientUnits="userSpaceOnUse">
      <stop
         id="stop5356"
         style="stop-color:#3f3f3f"
         offset="0" />
      <stop
         id="stop5358"
         offset="1" />
    </linearGradient>
    <linearGradient
       id="linearGradient3736"
       x1="28.771"
       x2="28.771"
       y1="12.918"
       y2="45.348"
       gradientTransform="matrix(.36876 0 0 .36876 -.851 -.85137)"
       gradientUnits="userSpaceOnUse">
      <stop
         id="stop2147"
         style="stop-color:#fffffd"
         offset="0" />
      <stop
         id="stop2149"
         style="stop-color:#cbcbc9"
         offset="1" />
    </linearGradient>
    <linearGradient
       id="linearGradient3630"
       x1="63.761"
       x2="63.761"
       y1="-12.929"
       y2="5.9722"
       gradientTransform="matrix(.74324 0 0 .74322 -38.23 10.609)"
       gradientUnits="userSpaceOnUse">
      <stop
         id="stop37937"
         style="stop-color:#929292"
         offset="0" />
      <stop
         id="stop37939"
         style="stop-color:#4a4a4a"
         offset="1" />
    </linearGradient>
    <linearGradient
       id="linearGradient3578"
       x1="24.104"
       x2="24.104"
       y1="15.169"
       y2="32.485"
       gradientTransform="matrix(.32803 0 0 .32571 4.445 4.532)"
       gradientUnits="userSpaceOnUse">
      <stop
         id="stop3567"
         style="stop-color:#ecf5b6"
         offset="0" />
      <stop
         id="stop3949"
         style="stop-color:#9fba48"
         offset="1" />
    </linearGradient>
    <radialGradient
       id="radialGradient2409"
       cx="23.896"
       cy="3.99"
       r="20.396999"
       gradientTransform="matrix(0,0.87966,-1.1611,0,12.633,-21.084)"
       gradientUnits="userSpaceOnUse">
      <stop
         id="stop3244"
         style="stop-color:#f8b17e"
         offset="0" />
      <stop
         id="stop3246"
         style="stop-color:#e35d4f"
         offset=".26238" />
      <stop
         id="stop3248"
         style="stop-color:#c6262e"
         offset=".66094" />
      <stop
         id="stop3250"
         style="stop-color:#690b54"
         offset="1" />
    </radialGradient>
    <linearGradient
       id="linearGradient2411"
       x1="18.379"
       x2="18.379"
       y1="44.98"
       y2="3.0816"
       gradientTransform="matrix(0.36857,0,0,0.36857,-0.84577,-0.84577)"
       gradientUnits="userSpaceOnUse">
      <stop
         id="stop2492"
         style="stop-color:#791235"
         offset="0" />
      <stop
         id="stop2494"
         style="stop-color:#dd3b27"
         offset="1" />
    </linearGradient>
    <linearGradient
       id="linearGradient2406"
       x1="63.396999"
       x2="63.396999"
       y1="-12.489"
       y2="5.4675999"
       gradientTransform="matrix(0.74324,0,0,0.74322,-38.23,10.609)"
       gradientUnits="userSpaceOnUse">
      <stop
         id="stop4875"
         style="stop-color:#fff"
         offset="0" />
      <stop
         id="stop4877"
         style="stop-color:#fff;stop-opacity:0"
         offset="1" />
    </linearGradient>
  </defs>
  <g
     id="layer1">
    <path
       id="path2555"
       d="m7.9941 0.49998c-4.1393 0-7.4941 3.3548-7.4941 7.4941 0 4.1393 3.3548 7.5059 7.4941 7.5059 4.1393 0 7.5059-3.3666 7.5059-7.5059 0-4.1393-3.3666-7.4941-7.5059-7.4941z"
       style="fill:url(#linearGradient3736);stroke-linecap:round;stroke-linejoin:round;stroke-width:.99995;stroke:url(#linearGradient3738)" />
    <path
       id="path8655"
       d="m14.5 7.9998c0 3.59-2.9104 6.5002-6.4999 6.5002-3.5899 0-6.5001-2.9103-6.5001-6.5002 0-3.5898 2.9102-6.4998 6.5001-6.4998 3.5896 0 6.4999 2.91 6.4999 6.4998z"
       style="fill:none;opacity:.52747;stroke:url(#linearGradient3630)" />
    <path
       id="path2312"
       d="m7.6741 8.4713 4.7112-4.7111"
       style="fill:none;stroke-linecap:round;stroke-width:.5;stroke:#000" />
    <path
       id="path2314"
       d="m8.4391 8.5061-3.1466-3.1465"
       style="fill:none;stroke-linecap:round;stroke-width:.5;stroke:#000" />
    <path
       id="path2316"
       d="m7.7785 8.228 5.3649-1.4375"
       style="fill-rule:evenodd;fill:red;stroke-linecap:round;stroke-width:.5;stroke:red" />
  </g>
  <g
     id="layer1-2"
     transform="matrix(0.49999687,0,0,0.49999687,8.000025,8.00001)">
    <g
       id="g2533">
      <path
         id="path2555-7"
         d="m 8,0.50183 c -4.1372,0 -7.4982,3.3609 -7.4982,7.4982 0,4.1372 3.3609,7.4982 7.4982,7.4982 4.1372,0 7.4982,-3.3609 7.4982,-7.4982 0,-4.1372 -3.3609,-7.4982 -7.4982,-7.4982 z"
         style="fill:url(#radialGradient2409);stroke:url(#linearGradient2411);stroke-width:1.0037;stroke-linecap:round;stroke-linejoin:round" />
      <path
         id="path2463"
         d="M 14.5,7.9998 C 14.5,11.5898 11.5896,14.5 8.0001,14.5 4.4102,14.5 1.5,11.5897 1.5,7.9998 1.5,4.41 4.4102,1.5 8.0001,1.5 11.5897,1.5 14.5,4.41 14.5,7.9998 Z"
         style="opacity:0.4;fill:none;stroke:url(#linearGradient2406)" />
    </g>
    <path
       id="text2315"
       d="m 7.0864,3.7008 c 0.2165,2.1148 0.46449,4.2151 0.64879,6.3381 H 8.32334 C 8.47621,8.0001 8.72278,5.9735 8.90065,3.9372 8.991317,3.45503 8.74376,2.8825 8.2346,2.7654 7.73147,2.6183 7.1694,2.98256 7.1025,3.50289 7.091405,3.568208 7.086455,3.6345 7.086457,3.70073 Z M 7.022234,12.299 c -0.022894,0.6295 0.66976,1.123 1.2611,0.92339 0.5728,-0.14619 0.87451,-0.86614 0.58094,-1.3779 -0.26279,-0.52901 -1.0334,-0.70331 -1.4767,-0.29844 -0.22408,0.1841 -0.3726,0.45893 -0.36539,0.75294 v -10e-7 z"
       style="fill:#ffffff" />
  </g>
</svg>
