<?xml version="1.0" encoding="UTF-8" standalone="no"?>
<svg
   version="1.1"
   width="16"
   height="16"
   id="svg3014"
   xmlns:xlink="http://www.w3.org/1999/xlink"
   xmlns="http://www.w3.org/2000/svg"
   xmlns:svg="http://www.w3.org/2000/svg"
   xmlns:rdf="http://www.w3.org/1999/02/22-rdf-syntax-ns#"
   xmlns:cc="http://creativecommons.org/ns#"
   xmlns:dc="http://purl.org/dc/elements/1.1/">
  <defs
     id="defs3016">
    <linearGradient
       y2="25"
       x2="36.608757"
       y1="25"
       x1="12.333331"
       gradientTransform="matrix(0.60000002,0,0,0.66666667,-59.75593,17.29083)"
       gradientUnits="userSpaceOnUse"
       id="linearGradient3941-337"
       xlink:href="#linearGradient3821" />
    <linearGradient
       id="linearGradient3821">
      <stop
         style="stop-color:#ad5f00;stop-opacity:0"
         offset="0"
         id="stop3823" />
      <stop
         id="stop947"
         offset="0.06865654"
         style="stop-color:#ad5f00;stop-opacity:1" />
      <stop
         id="stop943"
         offset="0.5"
         style="stop-color:#ad5f00;stop-opacity:0" />
      <stop
         style="stop-color:#ad5f00;stop-opacity:1"
         offset="0.82605612"
         id="stop945" />
      <stop
         style="stop-color:#ad5f00;stop-opacity:0"
         offset="1"
         id="stop3825" />
    </linearGradient>
    <radialGradient
       cx="99.157013"
       cy="186.17059"
       r="62.769119"
       fx="99.157013"
       fy="186.17059"
       id="radialGradient5362-437"
       xlink:href="#linearGradient3820-7-2-1-2-6"
       gradientUnits="userSpaceOnUse"
       gradientTransform="matrix(0.15931399,0,0,0.03982852,29.55883,38.54285)" />
    <linearGradient
       id="linearGradient3820-7-2-1-2-6">
      <stop
         id="stop3822-2-6-3-3-7"
         style="stop-color:#3d3d3d;stop-opacity:1"
         offset="0" />
      <stop
         id="stop3864-8-7-7-9-1"
         style="stop-color:#686868;stop-opacity:0.49803922"
         offset="0.5" />
      <stop
         id="stop3824-1-2-5-0-3"
         style="stop-color:#686868;stop-opacity:0"
         offset="1" />
    </linearGradient>
    <linearGradient
       gradientTransform="matrix(1,0,0,0.32432432,17.85593,15.02507)"
       xlink:href="#linearGradient899-0"
       id="linearGradient901-6"
       x1="19.499998"
       y1="87.666672"
       x2="43.5"
       y2="87.666672"
       gradientUnits="userSpaceOnUse" />
    <linearGradient
       id="linearGradient899-0">
      <stop
         id="stop895-5"
         offset="0"
         style="stop-color:#ffe16b;stop-opacity:1" />
      <stop
         id="stop897-0"
         offset="1"
         style="stop-color:#d48e15;stop-opacity:1" />
    </linearGradient>
    <linearGradient
       gradientTransform="matrix(0.56521739,0,0,0.49999961,31.79071,24.20751)"
       gradientUnits="userSpaceOnUse"
       xlink:href="#linearGradient4271"
       id="linearGradient4760-7-9"
       y2="43"
       x2="30"
       y1="32.586082"
       x1="30" />
    <linearGradient
       id="linearGradient4271">
      <stop
         offset="0"
         style="stop-color:#ffffff;stop-opacity:1"
         id="stop4273" />
      <stop
         offset="0.2559385"
         style="stop-color:#ffffff;stop-opacity:0.23529412"
         id="stop4275" />
      <stop
         offset="0.90909094"
         style="stop-color:#ffffff;stop-opacity:0.15686275"
         id="stop4277" />
      <stop
         offset="1"
         style="stop-color:#ffffff;stop-opacity:0.39215687"
         id="stop4279" />
    </linearGradient>
    <linearGradient
       x1="-17.12093"
       y1="-93.091553"
       x2="-45.761551"
       y2="-93.091553"
       id="linearGradient5066-8-57"
       xlink:href="#linearGradient5118"
       gradientUnits="userSpaceOnUse"
       gradientTransform="matrix(0.36855189,0,0,0.13359585,54.99921,33.15677)"
       spreadMethod="reflect" />
    <linearGradient
       id="linearGradient5118">
      <stop
         id="stop5120"
         style="stop-color:#9d9d9d;stop-opacity:1"
         offset="0" />
      <stop
         id="stop5122"
         style="stop-color:#ffffff;stop-opacity:1"
         offset="1" />
    </linearGradient>
    <linearGradient
       x1="-20.446733"
       y1="-93.091553"
       x2="-48.479328"
       y2="-93.091553"
       id="linearGradient3457-7-6-49"
       xlink:href="#linearGradient2793-2-0-669-94-2"
       gradientUnits="userSpaceOnUse"
       gradientTransform="matrix(0.12740271,0,0,0.15113872,48.67518,34.48178)"
       spreadMethod="reflect" />
    <linearGradient
       id="linearGradient2793-2-0-669-94-2">
      <stop
         id="stop4681-3-1"
         style="stop-color:#b4b4b4;stop-opacity:1"
         offset="0" />
      <stop
         id="stop4683-67-4"
         style="stop-color:#ffffff;stop-opacity:1"
         offset="1" />
    </linearGradient>
    <linearGradient
       x1="30"
       y1="7"
       x2="30"
       y2="43"
       id="linearGradient4760-31"
       xlink:href="#linearGradient4762"
       gradientUnits="userSpaceOnUse"
       gradientTransform="matrix(0.51999998,0,0,0.64864864,32.87593,17.74128)" />
    <linearGradient
       id="linearGradient4762">
      <stop
         id="stop4764"
         style="stop-color:#ffffff;stop-opacity:1"
         offset="0" />
      <stop
         id="stop4766"
         style="stop-color:#ffffff;stop-opacity:0.23529412"
         offset="0.05034721" />
      <stop
         id="stop4768"
         style="stop-color:#ffffff;stop-opacity:0.15686275"
         offset="0.94965279" />
      <stop
         id="stop4770"
         style="stop-color:#ffffff;stop-opacity:0.39215687"
         offset="1" />
    </linearGradient>
    <linearGradient
       x1="13.681819"
       y1="17.458462"
       x2="17.77273"
       y2="35.717499"
       id="linearGradient5508-92"
       xlink:href="#linearGradient10515"
       gradientUnits="userSpaceOnUse"
       gradientTransform="matrix(0.9777772,0,0,1.3941434,26.97816,-3.10996)" />
    <linearGradient
       id="linearGradient10515">
      <stop
         style="stop-color:#ffffff;stop-opacity:1;"
         offset="0"
         id="stop10517" />
      <stop
         style="stop-color:#ffffff;stop-opacity:0;"
         offset="1"
         id="stop10519" />
    </linearGradient>
    <linearGradient
       x1="25.272734"
       y1="17.458462"
       x2="27.31819"
       y2="35.717499"
       id="linearGradient5510-451"
       xlink:href="#linearGradient10515"
       gradientUnits="userSpaceOnUse"
       gradientTransform="matrix(0.9777772,0,0,1.4146455,23.64483,-3.65507)" />
    <radialGradient
       cx="16.5"
       cy="7.5"
       r="3.5"
       fx="16.5"
       fy="7.5"
       id="radialGradient5132-00"
       xlink:href="#linearGradient10515"
       gradientUnits="userSpaceOnUse"
       gradientTransform="matrix(0.53450479,0,0,0.5901873,32.12484,17.53379)" />
  </defs>
  <metadata
     id="metadata3019">
    <rdf:RDF>
      <cc:Work
         rdf:about="">
        <dc:format>image/svg+xml</dc:format>
        <dc:type
           rdf:resource="http://purl.org/dc/dcmitype/StillImage" />
      </cc:Work>
    </rdf:RDF>
  </metadata>
  <g
     id="g132872"
     transform="matrix(0.55172414,0,0,0.55172414,-17.023961,-10.183448)">
    <rect
       width="15"
       height="26"
       rx="9"
       ry="1"
       x="-52.855892"
       y="20.957464"
       id="rect3268-4-133"
       style="color:#000000;display:block;overflow:visible;visibility:visible;opacity:0.1;fill:url(#linearGradient3941-337);fill-opacity:1;stroke:none;stroke-width:1;marker:none;enable-background:accumulate"
       transform="scale(-1,1)" />
    <rect
       width="15"
       height="8"
       rx="13.5"
       ry="1.5000004"
       x="37.855892"
       y="38.957466"
       id="rect3268-0-1-7-0"
       style="color:#000000;font-variation-settings:normal;display:inline;overflow:visible;visibility:visible;fill:url(#linearGradient901-6);fill-opacity:1;fill-rule:nonzero;stroke:none;stroke-width:1;stroke-linecap:butt;stroke-linejoin:miter;stroke-miterlimit:4;stroke-dasharray:none;stroke-dashoffset:0;stroke-opacity:1;marker:none;enable-background:accumulate;stop-color:#000000" />
    <path
       d="m 52.85593,39.9575 c 0,-0.554 -3.345,-1 -7.5,-1 -4.155,0 -7.5,0.446 -7.5,1"
       id="rect3268-0-8"
       style="color:#000000;display:inline;overflow:visible;visibility:visible;opacity:0.5;fill:none;stroke:#ad5f00;stroke-width:1;stroke-linecap:butt;stroke-linejoin:round;stroke-miterlimit:4;stroke-dasharray:none;stroke-dashoffset:0;stroke-opacity:1;marker:none;enable-background:accumulate" />
    <path
       d="m 45.35593,39.9575 c -1.93864,0 -3.68527,0.0868 -4.92799,0.21875 -0.62136,0.066 -1.12707,0.14229 -1.43071,0.21875 -0.0803,0.0202 -0.0929,0.0299 -0.1413,0.0469 v 5.03124 c 0.0484,0.017 0.061,0.0267 0.1413,0.0469 0.30364,0.0765 0.80935,0.15279 1.43071,0.21875 1.24272,0.13191 2.98935,0.21874 4.92799,0.21874 1.93865,0 3.68527,-0.0868 4.92799,-0.21875 0.62136,-0.066 1.12707,-0.14229 1.43071,-0.21875 0.0803,-0.0202 0.0929,-0.0299 0.1413,-0.0469 v -5.03124 c -0.0484,-0.017 -0.061,-0.0267 -0.1413,-0.0469 C 51.41099,40.31849 50.90528,40.2422 50.28392,40.17624 49.0412,40.04433 47.29458,39.9575 45.35593,39.9575 Z"
       id="path4230"
       style="color:#000000;display:block;overflow:visible;visibility:visible;opacity:0.5;fill:none;stroke:url(#linearGradient4760-7-9);stroke-width:1;stroke-linecap:butt;stroke-linejoin:miter;stroke-miterlimit:7;stroke-dasharray:none;stroke-dashoffset:0;stroke-opacity:1;marker:none;enable-background:accumulate" />
    <path
       d="m 52.53131,41.24787 c -0.92885,0.41152 -3.78441,0.70963 -7.1814,0.70963 -3.3856,0 -6.23341,-0.29612 -7.172,-0.7055"
       id="rect3268-0-7-1-2"
       style="color:#000000;display:block;overflow:visible;visibility:visible;opacity:0.4;fill:none;stroke:#ffffff;stroke-width:1;stroke-linecap:butt;stroke-linejoin:miter;stroke-miterlimit:7;stroke-dasharray:none;stroke-dashoffset:0;stroke-opacity:1;marker:none;enable-background:accumulate" />
    <path
       d="m 52.85593,39.9575 c 0,0.554 -3.345,1 -7.5,1 -4.155,0 -7.5,-0.446 -7.5,-1"
       id="rect3268-0-3-22"
       style="color:#000000;display:inline;overflow:visible;visibility:visible;opacity:0.15;fill:none;stroke:#ad5f00;stroke-width:1;stroke-linecap:butt;stroke-linejoin:round;stroke-miterlimit:4;stroke-dasharray:none;stroke-dashoffset:0;stroke-opacity:1;marker:none;enable-background:accumulate" />
    <path
       d="m 52.53131,39.91454 c -0.92885,0.41152 -3.78441,0.70963 -7.1814,0.70963 -3.3856,0 -6.23341,-0.29612 -7.172,-0.7055"
       id="rect3268-0-7-8-4"
       style="color:#000000;display:block;overflow:visible;visibility:visible;opacity:0.2;fill:none;stroke:#ffffff;stroke-width:1;stroke-linecap:butt;stroke-linejoin:miter;stroke-miterlimit:7;stroke-dasharray:none;stroke-dashoffset:0;stroke-opacity:1;marker:none;enable-background:accumulate" />
    <path
       d="m 45.35593,20.9575 c -4.155,0 -7.5,0.57343 -7.5,1.28571 v 1.71429 c 0,-0.71229 3.345,-1.28571 7.5,-1.28571 4.155,0 7.5,0.57342 7.5,1.28571 v -1.71429 c 0,-0.71228 -3.345,-1.28571 -7.5,-1.28571 z"
       id="rect3268-6-4-79"
       style="color:#000000;display:inline;overflow:visible;visibility:visible;fill:url(#linearGradient5066-8-57);fill-opacity:1;fill-rule:nonzero;stroke:none;stroke-width:1;marker:none;enable-background:accumulate" />
    <path
       d="m 38.29711,23.48352 c 0,-0.56499 3.14823,-1.01983 7.05882,-1.01983 3.91059,0 7.05882,0.45484 7.05882,1.01983"
       id="rect3268-6-85"
       style="color:#000000;display:block;overflow:visible;visibility:visible;opacity:0.3;fill:none;stroke:#000000;stroke-width:1;stroke-linecap:butt;stroke-linejoin:miter;stroke-miterlimit:7;stroke-dasharray:none;stroke-dashoffset:0;stroke-opacity:1;marker:none;enable-background:accumulate" />
    <path
       d="m 47.85593,20.9575 v -1.18182 c 0,-0.45464 -1.115,-0.81818 -2.5,-0.81818 -1.385,0 -2.5,0.36354 -2.5,0.81818 v 1.18182"
       id="rect3268-3-9-47"
       style="color:#000000;display:inline;overflow:visible;visibility:visible;fill:url(#linearGradient3457-7-6-49);fill-opacity:1;fill-rule:nonzero;stroke:none;stroke-width:1;marker:none;enable-background:accumulate" />
    <path
       d="m 47.85593,20.4575 v -0.88636 c 0,-0.34098 -1.115,-0.61364 -2.5,-0.61364 -1.385,0 -2.5,0.27266 -2.5,0.61364 v 0.88636"
       id="rect3268-3-86"
       style="color:#000000;display:block;overflow:visible;visibility:visible;opacity:0.3;fill:none;stroke:#000000;stroke-width:1;stroke-linecap:butt;stroke-linejoin:miter;stroke-miterlimit:7;stroke-dasharray:none;stroke-dashoffset:0;stroke-opacity:1;marker:none;enable-background:accumulate" />
    <path
       d="m 45.35593,21.9575 c -1.92914,0 -3.66741,0.11191 -4.9075,0.28378 -0.62004,0.0859 -1.12069,0.18209 -1.43,0.28379 -0.0851,0.028 -0.11086,0.0369 -0.1625,0.0608 v 22.74324 c 0.0516,0.0239 0.0774,0.0328 0.1625,0.0608 0.30931,0.1017 0.80996,0.19785 1.43,0.28378 1.24009,0.17188 2.97836,0.28379 4.9075,0.28379 1.92914,0 3.66741,-0.11191 4.9075,-0.28378 0.62004,-0.0859 1.12069,-0.18209 1.43,-0.28379 0.0851,-0.028 0.11085,-0.0369 0.1625,-0.0608 V 22.58587 c -0.0516,-0.0239 -0.0774,-0.0328 -0.1625,-0.0608 -0.30931,-0.1017 -0.80996,-0.19785 -1.43,-0.28379 -1.24009,-0.17187 -2.97836,-0.28378 -4.9075,-0.28378 z"
       id="path4752-00"
       style="color:#000000;display:block;overflow:visible;visibility:visible;opacity:0.8;fill:none;stroke:url(#linearGradient4760-31);stroke-width:1;stroke-linecap:butt;stroke-linejoin:miter;stroke-miterlimit:7;stroke-dasharray:none;stroke-dashoffset:0;stroke-opacity:1;marker:none;enable-background:accumulate" />
    <path
       id="rect3268-64"
       style="color:#000000;display:block;overflow:visible;visibility:visible;opacity:0.3;fill:none;stroke:#000000;stroke-width:1;stroke-linecap:butt;stroke-linejoin:miter;stroke-miterlimit:7;stroke-dasharray:none;stroke-dashoffset:0;stroke-opacity:1;marker:none;enable-background:accumulate"
       d="m 52.85593,23.4575 v -1.5 c 0,-0.554 -3.345,-1 -7.5,-1 -4.155,0 -7.5,0.446 -7.5,1 v 1.5" />
    <path
       d="m 44.35593,20.9575 c -2.14179,0.0812 -3.00484,0.24143 -4,0.48148 v 25.03704 c 0.99516,0.24004 1.85821,0.40032 4,0.48148 z"
       id="path5194-375"
       style="display:inline;overflow:visible;visibility:visible;opacity:0.3;fill:url(#linearGradient5508-92);fill-opacity:1;fill-rule:nonzero;stroke:none;stroke-width:1;marker:none;enable-background:new" />
    <path
       d="m 48.35593,20.9575 v 26 c 0.75778,-0.0841 1.53619,-0.18386 2,-0.29739 V 21.25488 c -0.46381,-0.11352 -1.24222,-0.21333 -2,-0.29738 z"
       id="rect3244-81"
       style="display:inline;overflow:visible;visibility:visible;opacity:0.1;fill:url(#linearGradient5510-451);fill-opacity:1;fill-rule:nonzero;stroke:none;stroke-width:1;marker:none;enable-background:new" />
    <path
       d="m 42.81493,21.96019 a 1.8707668,2.0656562 0 1 1 -3.74153,0 1.8707669,2.0656556 0 1 1 3.74153,0 z"
       id="path5124-09"
       style="color:#000000;display:inline;overflow:visible;visibility:visible;opacity:0.2;fill:url(#radialGradient5132-00);fill-opacity:1;fill-rule:nonzero;stroke:none;stroke-width:1.37003;marker:none;enable-background:accumulate" />
    <path
       id="rect910"
       style="color:#000000;display:block;overflow:visible;visibility:visible;opacity:0.3;fill:none;stroke:#ad5f00;stroke-width:1;stroke-linecap:butt;stroke-linejoin:miter;stroke-miterlimit:7;stroke-dasharray:none;stroke-dashoffset:0;stroke-opacity:1;marker:none;enable-background:accumulate"
       d="m 37.85593,23.4575 v 22.5 c 0,0.554 3.345,1 7.5,1 4.155,0 7.5,-0.446 7.5,-1 v -22.5" />
    <path
       id="path54-26"
       style="font-variation-settings:normal;display:inline;opacity:0.85;fill:#d48e15;fill-opacity:1;stroke:none;stroke-width:1;stroke-linecap:butt;stroke-linejoin:miter;stroke-miterlimit:4;stroke-dasharray:none;stroke-dashoffset:0;stroke-opacity:1;marker:none;enable-background:new;stop-color:#000000"
       d="m 45.68927,27.12403 c -0.19896,0 -0.37785,0.087 -0.5,0.22526 l -5.73959,8.1017 c -0.0592,0.0996 -0.0937,0.21557 -0.0937,0.33985 0,0.36819 0.29848,0.66666 0.66667,0.66666 h 5.33333 l -0.94401,4.39988 c -0.0357,0.0817 -0.056,0.17209 -0.056,0.26693 0,0.36819 0.29848,0.66666 0.66667,0.66666 0.19896,0 0.37785,-0.087 0.5,-0.22526 l 5.73959,-8.1017 c 0.0592,-0.0996 0.0937,-0.21556 0.0937,-0.33984 0,-0.36819 -0.29848,-0.66667 -0.66667,-0.66667 h -5.33333 l 0.94401,-4.39987 c 0.0357,-0.0817 0.056,-0.17209 0.056,-0.26693 0,-0.36819 -0.29848,-0.66667 -0.66667,-0.66667 z" />
  </g>
</svg>
