<?xml version="1.0" encoding="UTF-8" standalone="no"?>
<!-- Created with Inkscape (http://www.inkscape.org/) -->

<svg
   id="svg11300"
   width="16"
   height="16"
   version="1.0"
   sodipodi:docname="gpm-keyboard-000.svg"
   inkscape:version="1.2.1 (9c6d41e410, 2022-07-14, custom)"
   xmlns:inkscape="http://www.inkscape.org/namespaces/inkscape"
   xmlns:sodipodi="http://sodipodi.sourceforge.net/DTD/sodipodi-0.dtd"
   xmlns:xlink="http://www.w3.org/1999/xlink"
   xmlns="http://www.w3.org/2000/svg"
   xmlns:svg="http://www.w3.org/2000/svg">
  <sodipodi:namedview
     id="namedview93879"
     pagecolor="#ffffff"
     bordercolor="#666666"
     borderopacity="1.0"
     inkscape:showpageshadow="2"
     inkscape:pageopacity="0.0"
     inkscape:pagecheckerboard="0"
     inkscape:deskcolor="#d1d1d1"
     showgrid="false"
     inkscape:zoom="14.75"
     inkscape:cx="5.6610169"
     inkscape:cy="8.0338983"
     inkscape:window-width="2496"
     inkscape:window-height="1025"
     inkscape:window-x="64"
     inkscape:window-y="27"
     inkscape:window-maximized="1"
     inkscape:current-layer="svg11300" />
  <defs
     id="defs3">
    <radialGradient
       id="radialGradient2852"
       cx="12"
       cy="13"
       r="10"
       gradientTransform="matrix(0,1.5,-0.8,0,16.39996,-7.0000098)"
       gradientUnits="userSpaceOnUse">
      <stop
         id="stop3909"
         style="stop-color:#fff;stop-opacity:.70588"
         offset="0" />
      <stop
         id="stop3911"
         style="stop-color:#fff;stop-opacity:.23529"
         offset="1" />
    </radialGradient>
    <linearGradient
       id="linearGradient2855"
       x1="13"
       x2="16"
       y1="2"
       y2="16"
       gradientTransform="matrix(0,0.65219,-0.69231,0,14.69236,0.1738802)"
       gradientUnits="userSpaceOnUse">
      <stop
         id="stop4576"
         style="stop-color:#282828"
         offset="0" />
      <stop
         id="stop4578"
         style="stop-color:#5a5c58"
         offset="1" />
    </linearGradient>
    <linearGradient
       id="linearGradient2861"
       x1="-104.53"
       x2="-104.76"
       y1="74.24"
       y2="84.22"
       gradientTransform="matrix(0.12086538,0,0,0.14245409,19.376493,-12.274334)"
       gradientUnits="userSpaceOnUse">
      <stop
         id="stop6546"
         style="stop-color:#ebebeb"
         offset="0" />
      <stop
         id="stop6548"
         style="stop-color:#b4b4b4"
         offset="1" />
    </linearGradient>
    <linearGradient
       id="linearGradient2863"
       x1="15.114"
       x2="15.031"
       y1="18"
       y2="40"
       gradientTransform="matrix(0.32146162,0,0,0.33848743,0.2851826,-13.816081)"
       gradientUnits="userSpaceOnUse">
      <stop
         id="stop7605"
         style="stop-color:#b4b4b4"
         offset="0" />
      <stop
         id="stop7607"
         style="stop-color:#8c8c8c"
         offset="1" />
    </linearGradient>
    <linearGradient
       id="linearGradient9736">
      <stop
         style="stop-color:#000000;stop-opacity:0.498"
         offset="0"
         id="stop9738" />
      <stop
         id="stop9740"
         offset="0.65400881"
         style="stop-color:#000000;stop-opacity:0" />
      <stop
         style="stop-color:#000000;stop-opacity:0.498"
         offset="1"
         id="stop9742" />
    </linearGradient>
    <linearGradient
       id="linearGradient10898-7">
      <stop
         id="stop10900-23"
         offset="0"
         style="stop-color:#ef2929;stop-opacity:1;" />
      <stop
         style="stop-color:#8ae234;stop-opacity:1"
         offset="0.37205976"
         id="stop10902-1" />
      <stop
         style="stop-color:#4e9a06;stop-opacity:1"
         offset="0.74411952"
         id="stop10904-5" />
      <stop
         id="stop10906-5"
         offset="1"
         style="stop-color:#73d216;stop-opacity:1" />
    </linearGradient>
    <linearGradient
       id="linearGradient10898-7-9">
      <stop
         id="stop10900-23-3"
         offset="0"
         style="stop-color:#ef2929;stop-opacity:1;" />
      <stop
         style="stop-color:#8ae234;stop-opacity:1"
         offset="0.37205976"
         id="stop10902-1-1" />
      <stop
         style="stop-color:#4e9a06;stop-opacity:1"
         offset="0.74411952"
         id="stop10904-5-9" />
      <stop
         id="stop10906-5-4"
         offset="1"
         style="stop-color:#73d216;stop-opacity:1" />
    </linearGradient>
    <linearGradient
       xlink:href="#linearGradient9736"
       id="linearGradient26978"
       gradientUnits="userSpaceOnUse"
       gradientTransform="translate(380)"
       x1="329.53024"
       y1="227.5"
       x2="333.43851"
       y2="227.5" />
    <linearGradient
       xlink:href="#linearGradient8901"
       id="linearGradient26980"
       gradientUnits="userSpaceOnUse"
       gradientTransform="matrix(1,0,0,-1,401,455.75693)"
       x1="311.5625"
       y1="224.125"
       x2="311.5625"
       y2="233.59396" />
    <linearGradient
       id="linearGradient8901">
      <stop
         style="stop-color:#ffffff;stop-opacity:1;"
         offset="0"
         id="stop8903" />
      <stop
         style="stop-color:#ffffff;stop-opacity:0;"
         offset="1"
         id="stop8905" />
    </linearGradient>
    <linearGradient
       xlink:href="#linearGradient8901"
       id="linearGradient26982"
       gradientUnits="userSpaceOnUse"
       gradientTransform="translate(400)"
       x1="310.41422"
       y1="227.50002"
       x2="318.1243"
       y2="227.50002" />
    <linearGradient
       xlink:href="#linearGradient8901"
       id="linearGradient26984"
       gradientUnits="userSpaceOnUse"
       gradientTransform="translate(399)"
       x1="311.5625"
       y1="224.125"
       x2="311.5625"
       y2="233.59396" />
    <linearGradient
       xlink:href="#linearGradient3504"
       id="linearGradient26986"
       gradientUnits="userSpaceOnUse"
       gradientTransform="translate(400)"
       x1="310.55246"
       y1="220.34"
       x2="310.55246"
       y2="221.31253" />
    <linearGradient
       id="linearGradient3504">
      <stop
         id="stop3506"
         offset="0"
         style="stop-color:#888a85;stop-opacity:1" />
      <stop
         id="stop3508"
         offset="1"
         style="stop-color:#d3d7cf;stop-opacity:1" />
    </linearGradient>
    <linearGradient
       y2="25"
       x2="36.608757"
       y1="25"
       x1="12.029413"
       gradientTransform="matrix(-0.27000001,0,0,0.3,17.980001,-0.54075915)"
       gradientUnits="userSpaceOnUse"
       id="linearGradient3941-27"
       xlink:href="#linearGradient971" />
    <linearGradient
       id="linearGradient971">
      <stop
         style="stop-color:#7a0000;stop-opacity:0"
         offset="0"
         id="stop961" />
      <stop
         id="stop963"
         offset="0.06865654"
         style="stop-color:#7a0000;stop-opacity:1" />
      <stop
         id="stop965"
         offset="0.5"
         style="stop-color:#7a0000;stop-opacity:0" />
      <stop
         style="stop-color:#7a0000;stop-opacity:1"
         offset="0.82605612"
         id="stop967" />
      <stop
         style="stop-color:#7a0000;stop-opacity:0"
         offset="1"
         id="stop969" />
    </linearGradient>
    <radialGradient
       cx="99.157013"
       cy="186.17059"
       r="62.769119"
       fx="99.157013"
       fy="186.17059"
       id="radialGradient5362-9"
       xlink:href="#linearGradient3820-7-2-1-2-6"
       gradientUnits="userSpaceOnUse"
       gradientTransform="matrix(0.0716913,0,0,0.01792283,4.3913055,9.0226498)" />
    <linearGradient
       id="linearGradient3820-7-2-1-2-6">
      <stop
         id="stop3822-2-6-3-3-7"
         style="stop-color:#3d3d3d;stop-opacity:1"
         offset="0" />
      <stop
         id="stop3864-8-7-7-9-1"
         style="stop-color:#686868;stop-opacity:0.49803922"
         offset="0.5" />
      <stop
         id="stop3824-1-2-5-0-3"
         style="stop-color:#686868;stop-opacity:0"
         offset="1" />
    </linearGradient>
    <linearGradient
       x1="20.4"
       y1="14.64286"
       x2="20.4"
       y2="58.07143"
       id="linearGradient4393-0"
       xlink:href="#linearGradient3242-4-2"
       gradientUnits="userSpaceOnUse"
       gradientTransform="matrix(0.25,0,0,0.08289474,5.500002,9.1204258)" />
    <linearGradient
       id="linearGradient3242-4-2">
      <stop
         id="stop3244-8-8"
         style="stop-color:#ff8c82;stop-opacity:1"
         offset="0" />
      <stop
         id="stop3250-3-0"
         style="stop-color:#a10705;stop-opacity:1"
         offset="1" />
    </linearGradient>
    <linearGradient
       x1="-17.12093"
       y1="-93.091553"
       x2="-45.761551"
       y2="-93.091553"
       id="linearGradient5066-8-59"
       xlink:href="#linearGradient5118"
       gradientUnits="userSpaceOnUse"
       gradientTransform="matrix(0.16584835,0,0,0.06011813,15.839477,6.5989183)"
       spreadMethod="reflect" />
    <linearGradient
       id="linearGradient5118">
      <stop
         id="stop5120"
         style="stop-color:#9d9d9d;stop-opacity:1"
         offset="0" />
      <stop
         id="stop5122"
         style="stop-color:#ffffff;stop-opacity:1"
         offset="1" />
    </linearGradient>
    <linearGradient
       x1="-20.446733"
       y1="-93.091553"
       x2="-48.479328"
       y2="-93.091553"
       id="linearGradient3457-7-6-6"
       xlink:href="#linearGradient2793-2-0-669-94-2"
       gradientUnits="userSpaceOnUse"
       gradientTransform="matrix(0.05733122,0,0,0.06801242,12.993668,7.1951683)"
       spreadMethod="reflect" />
    <linearGradient
       id="linearGradient2793-2-0-669-94-2">
      <stop
         id="stop4681-3-1"
         style="stop-color:#b4b4b4;stop-opacity:1"
         offset="0" />
      <stop
         id="stop4683-67-4"
         style="stop-color:#ffffff;stop-opacity:1"
         offset="1" />
    </linearGradient>
    <linearGradient
       x1="30"
       y1="7"
       x2="30"
       y2="43"
       id="linearGradient4760-20"
       xlink:href="#linearGradient4762"
       gradientUnits="userSpaceOnUse"
       gradientTransform="matrix(0.23399999,0,0,0.29189189,5.8840005,-0.33805665)" />
    <linearGradient
       id="linearGradient4762">
      <stop
         id="stop4764"
         style="stop-color:#ffffff;stop-opacity:1"
         offset="0" />
      <stop
         id="stop4766"
         style="stop-color:#ffffff;stop-opacity:0.23529412"
         offset="0.05034721" />
      <stop
         id="stop4768"
         style="stop-color:#ffffff;stop-opacity:0.15686275"
         offset="0.94965279" />
      <stop
         id="stop4770"
         style="stop-color:#ffffff;stop-opacity:0.39215687"
         offset="1" />
    </linearGradient>
    <linearGradient
       x1="13.681819"
       y1="17.458462"
       x2="17.77273"
       y2="35.717499"
       id="linearGradient5508-01"
       xlink:href="#linearGradient8901"
       gradientUnits="userSpaceOnUse"
       gradientTransform="matrix(0.43999974,0,0,0.62736453,3.230004,-9.7211146)" />
    <linearGradient
       x1="25.272734"
       y1="17.458462"
       x2="27.31819"
       y2="35.717499"
       id="linearGradient5510-67"
       xlink:href="#linearGradient8901"
       gradientUnits="userSpaceOnUse"
       gradientTransform="matrix(0.43999974,0,0,0.63659047,1.7300055,-9.9664141)" />
    <radialGradient
       cx="16.5"
       cy="7.5"
       r="3.5"
       fx="16.5"
       fy="7.5"
       id="radialGradient5132-57"
       xlink:href="#linearGradient8901"
       gradientUnits="userSpaceOnUse"
       gradientTransform="matrix(0.24052716,0,0,0.26558428,5.54601,-0.43142715)" />
    <linearGradient
       gradientTransform="matrix(0.3333471,0,0,0.32559732,-31.22855,5.592515)"
       gradientUnits="userSpaceOnUse"
       xlink:href="#linearGradient4171"
       id="linearGradient3042"
       y2="43.828014"
       x2="24"
       y1="1.7296801"
       x1="24" />
    <linearGradient
       id="linearGradient4171">
      <stop
         id="stop4173"
         offset="0"
         style="stop-color:#ffe16b;stop-opacity:1" />
      <stop
         id="stop4175"
         offset="1"
         style="stop-color:#f9c440;stop-opacity:1" />
    </linearGradient>
    <linearGradient
       gradientTransform="matrix(0.3209283,0,-0.00139699,0.29826454,-32.54816,2.061475)"
       gradientUnits="userSpaceOnUse"
       xlink:href="#linearGradient3117-8"
       id="linearGradient3039"
       y2="57.567127"
       x2="29.291178"
       y1="19.787613"
       x1="29.126724" />
    <linearGradient
       id="linearGradient3117-8">
      <stop
         id="stop3119-9"
         style="stop-color:#ffffff;stop-opacity:1"
         offset="0" />
      <stop
         id="stop3121-9"
         style="stop-color:#ffffff;stop-opacity:0.23529412"
         offset="0.56911701" />
      <stop
         id="stop3123-6"
         style="stop-color:#ffffff;stop-opacity:0.15686275"
         offset="0.93297637" />
      <stop
         id="stop3125-3"
         style="stop-color:#ffffff;stop-opacity:0.39215687"
         offset="1" />
    </linearGradient>
  </defs>
  <rect
     id="rect6674"
     x="0.44591349"
     y="-7.5540862"
     width="15.108172"
     height="7.1081729"
     rx="0.49288905"
     ry="0.46669376"
     style="fill:url(#linearGradient2861);stroke:url(#linearGradient2863);stroke-width:0.891827;enable-background:new"
     transform="rotate(90)" />
  <g
     id="g4982"
     transform="translate(-1.3999602)">
    <path
       id="rect5550"
       d="m 7.9999602,0.9999902 h -5 v 9 h 5 z m 0,9.9999998 h -3 v 1 h 3 z m 0,2 h -5 v 2 h 5 z m -4,-2 h -1 v 1 h 1 z"
       style="fill:url(#linearGradient2855)" />
    <path
       id="rect2340"
       d="m 7.9999602,1.9999902 h -1 v 1 h 1 z m -1,1 h -1 v 1 h 1 z m 0,1 v 1 h 1 v -1 z m 0,1 h -1 v 1 h 1 z m 0,1 v 1 h 1 v -1 z m 0,1 h -1 v 1 h 1 z m 0,1 v 1 h 1 v -1 z m 0,1 h -1 v 1 h 1 z m 0,1 V 10.99999 Z m 0,0.9999998 h -1 v 1 h 1 z m 0,1 v 1 z m 0,1 h -1 v 1 h 1 z m -1,0 v -1 h -1 v 1 z m -1,0 h -1 v 1 h 1 z m -1,0 v -1 z m 0,-1 h 1 v -1 h -1 z m 0,-1 V 9.9999902 Z m 0,-0.9999998 h 1 v -1 h -1 z m 0,-1 v -1 h -1 v 1 z m 0,-1 h 1 v -1 h -1 z m 0,-1 v -1 h -1 v 1 z m 0,-1 h 1 v -1 h -1 z m 0,-1 v -1 h -1 v 1 z m 0,-1 h 1 v -1 h -1 z m 0,-1 v -1 h -1 v 1 z m -1,-1 m 1,0 h 1 v -1 h -1 z m 1,0 v 1 h 1 v -1 z m 1,0 h 1 v -1 h -1 z m -1,2 v 1 h 1 v -1 z m 0,2 v 1 h 1 v -1 z m 0,2 v 1 h 1 v -1 z m 0,2 V 10.99999 h 1 V 9.9999902 Z m 1,3.9999998 m 0,0 v 1 h -1 v -1 z m -1,0 m -1,0 h -1 v 1 h 1 z"
       style="opacity:0.6;fill:url(#radialGradient2852)" />
  </g>
  <g
     id="g94412"
     transform="matrix(0.99297919,0,0,1.2303657,1.0060132,-0.00874831)">
    <path
       d="m 11.500001,1.1092423 c -1.8697505,0 -3.3750005,0.2007 -3.3750005,0.45 V 12.359242 c 0,0.2493 1.50525,0.45 3.3750005,0.45 1.86975,0 3.375,-0.2007 3.375,-0.45 V 1.5592423 c 0,-0.2493 -1.50525,-0.45 -3.375,-0.45 z"
       style="color:#000000;font-variation-settings:normal;display:block;overflow:visible;visibility:visible;opacity:0.1;fill:url(#linearGradient3941-27);fill-opacity:1;stroke:none;stroke-width:0.45;stroke-linecap:butt;stroke-linejoin:miter;stroke-miterlimit:4;stroke-dasharray:none;stroke-dashoffset:0;stroke-opacity:1;marker:none;enable-background:accumulate;stop-color:#000000"
       id="rect3268-4-90" />
    <rect
       width="6.75"
       height="1.575"
       rx="4.131"
       ry="0.45432699"
       x="8.1249781"
       y="11.234239"
       id="rect3268-0-1-0"
       style="color:#000000;display:inline;overflow:visible;visibility:visible;fill:url(#linearGradient4393-0);fill-opacity:1;fill-rule:nonzero;stroke:none;stroke-width:0.45;marker:none;enable-background:accumulate" />
    <path
       d="m 14.650001,11.697148 c 0,-0.256374 -1.4049,-0.462766 -3.15,-0.462766 -1.7451005,0 -3.1500005,0.206392 -3.1500005,0.462766"
       id="rect3268-0-31"
       style="color:#000000;display:inline;overflow:visible;visibility:visible;opacity:0.5;fill:none;fill-opacity:1;fill-rule:nonzero;stroke:#7a0000;stroke-width:0.45;stroke-linecap:round;stroke-linejoin:round;stroke-miterlimit:4;stroke-dasharray:none;stroke-dashoffset:0;stroke-opacity:1;marker:none;enable-background:accumulate" />
    <path
       d="m 11.500001,1.1092423 c -1.8697505,0 -3.3750005,0.2580435 -3.3750005,0.5785695 v 0.7714305 c 0,-0.3205305 1.50525,-0.5785695 3.3750005,-0.5785695 1.86975,0 3.375,0.258039 3.375,0.5785695 V 1.6878118 c 0,-0.320526 -1.50525,-0.5785695 -3.375,-0.5785695 z"
       id="rect3268-6-4-0"
       style="color:#000000;display:inline;overflow:visible;visibility:visible;fill:url(#linearGradient5066-8-59);fill-opacity:1;fill-rule:nonzero;stroke:none;stroke-width:0.45;marker:none;enable-background:accumulate" />
    <path
       d="m 8.3235315,2.2459513 c 0,-0.2542455 1.4167035,-0.4589235 3.1764695,-0.4589235 1.759765,0 3.176469,0.204678 3.176469,0.4589235"
       id="rect3268-6-36"
       style="color:#000000;display:block;overflow:visible;visibility:visible;opacity:0.3;fill:none;stroke:#000000;stroke-width:0.45;stroke-linecap:butt;stroke-linejoin:miter;stroke-miterlimit:7;stroke-dasharray:none;stroke-dashoffset:0;stroke-opacity:1;marker:none;enable-background:accumulate" />
    <path
       d="M 12.625001,1.1092423 V 0.57742335 c 0,-0.204588 -0.50175,-0.368181 -1.125,-0.368181 -0.62325,0 -1.125,0.163593 -1.125,0.368181 V 1.1092424"
       id="rect3268-3-9-73"
       style="color:#000000;display:inline;overflow:visible;visibility:visible;fill:url(#linearGradient3457-7-6-6);fill-opacity:1;fill-rule:nonzero;stroke:none;stroke-width:0.45;marker:none;enable-background:accumulate" />
    <path
       d="m 12.625001,0.88424235 v -0.398862 c 0,-0.153441 -0.50175,-0.276138 -1.125,-0.276138 -0.62325,0 -1.125,0.122697 -1.125,0.276138 v 0.398862"
       id="rect3268-3-221"
       style="color:#000000;display:block;overflow:visible;visibility:visible;opacity:0.3;fill:none;stroke:#000000;stroke-width:0.45;stroke-linecap:butt;stroke-linejoin:miter;stroke-miterlimit:7;stroke-dasharray:none;stroke-dashoffset:0;stroke-opacity:1;marker:none;enable-background:accumulate" />
    <path
       d="m 11.500001,1.5592423 c -0.868113,0 -1.650335,0.05036 -2.2083755,0.127701 -0.279018,0.0387 -0.5043105,0.08194 -0.6435,0.1277055 -0.038295,0.0126 -0.049887,0.016605 -0.073125,0.02736 V 12.076467 c 0.02322,0.01076 0.03483,0.01476 0.073125,0.02736 0.1391895,0.04576 0.364482,0.08903 0.6435,0.127701 0.5580405,0.07735 1.3402625,0.127705 2.2083755,0.127705 0.868113,0 1.650334,-0.05036 2.208375,-0.127701 0.279018,-0.03866 0.50431,-0.08194 0.6435,-0.127705 0.03829,-0.0126 0.04989,-0.01661 0.07312,-0.02736 V 1.8420088 c -0.02322,-0.010755 -0.03483,-0.01476 -0.07312,-0.02736 -0.13919,-0.045765 -0.364482,-0.089033 -0.6435,-0.1277055 -0.558041,-0.077341 -1.340262,-0.127701 -2.208375,-0.127701 z"
       id="path4752-533"
       style="color:#000000;display:block;overflow:visible;visibility:visible;opacity:0.8;fill:none;stroke:url(#linearGradient4760-20);stroke-width:0.45;stroke-linecap:butt;stroke-linejoin:miter;stroke-miterlimit:7;stroke-dasharray:none;stroke-dashoffset:0;stroke-opacity:1;marker:none;enable-background:accumulate" />
    <path
       id="rect3268-8"
       style="color:#000000;display:block;overflow:visible;visibility:visible;opacity:0.3;fill:none;stroke:#000000;stroke-width:0.45;stroke-linecap:butt;stroke-linejoin:miter;stroke-miterlimit:7;stroke-dasharray:none;stroke-dashoffset:0;stroke-opacity:1;marker:none;enable-background:accumulate"
       d="m 14.875001,2.2342423 v -0.675 c 0,-0.2493 -1.50525,-0.45 -3.375,-0.45 -1.8697505,0 -3.3750005,0.2007 -3.3750005,0.45 v 0.675"
       sodipodi:nodetypes="csssc" />
    <path
       d="m 11.050001,1.1092423 c -0.963806,0.03654 -1.3521785,0.1086435 -1.8000005,0.216666 V 12.592576 c 0.447822,0.108018 0.8361945,0.180144 1.8000005,0.216666 z"
       id="path5194-285"
       style="display:inline;overflow:visible;visibility:visible;opacity:0.3;fill:url(#linearGradient5508-01);fill-opacity:1;fill-rule:nonzero;stroke:none;stroke-width:0.45;marker:none;enable-background:new" />
    <path
       d="M 12.850001,1.1092423 V 12.809242 c 0.341001,-0.03784 0.691285,-0.08274 0.9,-0.133825 V 1.2430633 c -0.208715,-0.051084 -0.558999,-0.095998 -0.9,-0.133821 z"
       id="rect3244-8"
       style="display:inline;overflow:visible;visibility:visible;opacity:0.1;fill:url(#linearGradient5510-67);fill-opacity:1;fill-rule:nonzero;stroke:none;stroke-width:0.45;marker:none;enable-background:new" />
    <path
       d="m 10.35655,1.5604528 a 0.84184506,0.92954529 0 1 1 -1.683688,0 0.8418451,0.92954502 0 1 1 1.683688,0 z"
       id="path5124-08"
       style="color:#000000;display:inline;overflow:visible;visibility:visible;opacity:0.2;fill:url(#radialGradient5132-57);fill-opacity:1;fill-rule:nonzero;stroke:none;stroke-width:0.616513;marker:none;enable-background:accumulate" />
    <path
       d="m 14.641865,12.042069 c -0.406373,-0.207504 -1.655685,-0.357827 -3.141864,-0.357827 -1.481202,0 -2.7271175,0.149315 -3.1377515,0.355743"
       id="rect3268-0-7-69"
       style="color:#000000;display:block;overflow:visible;visibility:visible;opacity:0.2;fill:none;stroke:#ffffff;stroke-width:0.45;stroke-linecap:butt;stroke-linejoin:miter;stroke-miterlimit:7;stroke-dasharray:none;stroke-dashoffset:0;stroke-opacity:1;marker:none;enable-background:accumulate" />
    <path
       id="rect897"
       style="color:#000000;display:block;overflow:visible;visibility:visible;opacity:0.3;fill:none;stroke:#7a0000;stroke-width:0.45;stroke-linecap:butt;stroke-linejoin:miter;stroke-miterlimit:7;stroke-dasharray:none;stroke-dashoffset:0;stroke-opacity:1;marker:none;enable-background:accumulate"
       d="M 8.1250005,2.2342423 V 12.359242 c 0,0.2493 1.50525,0.45 3.3750005,0.45 1.86975,0 3.375,-0.2007 3.375,-0.45 V 2.2342423"
       sodipodi:nodetypes="csssc" />
  </g>
</svg>
